SplineFontDB: 3.0
FontName: SteveHand
FullName: SteveHand
FamilyName: Steve
Weight: Book
Copyright: A Steve JORDI handwriting font
Version: 1.0 Sat Mar 15 12:17:39 1997
ItalicAngle: -15
UnderlinePosition: -133
UnderlineWidth: 20
Ascent: 800
Descent: 200
InvalidEm: 0
LayerCount: 2
Layer: 0 1 "Back" 1
Layer: 1 1 "Fore" 0
FSType: 8
OS2Version: 0
OS2_WeightWidthSlopeOnly: 0
OS2_UseTypoMetrics: 0
CreationTime: 1180550474
ModificationTime: 1180551766
PfmFamily: 81
TTFWeight: 400
TTFWidth: 5
LineGap: 0
VLineGap: 0
Panose: 0 0 0 0 0 0 0 0 0 0
OS2TypoAscent: 1178
OS2TypoAOffset: 1
OS2TypoDescent: 392
OS2TypoDOffset: 1
OS2TypoLinegap: 0
OS2WinAscent: 1178
OS2WinAOffset: 1
OS2WinDescent: 392
OS2WinDOffset: 1
HheadAscent: 0
HheadAOffset: 1
HheadDescent: 0
HheadDOffset: 1
OS2Vendor: 'PfEd'
Lookup: 4 0 1 "'liga' Standard Ligatures lookup 0" { "'liga' Standard Ligatures lookup 0 subtable"  } ['liga' ('DFLT' <'dflt' > ) ]
Lookup: 4 0 0 "'frac' Diagonal Fractions lookup 1" { "'frac' Diagonal Fractions lookup 1 subtable"  } ['frac' ('DFLT' <'dflt' > ) ]
DEI: 91125
TtTable: prep
NPUSHB
 14
 77
 77
 76
 76
 36
 36
 9
 9
 0
 0
 43
 43
 69
 0
SCANTYPE
PUSHW_1
 511
SCANCTRL
SROUND
RCVT
ROUND[Grey]
WCVTP
RTG
PUSHB_4
 1
 0
 70
 0
CALL
PUSHB_4
 2
 0
 70
 0
CALL
PUSHB_4
 3
 0
 70
 0
CALL
PUSHB_4
 4
 0
 70
 0
CALL
PUSHB_4
 5
 0
 70
 0
CALL
PUSHB_4
 6
 0
 70
 0
CALL
PUSHB_4
 7
 0
 70
 0
CALL
PUSHB_4
 8
 0
 70
 0
CALL
PUSHB_4
 10
 0
 70
 0
CALL
PUSHB_4
 11
 0
 70
 0
CALL
PUSHB_4
 12
 0
 70
 0
CALL
PUSHB_4
 13
 9
 70
 0
CALL
PUSHB_4
 14
 9
 70
 0
CALL
PUSHB_4
 15
 0
 70
 0
CALL
PUSHB_4
 16
 0
 70
 0
CALL
PUSHB_4
 17
 0
 70
 0
CALL
PUSHB_4
 18
 9
 70
 0
CALL
PUSHB_4
 19
 0
 70
 0
CALL
PUSHB_4
 20
 9
 70
 0
CALL
PUSHB_4
 21
 0
 70
 0
CALL
PUSHB_4
 22
 9
 70
 0
CALL
PUSHB_4
 23
 0
 70
 0
CALL
PUSHB_4
 24
 0
 70
 0
CALL
PUSHB_4
 25
 9
 70
 0
CALL
PUSHB_4
 26
 0
 70
 0
CALL
PUSHB_4
 27
 36
 70
 0
CALL
PUSHB_4
 28
 36
 70
 0
CALL
PUSHB_4
 29
 36
 70
 0
CALL
PUSHB_4
 30
 9
 70
 0
CALL
PUSHB_4
 31
 0

StartChar: .notdef
Encoding: 0 -1 0
AltUni2: 000000.ffffffff.0
Width: 500
Flags: W
LayerCount: 2
Fore
SplineSet
31 0 m 1,0,-1
 31 1178 l 1,1,-1
 469 1178 l 1,2,-1
 469 0 l 1,3,-1
 31 0 l 1,0,-1
438 31 m 1,4,-1
 438 1147 l 1,5,-1
 62 1147 l 1,6,-1
 62 31 l 1,7,-1
 438 31 l 1,4,-1
EndSplineSet
EndChar

StartChar: exclam
Encoding: 33 33 2
Width: 196
Flags: W
LayerCount: 2
Fore
SplineSet
132 835 m 1,0,-1
 90 374 l 1,1,-1
 125 180 l 1,2,3
 125 157 125 157 110 148 c 1,4,-1
 90 144 l 1,5,6
 70 144 70 144 58 172 c 0,7,8
 53 184 53 184 50 200.5 c 128,-1,9
 47 217 47 217 47 236 c 2,10,-1
 47 484 l 1,11,-1
 62 580 l 1,12,13
 68 628 68 628 68 696 c 1,14,-1
 67 726 l 1,15,-1
 66 771 l 1,16,17
 66 837 66 837 73.5 858.5 c 128,-1,18
 81 880 81 880 97 881 c 0,19,20
 114 881 114 881 126 858 c 1,21,-1
 132 835 l 1,0,-1
132 -27 m 1,22,-1
 126 -56 l 1,23,24
 122 -63 122 -63 104 -63 c 0,25,26
 87 -63 87 -63 75 -55.5 c 128,-1,27
 63 -48 63 -48 61 -34 c 1,28,29
 61 -8 61 -8 77 2 c 1,30,-1
 111 15 l 1,31,-1
 132 15 l 1,32,-1
 132 -27 l 1,22,-1
EndSplineSet
EndChar

StartChar: quotedbl
Encoding: 34 34 3
Width: 602
Flags: W
LayerCount: 2
Fore
SplineSet
527 852 m 0,0,1
 527 834 527 834 506.5 822.5 c 128,-1,2
 486 811 486 811 440 727 c 1,3,-1
 353 560 l 2,4,5
 296 450 296 450 255 401 c 0,6,7
 232 372 232 372 212 372 c 0,8,9
 193 372 193 372 177 397 c 0,10,11
 169 410 169 410 167 414.5 c 128,-1,12
 165 419 165 419 163 424 c 1,13,-1
 227 508 l 2,14,15
 319 627 319 627 363 695 c 0,16,17
 437 807 437 807 437 844 c 0,18,19
 437 856 437 856 430 860 c 0,20,21
 409 870 409 870 321 763 c 0,22,23
 251 677 251 677 162 548 c 1,24,-1
 65 405 l 1,25,26
 47 410 47 410 32 429 c 0,27,28
 11 456 11 456 11 500 c 0,29,30
 11 532 11 532 58 644 c 0,31,32
 95 735 95 735 153.5 851 c 128,-1,33
 212 967 212 967 231 985 c 0,34,35
 237 991 237 991 247 993 c 1,36,37
 260 993 260 993 268.5 967 c 128,-1,38
 277 941 277 941 277 923 c 0,39,40
 277 907 277 907 222 794 c 2,41,-1
 119 580 l 1,42,43
 90 516 90 516 76.5 480.5 c 128,-1,44
 63 445 63 445 63 428 c 1,45,-1
 324 812 l 1,46,47
 357 832 357 832 393 872 c 0,48,49
 454 942 454 942 464 943 c 0,50,51
 475 943 475 943 501 909.5 c 128,-1,52
 527 876 527 876 527 852 c 0,0,1
EndSplineSet
EndChar

StartChar: numbersign
Encoding: 35 35 4
Width: 805
Flags: W
LayerCount: 2
Fore
SplineSet
854 471 m 1,0,-1
 784 439 l 2,1,2
 733 417 733 417 636 385 c 1,3,-1
 637 401 l 1,4,-1
 636 428 l 1,5,-1
 621 428 l 1,6,7
 587 414 587 414 546 409 c 1,8,9
 527 409 527 409 514.5 403 c 128,-1,10
 502 397 502 397 492 385 c 1,11,-1
 492 284 l 1,12,-1
 729 327 l 1,13,-1
 740 326 l 1,14,-1
 750 327 l 1,15,-1
 750 306 l 1,16,17
 740 280 740 280 710 264.5 c 128,-1,18
 680 249 680 249 632 249 c 256,19,20
 584 249 584 249 555 245.5 c 128,-1,21
 526 242 526 242 503 233 c 128,-1,22
 480 224 480 224 464.5 119 c 128,-1,23
 449 14 449 14 385 -2 c 1,24,-1
 385 69 l 1,25,26
 418 81 418 81 427 114 c 1,27,-1
 442 177 l 1,28,-1
 442 213 l 1,29,30
 335 213 335 213 303 163 c 0,31,32
 296 151 296 151 276 55 c 1,33,34
 263 -17 263 -17 206 -45 c 1,35,-1
 206 5 l 1,36,37
 216 27 216 27 228.5 85.5 c 128,-1,38
 241 144 241 144 241 184 c 1,39,40
 221 184 221 184 210 183 c 128,-1,41
 199 182 199 182 170 177 c 2,42,-1
 120 170 l 1,43,44
 77 170 77 170 77 198 c 0,45,46
 77 221 77 221 128 229 c 1,47,-1
 227 241 l 1,48,49
 277 250 277 250 281 295 c 1,50,51
 281 317 281 317 284 332.5 c 128,-1,52
 287 348 287 348 292 363 c 1,53,-1
 241 363 l 2,54,55
 196 363 196 363 133 342 c 2,56,-1
 5 299 l 1,57,-1
 -17 299 l 1,58,-1
 -17 342 l 1,59,60
 85 386 85 386 234 409 c 0,61,62
 299 418 299 418 299 485 c 1,63,-1
 309 650 l 1,64,65
 309 729 309 729 319 777.5 c 128,-1,66
 329 826 329 826 342 843 c 1,67,68
 366 824 366 824 372.5 817 c 128,-1,69
 379 810 379 810 379 797 c 1,70,-1
 378 765 l 1,71,72
 378 747 378 747 368 697 c 1,73,-1
 349 571 l 1,74,-1
 370 571 l 1,75,76
 370 609 370 609 388 665 c 0,77,78
 428 788 428 788 428 843 c 0,79,80
 428 867 428 867 444 879 c 0,81,82
 450 884 450 884 478 894 c 1,83,-1
 490 846 l 1,84,-1
 497 811 l 1,85,-1
 488 685 l 1,86,-1
 485 485 l 1,87,88
 485 479 485 479 501 460 c 0,89,90
 509 451 509 451 514 449 c 1,91,-1
 564 449 l 1,92,-1
 574 456 l 2,93,94
 582 460 582 460 591.5 462 c 128,-1,95
 601 464 601 464 614 464 c 1,96,-1
 687 474 l 2,97,98
 772 485 772 485 793 485 c 1,99,-1
 823 482 l 2,100,101
 832 481 832 481 838.5 479 c 128,-1,102
 845 477 845 477 854 471 c 1,0,-1
435 485 m 2,103,-1
 435 661 l 2,104,105
 435 626 435 626 415 561.5 c 128,-1,106
 395 497 395 497 378 464 c 1,107,-1
 378 442 l 1,108,-1
 397 442 l 2,109,110
 424 442 424 442 429.5 448.5 c 128,-1,111
 435 455 435 455 435 485 c 2,103,-1
442 277 m 1,112,-1
 442 385 l 1,113,-1
 406 385 l 1,114,115
 370 368 370 368 348 349 c 1,116,-1
 335 335 l 1,117,-1
 336 309 l 1,118,-1
 338 256 l 1,119,120
 352 261 352 261 385 266 c 1,121,122
 422 269 422 269 442 277 c 1,112,-1
EndSplineSet
EndChar

StartChar: dollar
Encoding: 36 36 5
Width: 585
Flags: W
LayerCount: 2
Fore
SplineSet
553 249 m 0,0,1
 553 198 553 198 460 106 c 1,2,3
 416 64 416 64 416 17 c 1,4,-1
 417 -73 l 1,5,-1
 420 -153 l 1,6,-1
 408 -163 l 2,7,8
 396 -172 396 -172 383 -192 c 1,9,10
 372 -189 372 -189 368 -175 c 1,11,-1
 364 -147 l 1,12,13
 364 -129 364 -129 366 -120 c 2,14,-1
 370 -100 l 1,15,-1
 370 -22 l 1,16,-1
 370 32 l 1,17,-1
 360 34 l 1,18,-1
 318 39 l 1,19,20
 303 39 303 39 293.5 35.5 c 128,-1,21
 284 32 284 32 281 26 c 1,22,-1
 280 13 l 1,23,-1
 280 1 l 1,24,-1
 281 -63 l 1,25,26
 281 -77 281 -77 281 -89.5 c 128,-1,27
 281 -102 281 -102 283 -117 c 1,28,-1
 283 -143 l 2,29,30
 283 -160 283 -160 281 -174 c 1,31,32
 281 -192 281 -192 274 -213 c 1,33,-1
 245 -209 l 1,34,-1
 241 -165 l 1,35,-1
 243 -94 l 1,36,-1
 245 38 l 1,37,38
 203 38 203 38 88 102 c 0,39,40
 -45 177 -45 177 -57 249 c 1,41,-1
 -12 249 l 1,42,43
 20 203 20 203 94 153 c 0,44,45
 177 96 177 96 226 96 c 0,46,47
 246 96 246 96 253.5 121.5 c 128,-1,48
 261 147 261 147 261 191 c 1,49,-1
 259 262 l 1,50,-1
 258 308 l 1,51,-1
 258 411 l 1,52,53
 191 419 191 419 129 465 c 0,54,55
 52 522 52 522 52 605 c 0,56,57
 52 704 52 704 158 730.5 c 128,-1,58
 264 757 264 757 264 775 c 1,59,-1
 262 819 l 1,60,-1
 260 851 l 1,61,-1
 260 883 l 1,62,-1
 264 910 l 1,63,-1
 290 910 l 1,64,-1
 292 851 l 1,65,-1
 295 806 l 1,66,67
 295 773 295 773 290 758 c 1,68,-1
 307 751 l 1,69,-1
 329 748 l 1,70,71
 360 748 360 748 361 758 c 1,72,-1
 355 809 l 1,73,74
 355 858 355 858 354 905 c 128,-1,75
 353 952 353 952 352 996 c 1,76,-1
 380 973 l 1,77,78
 394 964 394 964 394 945 c 1,79,-1
 393 925 l 1,80,-1
 393 902 l 2,81,82
 393 783 393 783 405 760 c 0,83,84
 421 732 421 732 502 732 c 1,85,-1
 503 717 l 1,86,-1
 503 702 l 1,87,-1
 502 672 l 1,88,89
 488 678 488 678 469 680 c 1,90,-1
 441 676 l 1,91,-1
 412 672 l 1,92,-1
 412 605 l 1,93,-1
 422 541 l 1,94,-1
 426 489 l 1,95,-1
 426 457 l 1,96,-1
 427 426 l 1,97,98
 429 415 429 415 438 402 c 1,99,100
 484 376 484 376 518.5 335 c 128,-1,101
 553 294 553 294 553 249 c 0,0,1
386 435 m 1,102,-1
 386 461 l 1,103,-1
 386 475 l 1,104,-1
 386 487 l 2,105,106
 386 504 386 504 385.5 517.5 c 128,-1,107
 385 531 385 531 382 545 c 0,108,109
 379 568 379 568 370 589 c 1,110,111
 370 603 370 603 365 631 c 1,112,-1
 361 690 l 1,113,-1
 303 690 l 1,114,-1
 300 594 l 1,115,116
 300 545 300 545 298 519 c 128,-1,117
 296 493 296 493 293 481 c 0,118,119
 287 453 287 453 335 441 c 1,120,-1
 386 435 l 1,102,-1
258 470 m 1,121,-1
 258 571 l 1,122,-1
 252 590 l 1,123,-1
 251 613 l 1,124,-1
 251 631 l 2,125,126
 251 646 251 646 253 655 c 1,127,-1
 250 675 l 1,128,129
 244 690 244 690 219 690 c 0,130,131
 177 690 177 690 140 666.5 c 128,-1,132
 103 643 103 643 103 605 c 0,133,134
 103 565 103 565 148 527 c 1,135,136
 204 482 204 482 258 470 c 1,121,-1
508 232 m 0,137,138
 508 264 508 264 481 293 c 0,139,140
 465 311 465 311 436 326 c 1,141,-1
 434 262 l 1,142,-1
 431 130 l 1,143,144
 461 137 461 137 484.5 170.5 c 128,-1,145
 508 204 508 204 508 232 c 0,137,138
387 254 m 1,146,-1
 386 274 l 1,147,148
 386 315 386 315 376 340.5 c 128,-1,149
 366 366 366 366 350 374 c 2,150,-1
 292 405 l 1,151,152
 292 380 292 380 291 324.5 c 128,-1,153
 290 269 290 269 290 238 c 2,154,-1
 290 105 l 1,155,-1
 386 105 l 1,156,-1
 381 132 l 1,157,-1
 380 160 l 1,158,159
 380 165 380 165 381 180 c 128,-1,160
 382 195 382 195 385 218 c 1,161,-1
 387 254 l 1,146,-1
EndSplineSet
EndChar

StartChar: percent
Encoding: 37 37 6
Width: 510
Flags: W
LayerCount: 2
Fore
SplineSet
486 805 m 1,0,1
 384 660 384 660 268 444 c 0,2,3
 145 213 145 213 130 118 c 0,4,5
 129 106 129 106 140 96 c 1,6,-1
 162 83 l 1,7,-1
 143 60 l 1,8,9
 130 47 130 47 114 47 c 1,10,-1
 83 24 l 1,11,-1
 51 24 l 1,12,-1
 51 55 l 1,13,14
 73 90 73 90 108 179 c 1,15,-1
 172 345 l 2,16,17
 191 394 191 394 204.5 427.5 c 128,-1,18
 218 461 218 461 225 474 c 2,19,-1
 301 605 l 2,20,21
 335 664 335 664 351 703 c 1,22,-1
 320 703 l 1,23,24
 300 697 300 697 255 636 c 0,25,26
 218 584 218 584 146 584 c 0,27,28
 122 584 122 584 104 609 c 0,29,30
 93 626 93 626 91 639 c 1,31,32
 91 702 91 702 151 753 c 0,33,34
 204 797 204 797 249 797 c 0,35,36
 279 797 279 797 290 777.5 c 128,-1,37
 301 758 301 758 320 758 c 1,38,-1
 454 829 l 1,39,40
 464 829 464 829 477 816 c 1,41,-1
 486 805 l 1,0,1
462 134 m 1,42,-1
 444 102 l 1,43,44
 391 31 391 31 288 31 c 0,45,46
 267 31 267 31 257 41 c 1,47,48
 249 52 249 52 249 71 c 0,49,50
 249 88 249 88 290 161 c 1,51,52
 335 245 335 245 359 245 c 0,53,54
 366 245 366 245 374 237 c 1,55,56
 383 231 383 231 383 221 c 0,57,58
 383 213 383 213 340 158 c 0,59,60
 317 130 317 130 304 118 c 1,61,-1
 304 95 l 1,62,-1
 343 95 l 1,63,64
 394 104 394 104 394 147 c 0,65,66
 394 189 394 189 422 189 c 0,67,68
 439 189 439 189 453 162 c 1,69,-1
 462 134 l 1,42,-1
241 746 m 1,70,71
 195 734 195 734 174 707 c 1,72,-1
 138 655 l 1,73,-1
 138 632 l 1,74,-1
 141 641 l 1,75,-1
 162 632 l 1,76,-1
 216 669 l 1,77,78
 216 681 216 681 241 746 c 1,70,71
EndSplineSet
EndChar

StartChar: ampersand
Encoding: 38 38 7
Width: 539
Flags: W
LayerCount: 2
Fore
SplineSet
570 243 m 0,0,1
 570 234 570 234 470.5 183.5 c 128,-1,2
 371 133 371 133 371 113 c 0,3,4
 371 105 371 105 402 81 c 1,5,6
 439 55 439 55 458 21 c 1,7,-1
 429 11 l 1,8,-1
 413 9 l 2,9,10
 407 9 407 9 383 27 c 0,11,12
 328 70 328 70 304 80 c 1,13,-1
 24 -91 l 1,14,-1
 -39 -92 l 1,15,-1
 -39 -58 l 1,16,-1
 129 307 l 1,17,18
 120 330 120 330 84 386 c 0,19,20
 27 476 27 476 27 538 c 0,21,22
 27 612 27 612 104 674 c 0,23,24
 165 723 165 723 301 785 c 1,25,-1
 386 785 l 1,26,-1
 385 673 l 1,27,-1
 196 306 l 1,28,29
 206 288 206 288 219.5 268 c 128,-1,30
 233 248 233 248 254 222 c 0,31,32
 305 159 305 159 332 159 c 0,33,34
 341 159 341 159 428 222.5 c 128,-1,35
 515 286 515 286 524 288 c 1,36,37
 542 288 542 288 556 274 c 128,-1,38
 570 260 570 260 570 243 c 0,0,1
315 707 m 1,39,-1
 315 742 l 1,40,-1
 305 742 l 1,41,-1
 192 680 l 1,42,43
 139 648 139 648 113 617 c 0,44,45
 84 582 84 582 84 537 c 0,46,47
 84 501 84 501 111 438 c 0,48,49
 128 401 128 401 156 351 c 1,50,51
 183 421 183 421 232 510 c 1,52,-1
 279 589 l 1,53,54
 288 611 288 611 297 644 c 1,55,-1
 315 707 l 1,39,-1
256 121 m 1,56,-1
 256 135 l 1,57,58
 242 150 242 150 201 208 c 1,59,-1
 170 254 l 1,60,61
 155 229 155 229 110.5 116 c 128,-1,62
 66 3 66 3 55 -13 c 1,63,-1
 55 -18 l 1,64,65
 84 -6 84 -6 165 54 c 2,66,-1
 256 121 l 1,56,-1
EndSplineSet
EndChar

StartChar: quotesingle
Encoding: 39 39 8
Width: 252
Flags: W
LayerCount: 2
Fore
SplineSet
218 817 m 1,0,1
 207 816 207 816 120.5 727.5 c 128,-1,2
 34 639 34 639 17 639 c 1,3,-1
 70 720 l 1,4,5
 135 803 135 803 131 809 c 1,6,7
 125 812 125 812 118 838 c 2,8,-1
 112 862 l 1,9,10
 112 880 112 880 128 905 c 128,-1,11
 144 930 144 930 162 930 c 0,12,13
 171 930 171 930 185 917 c 0,14,15
 195 907 195 907 214 877 c 1,16,-1
 218 817 l 1,0,1
EndSplineSet
EndChar

StartChar: parenleft
Encoding: 40 40 9
Width: 266
Flags: W
LayerCount: 2
Fore
SplineSet
233 42 m 1,0,1
 233 16 233 16 219.5 6 c 128,-1,2
 206 -4 206 -4 187 -4 c 0,3,4
 173 -4 173 -4 126.5 62 c 128,-1,5
 80 128 80 128 43 214 c 0,6,7
 22 266 22 266 11 311.5 c 128,-1,8
 0 357 0 357 0 396 c 0,9,10
 0 515 0 515 65.5 656 c 128,-1,11
 131 797 131 797 178 797 c 2,12,-1
 205 797 l 1,13,-1
 205 751 l 1,14,15
 143 686 143 686 108 613 c 0,16,17
 66 523 66 523 66 406 c 0,18,19
 66 303 66 303 118 209 c 1,20,-1
 233 42 l 1,0,1
EndSplineSet
EndChar

StartChar: parenright
Encoding: 41 41 10
Width: 266
Flags: W
LayerCount: 2
Fore
SplineSet
230 515 m 1,0,1
 230 429 230 429 218 348 c 0,2,3
 203 249 203 249 166 130 c 1,4,-1
 141 38 l 2,5,6
 126 -18 126 -18 83 -39 c 1,7,-1
 59 -41 l 1,8,-1
 57 -22 l 1,9,-1
 57 -9 l 1,10,11
 56 6 56 6 102.5 96.5 c 128,-1,12
 149 187 149 187 149 233 c 1,13,-1
 164 295 l 1,14,15
 179 367 179 367 179 420 c 2,16,-1
 179 437 l 1,17,-1
 178 446 l 1,18,-1
 162 638 l 1,19,-1
 146 644 l 2,20,21
 140 647 140 647 136 652 c 1,22,-1
 66 808 l 1,23,24
 66 816 66 816 75.5 828 c 128,-1,25
 85 840 85 840 95 843 c 1,26,27
 128 843 128 843 175 729 c 0,28,29
 219 618 219 618 230 515 c 1,0,1
EndSplineSet
EndChar

StartChar: asterisk
Encoding: 42 42 11
Width: 770
Flags: W
LayerCount: 2
Fore
SplineSet
827 599 m 1,0,1
 760 558 760 558 678 518 c 1,2,-1
 537 453 l 1,3,-1
 427 405 l 2,4,5
 418 401 418 401 414 392 c 1,6,-1
 411 379 l 1,7,-1
 414 361 l 1,8,-1
 420 346 l 1,9,10
 429 320 429 320 535 233 c 1,11,-1
 641 152 l 1,12,-1
 624 119 l 1,13,14
 614 106 614 106 604 106 c 0,15,16
 597 106 597 106 538 161 c 0,17,18
 503 193 503 193 480 216 c 0,19,20
 454 242 454 242 436 264 c 1,21,-1
 408 264 l 1,22,23
 406 255 406 255 405 231 c 128,-1,24
 404 207 404 207 404 153 c 0,25,26
 404 80 404 80 408 40 c 1,27,28
 408 18 408 18 411.5 3 c 128,-1,29
 415 -12 415 -12 423 -29 c 1,30,-1
 367 -29 l 1,31,-1
 367 -17 l 1,32,-1
 364 114 l 1,33,34
 364 161 364 161 357.5 198.5 c 128,-1,35
 351 236 351 236 342 262 c 1,36,37
 318 240 318 240 303 195.5 c 128,-1,38
 288 151 288 151 288 89 c 0,39,40
 288 26 288 26 282.5 -10.5 c 128,-1,41
 277 -47 277 -47 268 -62 c 1,42,-1
 231 -62 l 1,43,-1
 231 22 l 1,44,-1
 306 338 l 1,45,46
 262 338 262 338 177 305.5 c 128,-1,47
 92 273 92 273 54 273 c 2,48,-1
 26 273 l 1,49,-1
 26 329 l 1,50,51
 90 340 90 340 128 351 c 0,52,53
 208 372 208 372 240 399 c 1,54,55
 182 461 182 461 103 533 c 0,56,57
 63 570 63 570 63 590 c 1,58,59
 65 591 65 591 65 599 c 0,60,61
 65 610 65 610 63 618 c 1,62,-1
 110 618 l 1,63,64
 124 604 124 604 134 594 c 0,65,66
 174 554 174 554 205 522 c 0,67,68
 265 461 265 461 315 422 c 1,69,-1
 315 460 l 2,70,71
 315 537 315 537 307 606 c 128,-1,72
 299 675 299 675 278 711 c 1,73,-1
 278 823 l 1,74,-1
 312 822 l 2,75,76
 321 822 321 822 325 820 c 1,77,-1
 333 823 l 1,78,79
 333 791 333 791 337 752 c 0,80,81
 338 745 338 745 344 698 c 0,82,83
 359 570 359 570 380 543 c 1,84,85
 400 573 400 573 425 625 c 0,86,87
 447 673 447 673 464 720 c 1,88,-1
 510 720 l 1,89,90
 510 673 510 673 479 617 c 0,91,92
 413 496 413 496 411 478 c 0,93,94
 411 462 411 462 416 452 c 1,95,-1
 809 618 l 1,96,-1
 827 599 l 1,0,1
EndSplineSet
EndChar

StartChar: plus
Encoding: 43 43 12
Width: 868
Flags: W
LayerCount: 2
Fore
SplineSet
844 424 m 1,0,1
 837 364 837 364 795 339 c 1,2,3
 760 320 760 320 700 320 c 2,4,-1
 637 322 l 1,5,-1
 590 324 l 2,6,7
 558 324 558 324 537.5 320.5 c 128,-1,8
 517 317 517 317 500 307 c 1,9,-1
 477 108 l 1,10,-1
 470 -30 l 1,11,-1
 455 -31 l 1,12,-1
 441 -31 l 1,13,-1
 421 -31 l 1,14,-1
 408 -30 l 2,15,16
 389 -30 389 -30 381 -3 c 1,17,18
 374 29 374 29 374 76 c 1,19,-1
 375 137 l 1,20,-1
 376 200 l 1,21,22
 376 263 376 263 368.5 295 c 128,-1,23
 361 327 361 327 335 335 c 1,24,25
 338 326 338 326 307.5 316.5 c 128,-1,26
 277 307 277 307 198 307 c 2,27,-1
 159 307 l 2,28,29
 109 307 109 307 86 315 c 0,30,31
 75 319 75 319 53.5 331 c 128,-1,32
 32 343 32 343 5 362 c 1,33,-1
 5 390 l 1,34,35
 27 405 27 405 55 412 c 0,36,37
 70 415 70 415 83 417 c 128,-1,38
 96 419 96 419 112 419 c 0,39,40
 147 419 147 419 178 412 c 0,41,42
 188 411 188 411 191 410 c 128,-1,43
 194 409 194 409 205 404 c 1,44,45
 248 404 248 404 274.5 406 c 128,-1,46
 301 408 301 408 321.5 414 c 128,-1,47
 342 420 342 420 342 437 c 1,48,-1
 340 569 l 1,49,-1
 338 668 l 1,50,51
 338 691 338 691 340 731 c 128,-1,52
 342 771 342 771 342 788 c 1,53,-1
 373 785 l 2,54,55
 381 785 381 785 390 785 c 1,56,57
 404 788 404 788 412 789 c 2,58,-1
 442 793 l 1,59,60
 460 793 460 793 463 776 c 1,61,-1
 466 736 l 1,62,-1
 466 708 l 1,63,64
 463 683 463 683 462 668 c 1,65,-1
 453 549 l 1,66,67
 453 492 453 492 468 465 c 0,68,69
 487 431 487 431 533 431 c 1,70,-1
 586 439 l 2,71,72
 653 447 653 447 704 447 c 0,73,74
 724 447 724 447 743 446 c 128,-1,75
 762 445 762 445 789.5 441.5 c 128,-1,76
 817 438 817 438 844 424 c 1,0,1
EndSplineSet
EndChar

StartChar: comma
Encoding: 44 44 13
Width: 216
Flags: W
LayerCount: 2
Fore
SplineSet
212 22 m 1,0,1
 204 21 204 21 130.5 -83.5 c 128,-1,2
 57 -188 57 -188 38 -188 c 1,3,-1
 80 -91 l 1,4,5
 134 9 134 9 130 14 c 0,6,7
 124 20 124 20 118 41 c 1,8,-1
 112 69 l 1,9,10
 112 88 112 88 127.5 113.5 c 128,-1,11
 143 139 143 139 160 139 c 0,12,13
 170 139 170 139 187 118 c 1,14,-1
 210 83 l 1,15,-1
 212 22 l 1,0,1
EndSplineSet
EndChar

StartChar: hyphen
Encoding: 45 45 14
Width: 483
Flags: W
LayerCount: 2
Fore
SplineSet
454 376 m 0,0,1
 457 355 457 355 399 345 c 2,2,-1
 350 338 l 1,3,-1
 166 305 l 1,4,-1
 63 284 l 1,5,-1
 16 269 l 1,6,-1
 0 276 l 1,7,-1
 -5 305 l 1,8,-1
 46 325 l 1,9,-1
 68 318 l 1,10,-1
 245 348 l 1,11,-1
 374 372 l 1,12,-1
 375 375 l 1,13,14
 380 383 380 383 416 390 c 1,15,-1
 422 394 l 1,16,-1
 435 398 l 1,17,18
 442 398 442 398 446.5 394 c 128,-1,19
 451 390 451 390 454 376 c 0,0,1
EndSplineSet
EndChar

StartChar: period
Encoding: 46 46 15
Width: 328
Flags: W
LayerCount: 2
Fore
SplineSet
299 -78 m 1,0,1
 282 -82 282 -82 269 -83 c 128,-1,2
 256 -84 256 -84 238 -84 c 2,3,-1
 216 -84 l 1,4,-1
 208 -83 l 1,5,-1
 166 -48 l 1,6,7
 126 -12 126 -12 126 2 c 0,8,9
 126 39 126 39 151.5 80 c 128,-1,10
 177 121 177 121 208 124 c 1,11,12
 224 124 224 124 256 88 c 1,13,-1
 294 28 l 1,14,-1
 299 -78 l 1,0,1
EndSplineSet
EndChar

StartChar: slash
Encoding: 47 47 16
Width: 644
Flags: W
LayerCount: 2
Fore
SplineSet
639 771 m 1,0,1
 570 771 570 771 511 721 c 0,2,3
 467 682 467 682 406 590 c 2,4,-1
 283 405 l 1,5,6
 199 287 199 287 143 160 c 1,7,-1
 86 19 l 1,8,9
 65 -26 65 -26 20 -26 c 2,10,-1
 -8 -26 l 1,11,-1
 -8 20 l 1,12,-1
 70 141 l 1,13,-1
 193 340 l 2,14,15
 256 443 256 443 264 461 c 1,16,-1
 327 558 l 1,17,18
 402 668 402 668 461 733 c 0,19,20
 546 827 546 827 592 827 c 2,21,-1
 609 826 l 1,22,-1
 623 826 l 1,23,-1
 639 827 l 1,24,-1
 639 771 l 1,0,1
EndSplineSet
EndChar

StartChar: zero
Encoding: 48 48 17
Width: 798
Flags: W
LayerCount: 2
Fore
SplineSet
774 290 m 0,0,1
 774 144 774 144 637 56 c 0,2,3
 517 -22 517 -22 354 -22 c 0,4,5
 335 -22 335 -22 310.5 -18 c 128,-1,6
 286 -14 286 -14 258 -5 c 0,7,8
 149 28 149 28 79 108 c 1,9,10
 -18 222 -18 222 -18 410 c 0,11,12
 -18 574 -18 574 56 670 c 0,13,14
 113 745 113 745 214 776 c 0,15,16
 280 796 280 796 355 796 c 2,17,-1
 377 795 l 1,18,-1
 390 794 l 1,19,-1
 401 813 l 1,20,21
 412 830 412 830 438 830 c 0,22,23
 462 830 462 830 542 754 c 0,24,25
 634 665 634 665 695 558 c 0,26,27
 774 418 774 418 774 290 c 0,0,1
690 290 m 0,28,29
 690 393 690 393 654 477 c 0,30,31
 603 593 603 593 570 590 c 1,32,-1
 553 593 l 1,33,-1
 534 591 l 1,34,-1
 522 590 l 2,35,36
 492 590 492 590 479 628 c 0,37,38
 472 648 472 648 464 668 c 0,39,-1
 462 674 l 1,40,-1
 342 674 l 1,41,-1
 341 692 l 1,42,43
 335 710 335 710 306 710 c 0,44,45
 202 710 202 710 140 587 c 0,46,47
 90 487 90 487 90 374 c 0,48,49
 90 224 90 224 156 144 c 0,50,51
 203 88 203 88 292 64 c 1,52,-1
 402 38 l 1,53,54
 409 46 409 46 493 63 c 128,-1,55
 577 80 577 80 622 118 c 0,56,57
 690 175 690 175 690 290 c 0,28,29
EndSplineSet
EndChar

StartChar: one
Encoding: 49 49 18
Width: 245
Flags: W
LayerCount: 2
Fore
SplineSet
218 27 m 0,0,1
 218 13 218 13 193 1 c 1,2,-1
 150 -12 l 1,3,4
 145 2 145 2 112 142 c 0,5,6
 75 306 75 306 54 422 c 0,7,8
 25 590 25 590 25 666 c 1,9,-1
 24 693 l 1,10,-1
 23 719 l 1,11,12
 23 731 23 731 23.5 745.5 c 128,-1,13
 24 760 24 760 32 781 c 128,-1,14
 40 802 40 802 63 802 c 0,15,16
 93 802 93 802 93 699 c 0,17,18
 93 647 93 647 99.5 600 c 128,-1,19
 106 553 106 553 121 492 c 1,20,-1
 180 182 l 1,21,-1
 199 116 l 1,22,23
 218 43 218 43 218 27 c 0,0,1
EndSplineSet
EndChar

StartChar: two
Encoding: 50 50 19
Width: 623
Flags: W
LayerCount: 2
Fore
SplineSet
699 51 m 1,0,-1
 697 36 l 1,1,-1
 697 16 l 1,2,3
 694 7 694 7 678 -2 c 1,4,-1
 548 -18 l 1,5,-1
 302 -48 l 1,6,-1
 161 -65 l 1,7,-1
 149 -65 l 2,8,9
 107 -65 107 -65 87 -61 c 0,10,11
 13 -49 13 -49 13 -12 c 1,12,-1
 119 116 l 2,13,14
 181 192 181 192 231 260 c 128,-1,15
 281 328 281 328 318 386 c 0,16,17
 425 555 425 555 425 642 c 0,18,19
 425 720 425 720 379 754 c 0,20,21
 342 780 342 780 277 780 c 0,22,23
 251 780 251 780 232.5 778 c 128,-1,24
 214 776 214 776 188 769 c 0,25,26
 146 760 146 760 108 738 c 1,27,-1
 66 738 l 1,28,-1
 66 790 l 1,29,30
 84 804 84 804 108 816 c 128,-1,31
 132 828 132 828 162 837 c 0,32,33
 221 854 221 854 277 854 c 0,34,35
 384 854 384 854 435 802 c 0,36,37
 477 758 477 758 477 674 c 0,38,39
 477 574 477 574 401 431 c 0,40,41
 370 373 370 373 331.5 315.5 c 128,-1,42
 293 258 293 258 242 192 c 0,43,44
 163 90 163 90 108 41 c 1,45,-1
 108 9 l 1,46,-1
 161 9 l 2,47,48
 227 9 227 9 297 18 c 1,49,50
 384 32 384 32 426 38 c 0,51,52
 554 56 554 56 636 93 c 1,53,-1
 699 93 l 1,54,-1
 699 51 l 1,0,-1
EndSplineSet
EndChar

StartChar: three
Encoding: 51 51 20
Width: 776
Flags: W
LayerCount: 2
Fore
SplineSet
760 187 m 0,0,1
 760 126 760 126 728 91 c 0,2,3
 671 26 671 26 625 4 c 0,4,5
 555 -31 555 -31 426 -31 c 0,6,7
 313 -31 313 -31 167 17 c 0,8,9
 6 70 6 70 6 130 c 0,10,11
 6 141 6 141 16.5 147.5 c 128,-1,12
 27 154 27 154 42 156 c 1,13,14
 102 105 102 105 203 65 c 0,15,16
 259 44 259 44 327.5 33 c 128,-1,17
 396 22 396 22 480 22 c 0,18,19
 589 22 589 22 639 67 c 0,20,21
 677 102 677 102 677 165 c 0,22,23
 677 236 677 236 596 310 c 1,24,25
 496 398 496 398 346 398 c 1,26,-1
 322 392 l 2,27,28
 293 386 293 386 265 386 c 2,29,-1
 250 386 l 2,30,31
 244 386 244 386 239 386 c 0,32,33
 231 388 231 388 225 388.5 c 128,-1,34
 219 389 219 389 214 390.5 c 128,-1,35
 209 392 209 392 194 398 c 1,36,37
 245 455 245 455 288 505 c 0,38,39
 321 543 321 543 364 596 c 0,40,41
 435 684 435 684 435 746 c 0,42,43
 435 767 435 767 416.5 782.5 c 128,-1,44
 398 798 398 798 382 800 c 1,45,46
 340 800 340 800 211 752 c 0,47,48
 60 696 60 696 60 648 c 0,49,50
 60 640 60 640 75 623 c 0,51,52
 101 595 101 595 114 576 c 1,53,-1
 69 576 l 1,54,55
 48 581 48 581 18 600 c 0,56,57
 -20 624 -20 624 -20 648 c 0,58,59
 -20 663 -20 663 31 711 c 0,60,61
 94 771 94 771 178 810 c 0,62,63
 291 862 291 862 409 862 c 0,64,65
 460 862 460 862 482 828 c 0,66,67
 498 801 498 801 498 755 c 0,68,69
 498 711 498 711 459 655 c 1,70,-1
 380 561 l 2,71,72
 332 503 332 503 319 460 c 1,73,-1
 361 454 l 1,74,-1
 391 453 l 1,75,-1
 414 453 l 2,76,77
 427 453 427 453 435 451 c 0,78,79
 562 427 562 427 643 371 c 0,80,81
 702 330 702 330 738 271 c 0,82,83
 747 255 747 255 753.5 231 c 128,-1,84
 760 207 760 207 760 187 c 0,0,1
EndSplineSet
EndChar

StartChar: four
Encoding: 52 52 21
Width: 665
Flags: W
LayerCount: 2
Fore
SplineSet
692 193 m 0,0,1
 692 173 692 173 679 163 c 1,2,-1
 653 149 l 2,3,4
 645 145 645 145 626.5 141.5 c 128,-1,5
 608 138 608 138 583 138 c 0,6,7
 529 138 529 138 529 100 c 0,8,9
 529 79 529 79 539 42 c 2,10,-1
 560 -36 l 1,11,12
 560 -66 560 -66 545 -82 c 128,-1,13
 530 -98 530 -98 508 -98 c 2,14,-1
 455 -98 l 1,15,16
 455 -82 455 -82 454 -47 c 128,-1,17
 453 -12 453 -12 453 7 c 1,18,-1
 450 108 l 1,19,20
 450 117 450 117 450.5 121.5 c 128,-1,21
 451 126 451 126 452 129 c 1,22,-1
 455 121 l 1,23,-1
 390 106 l 1,24,25
 352 100 352 100 225 100 c 0,26,27
 165 100 165 100 99 163 c 0,28,29
 16 241 16 241 16 362 c 2,30,-1
 16 582 l 2,31,32
 16 634 16 634 37 720 c 0,33,34
 53 786 53 786 79 812 c 1,35,-1
 110 812 l 1,36,-1
 110 477 l 1,37,-1
 104 449 l 1,38,39
 98 414 98 414 98 379 c 0,40,41
 98 290 98 290 138 237 c 0,42,43
 194 163 194 163 319 163 c 0,44,45
 392 163 392 163 418.5 182.5 c 128,-1,46
 445 202 445 202 445 237 c 2,47,-1
 445 404 l 1,48,-1
 439 411 l 2,49,50
 423 430 423 430 423 442 c 0,51,52
 423 450 423 450 428 455 c 0,53,54
 440 467 440 467 476 467 c 0,55,56
 504 467 504 467 516.5 409.5 c 128,-1,57
 529 352 529 352 529 226 c 1,58,59
 569 226 569 226 601 233 c 2,60,-1
 640 241 l 1,61,-1
 660 238 l 1,62,-1
 686 226 l 1,63,64
 692 205 692 205 692 193 c 0,0,1
EndSplineSet
EndChar

StartChar: five
Encoding: 53 53 22
Width: 539
Flags: W
LayerCount: 2
Fore
SplineSet
531 233 m 0,0,1
 531 147 531 147 407 61 c 128,-1,2
 283 -25 283 -25 163 -25 c 0,3,4
 100 -25 100 -25 34 -3 c 0,5,6
 -58 27 -58 27 -58 76 c 0,7,8
 -58 99 -58 99 -52 107 c 1,9,-1
 -26 132 l 1,10,11
 45 70 45 70 87 49 c 1,12,13
 130 30 130 30 199 30 c 0,14,15
 269 30 269 30 361 88 c 0,16,17
 466 154 466 154 466 224 c 0,18,19
 466 305 466 305 370 349 c 0,20,21
 332 366 332 366 288 376 c 128,-1,22
 244 386 244 386 190 386 c 1,23,-1
 89 389 l 1,24,25
 83 392 83 392 69 500 c 1,26,-1
 51 697 l 1,27,28
 51 730 51 730 48 762 c 0,29,30
 44 790 44 790 43 803 c 0,31,32
 43 819 43 819 57 840 c 1,33,-1
 71 859 l 1,34,-1
 462 859 l 1,35,-1
 482 856 l 1,36,-1
 517 831 l 1,37,-1
 517 794 l 1,38,-1
 476 790 l 1,39,-1
 448 791 l 1,40,-1
 416 794 l 1,41,42
 213 794 213 794 165 778.5 c 128,-1,43
 117 763 117 763 117 702 c 0,44,45
 117 540 117 540 141 490 c 0,46,47
 160 453 160 453 217 453 c 2,48,-1
 255 454 l 2,49,50
 362 454 362 454 448 381 c 0,51,52
 531 312 531 312 531 233 c 0,0,1
EndSplineSet
EndChar

StartChar: six
Encoding: 54 54 23
Width: 546
Flags: W
LayerCount: 2
Fore
SplineSet
549 822 m 0,0,1
 549 790 549 790 514 784 c 0,2,3
 434 772 434 772 418 765 c 0,4,5
 345 736 345 736 280 653 c 0,6,7
 236 597 236 597 192 485 c 1,8,-1
 141 344 l 1,9,-1
 141 275 l 1,10,11
 178 275 178 275 225.5 290 c 128,-1,12
 273 305 273 305 310 305 c 0,13,14
 369 305 369 305 439 243.5 c 128,-1,15
 509 182 509 182 509 116 c 0,16,17
 509 61 509 61 436 23.5 c 128,-1,18
 363 -14 363 -14 260 -14 c 2,19,-1
 111 -14 l 1,20,21
 81 4 81 4 66 19 c 0,22,23
 21 64 21 64 21 126 c 0,24,25
 21 152 21 152 36 172 c 0,26,27
 71 215 71 215 71 285 c 0,28,29
 71 363 71 363 132.5 502 c 128,-1,30
 194 641 194 641 285 743 c 0,31,32
 391 861 391 861 489 861 c 0,33,34
 496 861 496 861 505.5 859.5 c 128,-1,35
 515 858 515 858 532 848.5 c 128,-1,36
 549 839 549 839 549 822 c 0,0,1
439 96 m 0,37,38
 439 138 439 138 396 180 c 0,39,40
 349 225 349 225 290 225 c 0,41,42
 239 225 239 225 200 209 c 0,43,44
 141 185 141 185 141 165 c 0,45,46
 141 113 141 113 204 77 c 0,47,48
 260 46 260 46 320 46 c 1,49,-1
 379 64 l 1,50,51
 439 85 439 85 439 96 c 0,37,38
EndSplineSet
EndChar

StartChar: seven
Encoding: 55 55 24
Width: 518
Flags: W
LayerCount: 2
Fore
SplineSet
497 856 m 2,0,1
 497 811 497 811 474 754 c 128,-1,2
 451 697 451 697 400 612 c 1,3,-1
 284 422 l 1,4,-1
 248 366 l 2,5,6
 240 354 240 354 217 313 c 0,7,8
 186 259 186 259 180 248 c 0,9,10
 159 210 159 210 143.5 177 c 128,-1,11
 128 144 128 144 118 117 c 1,12,-1
 99 39 l 1,13,14
 87 -3 87 -3 53 -3 c 0,15,16
 29 -3 29 -3 22.5 8 c 128,-1,17
 16 19 16 19 16 43 c 0,18,19
 16 52 16 52 53 117 c 1,20,-1
 137 257 l 1,21,-1
 229 413 l 1,22,23
 272 490 272 490 302 546.5 c 128,-1,24
 332 603 332 603 346 631 c 1,25,-1
 413 787 l 1,26,27
 391 799 391 799 360 806 c 128,-1,28
 329 813 329 813 303 813 c 0,29,30
 289 813 289 813 262 810 c 128,-1,31
 235 807 235 807 178 799 c 0,32,33
 151 796 151 796 130.5 794 c 128,-1,34
 110 792 110 792 90 792 c 1,35,36
 62 802 62 802 49 809 c 0,37,38
 7 830 7 830 7 856 c 0,39,40
 7 880 7 880 32 884 c 1,41,-1
 53 884 l 1,42,-1
 174 876 l 1,43,-1
 300 873 l 1,44,45
 417 873 417 873 497 884 c 1,46,-1
 497 856 l 2,0,1
EndSplineSet
EndChar

StartChar: eight
Encoding: 56 56 25
Width: 665
Flags: W
LayerCount: 2
Fore
SplineSet
674 770 m 0,0,1
 674 744 674 744 653 724 c 1,2,-1
 607 674 l 1,3,-1
 499 598 l 1,4,-1
 412 531 l 1,5,6
 325 462 325 462 325 444 c 0,7,8
 325 437 325 437 397 377 c 0,9,10
 490 301 490 301 532 250 c 0,11,12
 605 162 605 162 605 87 c 0,13,14
 605 34 605 34 541 4 c 0,15,16
 489 -19 489 -19 421 -19 c 0,17,18
 367 -19 367 -19 306 -9 c 0,19,20
 200 8 200 8 134 43 c 0,21,22
 45 90 45 90 45 164 c 0,23,24
 45 215 45 215 96 290 c 0,25,26
 117 321 117 321 143 352.5 c 128,-1,27
 169 384 169 384 209 425 c 1,28,-1
 43 591 l 1,29,30
 -22 679 -22 679 -22 752 c 0,31,32
 -22 827 -22 827 34 858 c 0,33,34
 72 879 72 879 127 879 c 2,35,-1
 140 879 l 1,36,-1
 151 878 l 2,37,38
 183 878 183 878 234 887 c 2,39,-1
 335 907 l 1,40,-1
 460 907 l 2,41,42
 484 907 484 907 548 878 c 0,43,44
 628 842 628 842 663 801 c 0,45,46
 674 788 674 788 674 770 c 0,0,1
576 743 m 1,47,48
 532 788 532 788 482 810 c 0,49,50
 418 839 418 839 335 839 c 0,51,52
 297 839 297 839 285.5 810 c 128,-1,53
 274 781 274 781 248 781 c 0,54,55
 193 781 193 781 160 766 c 1,56,-1
 113 733 l 1,57,58
 98 733 98 733 87 744 c 1,59,-1
 65 772 l 1,60,-1
 55 762 l 1,61,-1
 55 714 l 1,62,-1
 141 608 l 1,63,64
 183 558 183 558 214.5 525 c 128,-1,65
 246 492 246 492 258 492 c 256,66,67
 270 492 270 492 348 545 c 0,68,69
 433 602 433 602 496 654 c 0,70,71
 573 716 573 716 576 743 c 1,47,48
547 102 m 1,72,-1
 526 133 l 1,73,74
 499 167 499 167 448 218 c 0,75,76
 380 284 380 284 296 347 c 1,77,-1
 287 362 l 2,78,79
 279 375 279 375 267 376 c 0,80,81
 241 376 241 376 184 309 c 1,82,83
 123 234 123 234 123 174 c 0,84,85
 123 108 123 108 272 72 c 0,86,87
 277 71 277 71 315 65 c 0,88,89
 400 52 400 52 421 49 c 2,90,-1
 437 48 l 1,91,-1
 455 48 l 2,92,93
 484 48 484 48 504 57 c 0,94,95
 529 69 529 69 547 102 c 1,72,-1
EndSplineSet
EndChar

StartChar: nine
Encoding: 57 57 26
Width: 570
Flags: W
LayerCount: 2
Fore
SplineSet
548 291 m 0,0,1
 548 159 548 159 445 62 c 0,2,3
 348 -29 348 -29 236 -29 c 0,4,5
 166 -29 166 -29 85 5 c 0,6,7
 -15 46 -15 46 -15 101 c 0,8,9
 -15 116 -15 116 -8 124 c 1,10,-1
 11 135 l 2,11,12
 17 138 17 138 30 140 c 1,13,-1
 46 138 l 1,14,-1
 79 133 l 1,15,16
 100 133 100 133 190 57 c 0,17,18
 230 23 230 23 262 23 c 0,19,20
 360 23 360 23 428 107 c 1,21,22
 487 183 487 183 487 274 c 0,23,24
 487 304 487 304 466 393 c 1,25,-1
 444 482 l 1,26,27
 444 497 444 497 433.5 503.5 c 128,-1,28
 423 510 423 510 407 510 c 0,29,30
 394 510 394 510 378.5 507 c 128,-1,31
 363 504 363 504 341 496 c 1,32,33
 328 493 328 493 325 492 c 128,-1,34
 322 491 322 491 305 482 c 1,35,36
 218 482 218 482 151 534 c 0,37,38
 80 590 80 590 80 672 c 0,39,40
 80 769 80 769 138 827 c 1,41,42
 193 880 193 880 279 880 c 0,43,44
 364 880 364 880 426 791 c 0,45,46
 505 677 505 677 505 594 c 1,47,48
 502 590 502 590 501 587 c 0,49,50
 494 575 494 575 486.5 564.5 c 128,-1,51
 479 554 479 554 479 542 c 1,52,53
 502 493 502 493 525 420 c 128,-1,54
 548 347 548 347 548 291 c 0,0,1
401 577 m 1,55,56
 372 606 372 606 337 724 c 1,57,58
 313 811 313 811 253 811 c 0,59,60
 218 811 218 811 174 775 c 0,61,62
 124 733 124 733 124 681 c 0,63,64
 124 625 124 625 203 583 c 1,65,66
 267 551 267 551 314 551 c 0,67,68
 325 551 325 551 335 553 c 128,-1,69
 345 555 345 555 364.5 561.5 c 128,-1,70
 384 568 384 568 401 577 c 1,55,56
EndSplineSet
EndChar

StartChar: colon
Encoding: 58 58 27
Width: 273
Flags: W
LayerCount: 2
Fore
SplineSet
192 397 m 1,0,-1
 176 377 l 1,1,2
 167 368 167 368 160 365 c 1,3,-1
 143 362 l 1,4,-1
 121 360 l 2,5,6
 114 360 114 360 111 362 c 0,7,8
 102 368 102 368 93.5 386 c 128,-1,9
 85 404 85 404 85 416 c 0,10,11
 85 425 85 425 89.5 430.5 c 128,-1,12
 94 436 94 436 111 436 c 1,13,-1
 134 433 l 1,14,-1
 153 430 l 1,15,-1
 192 397 l 1,0,-1
133 58 m 1,16,-1
 123 57 l 1,17,-1
 114 57 l 1,18,-1
 101 57 l 1,19,-1
 92 58 l 1,20,-1
 73 74 l 2,21,22
 55 90 55 90 54 97 c 0,23,24
 54 114 54 114 66 135.5 c 128,-1,25
 78 157 78 157 92 157 c 0,26,27
 100 157 100 157 115 139 c 1,28,-1
 133 108 l 1,29,-1
 133 58 l 1,16,-1
EndSplineSet
EndChar

StartChar: semicolon
Encoding: 59 59 28
Width: 273
Flags: W
LayerCount: 2
Fore
SplineSet
192 397 m 1,0,-1
 176 377 l 1,1,2
 167 368 167 368 160 365 c 1,3,-1
 143 362 l 1,4,-1
 121 360 l 2,5,6
 114 360 114 360 111 362 c 0,7,8
 102 368 102 368 93.5 386 c 128,-1,9
 85 404 85 404 85 416 c 0,10,11
 85 425 85 425 89.5 430.5 c 128,-1,12
 94 436 94 436 111 436 c 1,13,-1
 134 433 l 1,14,-1
 153 430 l 1,15,-1
 192 397 l 1,0,-1
133 49 m 1,16,-1
 69 -27 l 2,17,18
 39 -63 39 -63 24 -63 c 1,19,-1
 43 -16 l 1,20,21
 74 34 74 34 69 40 c 1,22,-1
 59 63 l 1,23,-1
 54 88 l 1,24,25
 54 105 54 105 66 126.5 c 128,-1,26
 78 148 78 148 92 148 c 0,27,28
 100 148 100 148 115 130 c 1,29,-1
 133 99 l 1,30,-1
 133 49 l 1,16,-1
EndSplineSet
EndChar

StartChar: less
Encoding: 60 60 29
Width: 714
Flags: W
LayerCount: 2
Fore
SplineSet
688 94 m 0,0,1
 688 70 688 70 661 52 c 1,2,-1
 633 39 l 1,3,-1
 598 64 l 2,4,5
 560 90 560 90 492 123 c 0,6,7
 408 164 408 164 316 193 c 1,8,-1
 164 235 l 1,9,10
 81 256 81 256 46 271 c 0,11,12
 -2 291 -2 291 -2 313 c 0,13,14
 -2 350 -2 350 105 445 c 0,15,16
 169 501 169 501 322 624 c 0,17,18
 468 740 468 740 502 774 c 1,19,-1
 568 774 l 1,20,-1
 568 730 l 1,21,22
 552 717 552 717 540 708 c 0,23,24
 490 668 490 668 455 642 c 0,25,26
 320 540 320 540 243 476 c 0,27,28
 129 380 129 380 129 346 c 0,29,30
 129 330 129 330 179 312 c 1,31,-1
 330 266 l 2,32,33
 388 247 388 247 451 223.5 c 128,-1,34
 514 200 514 200 579 171 c 2,35,-1
 672 131 l 1,36,37
 688 121 688 121 688 94 c 0,0,1
EndSplineSet
EndChar

StartChar: equal
Encoding: 61 61 30
Width: 819
Flags: W
LayerCount: 2
Fore
SplineSet
725 495 m 1,0,1
 725 489 725 489 641 439 c 1,2,-1
 542 384 l 1,3,-1
 535 424 l 1,4,-1
 530 458 l 1,5,-1
 297 458 l 1,6,-1
 76 421 l 1,7,8
 65 421 65 421 46 437.5 c 128,-1,9
 27 454 27 454 27 482 c 256,10,11
 27 510 27 510 69 527 c 0,12,13
 91 535 91 535 129.5 539 c 128,-1,14
 168 543 168 543 232 543 c 2,15,-1
 272 543 l 1,16,-1
 506 543 l 1,17,-1
 714 580 l 1,18,19
 714 519 714 519 719 503 c 1,20,21
 719 498 719 498 725 495 c 1,0,1
787 298 m 0,22,23
 787 262 787 262 702 246 c 1,24,-1
 616 237 l 1,25,26
 551 237 551 237 478.5 217 c 128,-1,27
 406 197 406 197 353 186 c 128,-1,28
 300 175 300 175 272 175 c 0,29,30
 197 175 197 175 179.5 184 c 128,-1,31
 162 193 162 193 162 237 c 0,32,33
 162 263 162 263 324 290 c 0,34,35
 456 311 456 311 506 311 c 1,36,-1
 630 345 l 2,37,38
 687 360 687 360 714 360 c 0,39,40
 756 360 756 360 771 348 c 0,41,42
 779 342 779 342 783 330 c 128,-1,43
 787 318 787 318 787 298 c 0,22,23
EndSplineSet
EndChar

StartChar: greater
Encoding: 62 62 31
Width: 952
Flags: W
LayerCount: 2
Fore
SplineSet
881 325 m 0,0,1
 881 299 881 299 659 147 c 0,2,3
 578 92 578 92 523 34 c 0,4,5
 452 -40 452 -40 436 -42 c 0,6,7
 422 -42 422 -42 401 -22 c 1,8,9
 380 -4 380 -4 380 14 c 0,10,11
 380 25 380 25 382 28 c 0,12,13
 394 46 394 46 467 101 c 0,14,15
 568 179 568 179 748 303 c 1,16,17
 712 348 712 348 612 390 c 2,18,-1
 407 475 l 2,19,20
 255 539 255 539 135 615 c 1,21,-1
 80 648 l 1,22,23
 24 689 24 689 24 726 c 0,24,25
 24 737 24 737 42 760 c 0,26,27
 51 770 51 770 60.5 776 c 128,-1,28
 70 782 70 782 80 782 c 0,29,30
 94 782 94 782 119 756 c 0,31,32
 160 713 160 713 218 675 c 0,33,34
 319 608 319 608 492 537 c 1,35,36
 756 426 756 426 818.5 392.5 c 128,-1,37
 881 359 881 359 881 325 c 0,0,1
EndSplineSet
EndChar

StartChar: question
Encoding: 63 63 32
Width: 364
Flags: W
LayerCount: 2
Fore
SplineSet
325 756 m 0,0,1
 325 726 325 726 278 637 c 1,2,-1
 192 479 l 1,3,4
 146 388 146 388 146 347 c 2,5,-1
 146 314 l 1,6,-1
 144 285 l 1,7,8
 141 280 141 280 133 280 c 2,9,-1
 112 281 l 2,10,11
 103 281 103 281 91 294 c 128,-1,12
 79 307 79 307 79 322 c 0,13,14
 79 344 79 344 127 442 c 2,15,-1
 217 627 l 2,16,17
 263 722 263 722 263 756 c 0,18,19
 263 785 263 785 220 816 c 0,20,21
 185 840 185 840 137 840 c 0,22,23
 104 840 104 840 83 824 c 128,-1,24
 62 808 62 808 62 781 c 1,25,-1
 64 761 l 1,26,-1
 66 737 l 1,27,-1
 62 706 l 1,28,-1
 27 719 l 1,29,30
 20 726 20 726 20 748 c 2,31,-1
 20 806 l 2,32,33
 20 864 20 864 60 886 c 0,34,35
 84 898 84 898 129 898 c 0,36,37
 201 898 201 898 260 860 c 0,38,39
 325 817 325 817 325 756 c 0,0,1
187 64 m 1,40,41
 187 45 187 45 177 33.5 c 128,-1,42
 167 22 167 22 146 22 c 0,43,44
 132 22 132 22 115 40 c 0,45,46
 104 53 104 53 104 64 c 0,47,48
 104 70 104 70 123 91.5 c 128,-1,49
 142 113 142 113 154 114 c 1,50,51
 157 112 157 112 159 110 c 0,52,53
 166 103 166 103 173 94 c 0,54,55
 185 78 185 78 187 64 c 1,40,41
EndSplineSet
EndChar

StartChar: at
Encoding: 64 64 33
Width: 623
Flags: W
LayerCount: 2
Fore
SplineSet
597 246 m 1,0,-1
 568 176 l 1,1,2
 527 97 527 97 466 45 c 0,3,4
 381 -26 381 -26 273 -26 c 0,5,6
 170 -26 170 -26 92 85 c 0,7,8
 9 204 9 204 9 386 c 0,9,10
 9 566 9 566 94 696 c 0,11,12
 187 840 187 840 340 840 c 0,13,14
 462 840 462 840 528 753 c 0,15,16
 582 681 582 681 582 569 c 0,17,18
 582 494 582 494 545 419 c 0,19,20
 500 325 500 325 430 325 c 0,21,22
 418 325 418 325 402 340 c 128,-1,23
 386 355 386 355 370 355 c 0,24,25
 360 355 360 355 349 340 c 1,26,27
 340 325 340 325 296 325 c 0,28,29
 267 325 267 325 234 352 c 1,30,31
 203 380 203 380 203 400 c 0,32,33
 203 425 203 425 252 484 c 0,34,35
 305 549 305 549 340 549 c 1,36,-1
 367 536 l 1,37,38
 383 531 383 531 411 526 c 1,39,-1
 411 517 l 1,40,-1
 411 507 l 2,41,42
 411 468 411 468 418.5 435 c 128,-1,43
 426 402 426 402 452 402 c 0,44,45
 472 402 472 402 496 444 c 1,46,47
 510 472 510 472 517 504.5 c 128,-1,48
 524 537 524 537 524 583 c 0,49,50
 524 688 524 688 464 742 c 0,51,52
 409 791 409 791 318 791 c 0,53,54
 299 791 299 791 253 765 c 0,55,56
 181 725 181 725 136 654 c 0,57,58
 74 554 74 554 74 407 c 256,59,60
 74 260 74 260 126 162 c 0,61,62
 186 46 186 46 303 46 c 0,63,64
 386 46 386 46 452 103 c 1,65,66
 526 170 526 170 556 308 c 1,67,-1
 597 308 l 1,68,-1
 597 246 l 1,0,-1
330 412 m 1,69,-1
 330 455 l 1,70,-1
 310 436 l 1,71,-1
 287 410 l 1,72,73
 297 398 297 398 303 396 c 0,74,75
 308 396 308 396 317 402 c 2,76,-1
 330 412 l 1,69,-1
EndSplineSet
EndChar

StartChar: A
Encoding: 65 65 34
Width: 750
Flags: W
LayerCount: 2
Fore
SplineSet
726 -41 m 1,0,-1
 673 -41 l 1,1,-1
 580 -23 l 2,2,3
 524 -12 524 -12 474.5 -2.5 c 128,-1,4
 425 7 425 7 358 21 c 1,5,-1
 343 21 l 2,6,7
 315 21 315 21 298 27 c 0,8,9
 271 36 271 36 271 64 c 0,10,11
 271 81 271 81 280.5 94.5 c 128,-1,12
 290 108 290 108 306 108 c 1,13,-1
 516 47 l 1,14,-1
 568 47 l 1,15,16
 568 53 568 53 499 206 c 1,17,-1
 371 501 l 1,18,19
 304 665 304 665 297 703 c 1,20,-1
 279 703 l 1,21,22
 228 425 228 425 179 263 c 0,23,24
 162 207 162 207 146 164 c 128,-1,25
 130 121 130 121 111 84 c 0,26,27
 81 24 81 24 78 12 c 1,28,-1
 52 12 l 2,29,30
 42 12 42 12 40.5 7.5 c 128,-1,31
 39 3 39 3 38 0.5 c 128,-1,32
 37 -2 37 -2 34 -6 c 1,33,-1
 8 -6 l 1,34,-1
 8 29 l 1,35,36
 12 45 12 45 16.5 60 c 128,-1,37
 21 75 21 75 28 95 c 1,38,-1
 72 241 l 1,39,-1
 122 406 l 1,40,41
 172 579 172 579 195 649 c 2,42,-1
 228 750 l 1,43,-1
 236 782 l 1,44,-1
 218 869 l 1,45,46
 218 881 218 881 237.5 896 c 128,-1,47
 257 911 257 911 271 913 c 1,48,49
 287 913 287 913 329 810 c 1,50,-1
 376 686 l 1,51,-1
 442 519 l 1,52,53
 460 480 460 480 463 456.5 c 128,-1,54
 466 433 466 433 512 334 c 0,55,56
 537 277 537 277 562.5 229.5 c 128,-1,57
 588 182 588 182 616 140 c 0,58,59
 682 38 682 38 726 38 c 1,60,-1
 726 -41 l 1,0,-1
EndSplineSet
EndChar

StartChar: B
Encoding: 66 66 35
Width: 1000
Flags: W
LayerCount: 2
Fore
SplineSet
898 54 m 1,0,-1
 882 -8 l 1,1,2
 855 -81 855 -81 799 -125 c 0,3,4
 721 -188 721 -188 596 -188 c 0,5,6
 483 -188 483 -188 345 -145 c 0,7,8
 188 -97 188 -97 188 -38 c 0,9,10
 188 -25 188 -25 210 -18 c 1,11,-1
 246 -13 l 1,12,-1
 259 -17 l 1,13,-1
 293 -22 l 1,14,-1
 304 -22 l 2,15,16
 311 -22 311 -22 317 -20 c 1,17,18
 325 -20 325 -20 338 -13 c 1,19,-1
 336 -31 l 1,20,-1
 337 -49 l 1,21,-1
 338 -71 l 1,22,23
 338 -102 338 -102 435 -132 c 0,24,25
 471 -142 471 -142 514 -148 c 128,-1,26
 557 -154 557 -154 604 -154 c 0,27,28
 700 -154 700 -154 771 -98 c 0,29,30
 846 -38 846 -38 846 54 c 0,31,32
 846 120 846 120 774 174 c 1,33,34
 721 212 721 212 633 241 c 0,35,36
 567 262 567 262 538 262 c 0,37,38
 506 262 506 262 459 235 c 0,39,40
 404 203 404 203 404 162 c 0,41,42
 404 148 404 148 420 80 c 1,43,-1
 429 46 l 1,44,-1
 429 21 l 1,45,-1
 379 21 l 2,46,47
 361 21 361 21 353 28 c 1,48,49
 348 35 348 35 346 49 c 1,50,-1
 350 79 l 1,51,-1
 354 112 l 1,52,53
 354 174 354 174 334 207 c 0,54,55
 329 217 329 217 313 229 c 1,56,-1
 312 291 l 1,57,58
 312 331 312 331 310 351 c 128,-1,59
 308 371 308 371 300 430 c 0,60,61
 288 518 288 518 263 571 c 1,62,-1
 263 629 l 1,63,-1
 279 630 l 1,64,-1
 304 629 l 2,65,66
 337 629 337 629 350 475 c 1,67,68
 350 401 350 401 369.5 361 c 128,-1,69
 389 321 389 321 421 321 c 0,70,71
 540 321 540 321 603 387 c 0,72,73
 654 441 654 441 654 521 c 0,74,75
 654 640 654 640 572 694 c 0,76,77
 539 715 539 715 493.5 726 c 128,-1,78
 448 737 448 737 388 737 c 0,79,80
 288 737 288 737 201 709 c 2,81,-1
 29 654 l 1,82,-1
 29 687 l 2,83,84
 29 722 29 722 165 755 c 0,85,86
 233 771 233 771 293.5 779 c 128,-1,87
 354 787 354 787 413 787 c 0,88,89
 563 787 563 787 635 714 c 0,90,91
 696 651 696 651 696 546 c 0,92,93
 696 473 696 473 642 404.5 c 128,-1,94
 588 336 588 336 588 321 c 0,95,96
 588 304 588 304 604 300 c 1,97,-1
 646 296 l 1,98,99
 775 266 775 266 838 201 c 0,100,101
 898 141 898 141 898 54 c 1,0,-1
EndSplineSet
EndChar

StartChar: C
Encoding: 67 67 36
Width: 972
Flags: W
LayerCount: 2
Fore
SplineSet
1133 73 m 1,0,1
 1120 66 1120 66 966 39 c 0,2,3
 930 33 930 33 818 16 c 0,4,5
 729 3 729 3 675 -5 c 0,6,7
 499 -28 499 -28 448 -28 c 0,8,9
 256 -28 256 -28 148 44 c 0,10,11
 59 103 59 103 26 214 c 0,12,13
 16 249 16 249 10 301 c 128,-1,14
 4 353 4 353 4 416 c 0,15,16
 4 659 4 659 156 796 c 0,17,18
 298 923 298 923 524 923 c 0,19,20
 652 923 652 923 715 881 c 128,-1,21
 778 839 778 839 778 758 c 0,22,23
 778 743 778 743 756 724 c 1,24,-1
 733 708 l 1,25,-1
 684 814 l 1,26,27
 644 860 644 860 524 860 c 0,28,29
 326 860 326 860 207 729 c 0,30,31
 93 603 93 603 93 403 c 0,32,33
 93 241 93 241 144 160 c 0,34,35
 188 91 188 91 289 65 c 1,36,37
 362 48 362 48 512 48 c 2,38,-1
 676 48 l 2,39,40
 716 48 716 48 826 81 c 0,41,42
 865 93 865 93 907.5 107 c 128,-1,43
 950 121 950 121 1007 142 c 2,44,-1
 1095 175 l 1,45,-1
 1133 175 l 1,46,-1
 1133 73 l 1,0,1
EndSplineSet
EndChar

StartChar: D
Encoding: 68 68 37
Width: 900
Flags: W
LayerCount: 2
Fore
SplineSet
883 231 m 0,0,1
 883 198 883 198 861 155 c 0,2,3
 855 141 855 141 839 118 c 1,4,5
 831 110 831 110 730 67 c 1,6,-1
 545 -8 l 1,7,-1
 447 -48 l 1,8,-1
 394 -46 l 1,9,-1
 298 -55 l 2,10,11
 268 -59 268 -59 235 -62 c 128,-1,12
 202 -65 202 -65 185 -65 c 2,13,-1
 157 -65 l 2,14,15
 135 -65 135 -65 125 -59 c 128,-1,16
 115 -53 115 -53 115 -30 c 0,17,18
 115 -14 115 -14 120 -8 c 128,-1,19
 125 -2 125 -2 134 -2 c 2,20,-1
 150 -4 l 1,21,-1
 316 -4 l 1,22,-1
 347 9 l 1,23,24
 389 22 389 22 429 22 c 1,25,-1
 429 83 l 1,26,-1
 395 172 l 1,27,28
 354 284 354 284 332 354 c 0,29,30
 317 404 317 404 307.5 443.5 c 128,-1,31
 298 483 298 483 298 502 c 2,32,-1
 298 545 l 2,33,34
 298 580 298 580 333 580 c 0,35,36
 346 580 346 580 354 572 c 128,-1,37
 362 564 362 564 362 545 c 1,38,-1
 361 535 l 1,39,-1
 360 528 l 1,40,41
 360 487 360 487 392 388 c 2,42,-1
 457 186 l 1,43,44
 490 85 490 85 490 57 c 1,45,-1
 551 57 l 1,46,-1
 728 117 l 1,47,48
 848 165 848 165 848 222 c 0,49,50
 848 320 848 320 726 451 c 0,51,52
 615 571 615 571 459 661 c 0,53,54
 298 754 298 754 194 754 c 0,55,56
 134 754 134 754 63 700 c 0,57,58
 -16 638 -16 638 -16 563 c 2,59,-1
 -16 510 l 1,60,-1
 -13 506 l 1,61,-1
 11 458 l 1,62,-1
 11 432 l 1,63,-1
 -16 432 l 1,64,65
 -20 484 -20 484 -31 520 c 128,-1,66
 -42 556 -42 556 -42 580 c 0,67,68
 -42 648 -42 648 1 707 c 0,69,70
 62 789 62 789 176 789 c 0,71,72
 263 789 263 789 364 746 c 0,73,74
 440 713 440 713 530 651 c 1,75,-1
 665 554 l 1,76,77
 788 470 788 470 840 381 c 0,78,79
 861 344 861 344 872 307 c 128,-1,80
 883 270 883 270 883 231 c 0,0,1
EndSplineSet
EndChar

StartChar: E
Encoding: 69 69 38
Width: 882
Flags: W
LayerCount: 2
Fore
SplineSet
998 795 m 1,0,1
 962 773 962 773 925 760 c 1,2,3
 888 750 888 750 865 750 c 1,4,-1
 754 765 l 2,5,6
 727 768 727 768 702 770 c 128,-1,7
 677 772 677 772 648 772 c 0,8,9
 590 772 590 772 531 765 c 2,10,-1
 513 762 l 1,11,-1
 448 747 l 1,12,-1
 256 714 l 1,13,14
 149 684 149 684 149 603 c 1,15,16
 136 581 136 581 131 562 c 0,17,18
 113 505 113 505 113 424 c 1,19,20
 107 427 107 427 101.5 420 c 128,-1,21
 96 413 96 413 96 387 c 1,22,-1
 97 358 l 1,23,24
 97 349 97 349 97 343.5 c 128,-1,25
 97 338 97 338 101 316 c 1,26,-1
 206 336 l 1,27,-1
 258 341 l 1,28,-1
 268 340 l 1,29,-1
 687 388 l 1,30,-1
 735 388 l 1,31,32
 713 323 713 323 543 293 c 1,33,-1
 241 258 l 2,34,35
 89 241 89 241 89 197 c 0,36,37
 89 140 89 140 168 95 c 0,38,39
 263 41 263 41 424 41 c 0,40,41
 502 41 502 41 626 65 c 128,-1,42
 750 89 750 89 782 89 c 1,43,44
 766 31 766 31 716 8 c 0,45,46
 678 -8 678 -8 608 -8 c 2,47,-1
 559 -7 l 1,48,-1
 507 -6 l 1,49,-1
 364 -6 l 2,50,51
 167 -6 167 -6 89 41 c 0,52,53
 -6 98 -6 98 -6 257 c 0,54,55
 -6 296 -6 296 -4 323 c 128,-1,56
 -2 350 -2 350 4 378 c 1,57,-1
 29 508 l 1,58,-1
 34 517 l 1,59,60
 40 523 40 523 40 541 c 1,61,-1
 39 561 l 1,62,-1
 39 577 l 1,63,64
 36 587 36 587 35 591 c 1,65,-1
 -33 619 l 2,66,67
 -42 622 -42 622 -42 639 c 0,68,69
 -42 680 -42 680 68 731 c 0,70,71
 167 776 167 776 305 809 c 128,-1,72
 443 842 443 842 531 842 c 2,73,-1
 761 841 l 2,74,75
 790 841 790 841 843 840 c 128,-1,76
 896 839 896 839 920 839 c 2,77,-1
 934 839 l 2,78,79
 977 839 977 839 998 842 c 1,80,-1
 998 795 l 1,0,1
EndSplineSet
EndChar

StartChar: F
Encoding: 70 70 39
Width: 696
Flags: W
LayerCount: 2
Fore
SplineSet
748 374 m 1,0,1
 728 362 728 362 706.5 356.5 c 128,-1,2
 685 351 685 351 668 351 c 1,3,-1
 614 357 l 1,4,5
 578 363 578 363 552 363 c 0,6,7
 510 363 510 363 467.5 358 c 128,-1,8
 425 353 425 353 364 340 c 0,9,10
 231 313 231 313 149 270 c 1,11,-1
 149 12 l 1,12,-1
 124 6 l 1,13,-1
 97 2 l 1,14,15
 85 15 85 15 60 178 c 128,-1,16
 35 341 35 341 35 394 c 1,17,-1
 -48 880 l 1,18,-1
 -31 906 l 1,19,20
 -19 921 -19 921 4 921 c 1,21,22
 25 917 25 917 80.5 908 c 128,-1,23
 136 899 136 899 183 892 c 1,24,25
 290 880 290 880 428 880 c 2,26,-1
 645 880 l 1,27,-1
 645 839 l 1,28,-1
 645 823 l 2,29,30
 645 801 645 801 632 788 c 0,31,32
 613 771 613 771 552 746 c 1,33,-1
 552 818 l 1,34,-1
 35 818 l 1,35,-1
 48 717 l 1,36,37
 55 668 55 668 83 569 c 1,38,-1
 97 514 l 1,39,40
 111 449 111 449 111 404 c 0,41,-1
 111 382 l 1,42,43
 108 369 108 369 107 363 c 1,44,-1
 200 363 l 1,45,-1
 233 379 l 1,46,47
 283 397 283 397 354 409 c 0,48,49
 409 417 409 417 464.5 421 c 128,-1,50
 520 425 520 425 593 425 c 2,51,-1
 629 425 l 1,52,-1
 643 425 l 2,53,-1
 655 425 l 0,54,55
 665 427 665 427 669 427 c 0,56,57
 695 427 695 427 709 417 c 1,58,59
 725 408 725 408 748 374 c 1,0,1
EndSplineSet
EndChar

StartChar: G
Encoding: 71 71 40
Width: 816
Flags: W
LayerCount: 2
Fore
SplineSet
868 760 m 1,0,-1
 841 725 l 2,1,2
 826 707 826 707 815 707 c 2,3,-1
 710 707 l 2,4,5
 535 707 535 707 371 623 c 0,6,7
 224 547 224 547 130 430.5 c 128,-1,8
 36 314 36 314 36 212 c 0,9,10
 36 119 36 119 114 71 c 0,11,12
 178 33 178 33 268 33 c 0,13,14
 330 33 330 33 446 60 c 0,15,16
 594 95 594 95 594 138 c 0,17,18
 594 196 594 196 527.5 235.5 c 128,-1,19
 461 275 461 275 362 275 c 1,20,-1
 340 279 l 1,21,22
 289 293 289 293 289 317 c 0,23,24
 289 354 289 354 345.5 367 c 128,-1,25
 402 380 402 380 615 380 c 2,26,-1
 805 380 l 1,27,-1
 805 338 l 1,28,-1
 731 149 l 1,29,30
 731 126 731 126 752 85 c 2,31,-1
 773 43 l 1,32,33
 773 20 773 20 746 2 c 1,34,-1
 689 -30 l 1,35,-1
 657 -30 l 1,36,-1
 639 25 l 1,37,-1
 634 57 l 1,38,39
 634 76 634 76 641 96 c 1,40,-1
 626 96 l 1,41,-1
 599 69 l 1,42,43
 580 54 580 54 554.5 42 c 128,-1,44
 529 30 529 30 487 17.5 c 128,-1,45
 445 5 445 5 393.5 -2 c 128,-1,46
 342 -9 342 -9 278 -9 c 0,47,48
 113 -9 113 -9 27 59 c 0,49,50
 -48 119 -48 119 -48 222 c 0,51,52
 -48 297 -48 297 60 434 c 0,53,54
 178 582 178 582 344 682 c 0,55,56
 542 802 542 802 742 802 c 0,57,58
 784 802 784 802 810 792 c 0,59,60
 820 788 820 788 832 781.5 c 128,-1,61
 844 775 844 775 868 760 c 1,0,-1
689 281 m 1,62,-1
 665 288 l 1,63,-1
 638 286 l 1,64,-1
 605 286 l 1,65,-1
 605 264 l 1,66,-1
 628 236 l 1,67,-1
 652 201 l 1,68,-1
 671 245 l 1,69,-1
 689 281 l 1,62,-1
EndSplineSet
EndChar

StartChar: H
Encoding: 72 72 41
Width: 612
Flags: W
LayerCount: 2
Fore
SplineSet
651 -9 m 0,0,1
 651 -21 651 -21 646 -32 c 2,2,-1
 644 -36 l 2,3,4
 638 -47 638 -47 600 -47 c 0,5,6
 578 -47 578 -47 564 -43.5 c 128,-1,7
 550 -40 550 -40 534 -31 c 1,8,9
 524 1 524 1 507 85 c 2,10,-1
 479 224 l 1,11,-1
 465 292 l 1,12,-1
 433 289 l 1,13,-1
 411 289 l 1,14,-1
 400 292 l 1,15,-1
 306 310 l 1,16,17
 244 324 244 324 128 358 c 1,18,-1
 128 271 l 1,19,20
 132 258 132 258 148 167 c 1,21,22
 160 81 160 81 183 31 c 1,23,-1
 183 -1 l 1,24,-1
 107 -1 l 1,25,-1
 61 117 l 1,26,27
 31 207 31 207 31 268 c 2,28,-1
 31 444 l 1,29,-1
 9 615 l 1,30,-1
 -13 799 l 1,31,32
 -13 811 -13 811 7 826.5 c 128,-1,33
 27 842 27 842 41 842 c 0,34,35
 76 842 76 842 87 749 c 1,36,-1
 97 559 l 1,37,38
 97 512 97 512 105.5 483 c 128,-1,39
 114 454 114 454 128 444 c 1,40,-1
 433 358 l 1,41,42
 451 358 451 358 457 370.5 c 128,-1,43
 463 383 463 383 465 401 c 1,44,-1
 422 792 l 1,45,-1
 429 804 l 1,46,-1
 454 847 l 1,47,-1
 487 847 l 1,48,-1
 505 829 l 1,49,50
 520 811 520 811 520 781 c 1,51,-1
 525 713 l 1,52,-1
 535 602 l 1,53,54
 538 574 538 574 542 533.5 c 128,-1,55
 546 493 546 493 552 455 c 1,56,-1
 556 404 l 1,57,-1
 555 388 l 1,58,-1
 553 385 l 1,59,-1
 552 358 l 1,60,61
 552 321 552 321 557.5 281 c 128,-1,62
 563 241 563 241 574 188 c 0,63,64
 592 98 592 98 628 29 c 1,65,66
 640 22 640 22 646 11 c 0,67,68
 649 4 649 4 651 -9 c 0,0,1
EndSplineSet
EndChar

StartChar: I
Encoding: 73 73 42
Width: 336
Flags: W
LayerCount: 2
Fore
SplineSet
412 -28 m 1,0,-1
 404 -34 l 1,1,-1
 399 -38 l 1,2,-1
 383 -38 l 1,3,-1
 368 -37 l 1,4,-1
 323 -38 l 2,5,6
 299 -38 299 -38 251 -45 c 1,7,-1
 185 -51 l 1,8,-1
 173 -65 l 1,9,-1
 115 -65 l 1,10,-1
 113 -58 l 1,11,-1
 71 -63 l 1,12,-1
 30 -66 l 1,13,-1
 -6 -70 l 1,14,15
 -33 -70 -33 -70 -34 -57 c 0,16,17
 -34 -33 -34 -33 -18 -21 c 1,18,-1
 -2 -15 l 1,19,-1
 23 -13 l 2,20,21
 37 -13 37 -13 41 -20 c 1,22,-1
 107 -14 l 1,23,-1
 94 44 l 1,24,-1
 100 58 l 128,-1,25
 103 65 103 65 108 72 c 2,26,-1
 115 83 l 1,27,-1
 115 705 l 1,28,-1
 108 709 l 1,29,30
 94 720 94 720 94 794 c 1,31,-1
 89 805 l 1,32,-1
 70 801 l 2,33,34
 40 796 40 796 10 789.5 c 128,-1,35
 -20 783 -20 783 -29 781 c 2,36,-1
 -74 767 l 1,37,-1
 -80 768 l 1,38,-1
 -88 773 l 1,39,-1
 -93 801 l 1,40,-1
 -59 814 l 1,41,-1
 -45 820 l 1,42,-1
 -23 814 l 1,43,-1
 83 833 l 1,44,45
 84 846 84 846 96 855 c 0,46,47
 102 859 102 859 110.5 861 c 128,-1,48
 119 863 119 863 134 863 c 0,49,50
 151 863 151 863 161 847 c 1,51,52
 249 859 249 859 271 866 c 1,53,-1
 272 869 l 2,54,55
 275 876 275 876 310 883 c 1,56,-1
 315 887 l 1,57,-1
 329 891 l 1,58,59
 343 891 343 891 347 869 c 0,60,61
 350 851 350 851 294 841 c 2,62,-1
 248 833 l 1,63,-1
 171 819 l 1,64,-1
 176 791 l 1,65,-1
 177 754 l 1,66,-1
 175 705 l 1,67,-1
 175 684 l 2,68,-1
 175 666 l 0,69,70
 173 653 173 653 173 646 c 2,71,-1
 173 272 l 2,72,73
 173 222 173 222 178 123 c 0,74,75
 180 84 180 84 180 58 c 0,76,77
 180 47 180 47 191 -7 c 1,78,-1
 338 8 l 1,79,-1
 358 20 l 1,80,-1
 389 17 l 2,81,82
 404 17 404 17 409 14 c 1,83,-1
 412 -28 l 1,0,-1
EndSplineSet
EndChar

StartChar: J
Encoding: 74 74 43
Width: 834
Flags: W
LayerCount: 2
Fore
SplineSet
801 715 m 1,0,1
 732 715 732 715 696 588 c 0,2,3
 667 484 667 484 667 336 c 2,4,-1
 667 168 l 1,5,-1
 677 99 l 1,6,7
 688 13 688 13 688 -23 c 0,8,9
 688 -57 688 -57 615 -90 c 0,10,11
 557 -115 557 -115 483 -115 c 0,12,13
 436 -115 436 -115 390.5 -110 c 128,-1,14
 345 -105 345 -105 291 -93 c 0,15,16
 254 -86 254 -86 215 -74.5 c 128,-1,17
 176 -63 176 -63 133 -46 c 2,18,-1
 21 -2 l 1,19,-1
 21 59 l 1,20,-1
 83 59 l 1,21,22
 130 12 130 12 236 -26 c 128,-1,23
 342 -64 342 -64 483 -64 c 2,24,-1
 520 -64 l 2,25,26
 580 -64 580 -64 600 -48 c 0,27,28
 626 -27 626 -27 626 49 c 1,29,-1
 596 244 l 1,30,31
 584 315 584 315 586 325 c 1,32,-1
 590 319 l 1,33,-1
 596 480 l 1,34,-1
 614 540 l 1,35,36
 633 616 633 616 633 657 c 2,37,-1
 633 671 l 1,38,-1
 631 685 l 1,39,40
 599 697 599 697 581 697 c 1,41,-1
 513 688 l 1,42,-1
 432 685 l 1,43,-1
 385 685 l 2,44,45
 333 685 333 685 306.5 693 c 128,-1,46
 280 701 280 701 247 736 c 1,47,-1
 247 797 l 1,48,-1
 278 797 l 1,49,-1
 388 752 l 1,50,51
 409 746 409 746 503 746 c 0,52,53
 602 746 602 746 659 755 c 0,54,55
 696 760 696 760 729 777 c 1,56,-1
 737 771 l 1,57,-1
 756 769 l 1,58,-1
 776 770 l 1,59,-1
 801 777 l 1,60,-1
 801 715 l 1,0,1
EndSplineSet
EndChar

StartChar: K
Encoding: 75 75 44
Width: 564
Flags: W
LayerCount: 2
Fore
SplineSet
572 662 m 1,0,1
 510 591 510 591 461 534 c 0,2,3
 402 465 402 465 377 435 c 0,4,5
 303 346 303 346 303 299 c 0,6,7
 303 288 303 288 312 265 c 1,8,-1
 326 235 l 1,9,10
 331 228 331 228 357 174 c 0,11,12
 370 145 370 145 389.5 115 c 128,-1,13
 409 85 409 85 459 55 c 0,14,15
 550 2 550 2 550 -24 c 1,16,-1
 549 -32 l 1,17,-1
 549 -44 l 1,18,-1
 550 -56 l 1,19,-1
 526 -57 l 2,20,21
 510 -57 510 -57 502 -59 c 1,22,-1
 464 -56 l 1,23,24
 413 -44 413 -44 374 3 c 1,25,26
 354 25 354 25 259 192 c 1,27,28
 209 175 209 175 166 91 c 0,29,30
 130 20 130 20 33 20 c 1,31,32
 33 239 33 239 22 355 c 1,33,34
 22 410 22 410 15 476 c 0,35,36
 5 553 5 553 1 590 c 1,37,38
 1 626 1 626 3.5 653.5 c 128,-1,39
 6 681 6 681 11 706 c 0,40,41
 29 823 29 823 66 823 c 0,42,43
 74 823 74 823 86 815 c 2,44,-1
 120 791 l 1,45,46
 106 758 106 758 96.5 679.5 c 128,-1,47
 87 601 87 601 87 547 c 1,48,49
 91 518 91 518 94.5 470 c 128,-1,50
 98 422 98 422 98 379 c 0,51,52
 98 315 98 315 102 266 c 128,-1,53
 106 217 106 217 109 181 c 1,54,-1
 518 726 l 1,55,-1
 572 726 l 1,56,-1
 572 662 l 1,0,1
EndSplineSet
EndChar

StartChar: L
Encoding: 76 76 45
Width: 475
Flags: W
LayerCount: 2
Fore
SplineSet
503 139 m 0,0,1
 503 121 503 121 483 98 c 1,2,3
 420 89 420 89 340 58 c 128,-1,4
 260 27 260 27 242 20 c 0,5,6
 202 3 202 3 183 -5 c 0,7,8
 80 -43 80 -43 -8 -59 c 1,9,-1
 -8 -4 l 1,10,11
 -1 18 -1 18 5 44.5 c 128,-1,12
 11 71 11 71 18.5 110 c 128,-1,13
 26 149 26 149 27 157 c 0,14,15
 38 226 38 226 38 284 c 0,16,17
 38 333 38 333 40 375 c 0,18,19
 47 522 47 522 47 542 c 2,20,-1
 47 772 l 2,21,22
 47 793 47 793 64 816 c 128,-1,23
 81 839 81 839 102 839 c 2,24,-1
 113 838 l 1,25,26
 125 824 125 824 132 799 c 128,-1,27
 139 774 139 774 139 742 c 0,28,29
 139 732 139 732 135 684.5 c 128,-1,30
 131 637 131 637 122 551 c 128,-1,31
 113 465 113 465 113 411 c 1,32,-1
 69 83 l 1,33,-1
 74 73 l 2,34,35
 80 59 80 59 80 50 c 1,36,37
 101 50 101 50 191 86 c 0,38,39
 254 111 254 111 300.5 131.5 c 128,-1,40
 347 152 347 152 384 171 c 2,41,-1
 391 175 l 2,42,43
 399 178 399 178 418 180 c 1,44,45
 437 180 437 180 444.5 178.5 c 128,-1,46
 452 177 452 177 459.5 175 c 128,-1,47
 467 173 467 173 480 167 c 0,48,49
 503 159 503 159 503 139 c 0,0,1
EndSplineSet
EndChar

StartChar: M
Encoding: 77 77 46
Width: 696
Flags: W
LayerCount: 2
Fore
SplineSet
740 -106 m 1,0,-1
 715 -128 l 1,1,-1
 704 -135 l 1,2,3
 702 -129 702 -129 702 -125 c 256,4,5
 702 -121 702 -121 701.5 -119 c 128,-1,6
 701 -117 701 -117 700 -116 c 0,7,8
 603 -116 603 -116 567 -9 c 0,9,10
 555 28 555 28 548.5 79.5 c 128,-1,11
 542 131 542 131 542 203 c 0,12,13
 542 277 542 277 537 319.5 c 128,-1,14
 532 362 532 362 522 379 c 1,15,-1
 432 186 l 1,16,17
 382 121 382 121 304 121 c 256,18,19
 226 121 226 121 163 203 c 0,20,21
 89 298 89 298 66 310 c 1,22,-1
 66 42 l 2,23,24
 66 0 66 0 46 -16 c 0,25,26
 34 -25 34 -25 -13 -37 c 1,27,-1
 -13 2 l 1,28,-1
 16 488 l 1,29,-1
 14 547 l 1,30,-1
 14 611 l 2,31,32
 14 626 14 626 14 639.5 c 128,-1,33
 14 653 14 653 16 666 c 1,34,35
 16 692 16 692 23 699 c 128,-1,36
 30 706 30 706 46 706 c 0,37,38
 73 706 73 706 104 570 c 1,39,40
 144 381 144 381 172 318 c 1,41,42
 229 181 229 181 323 181 c 1,43,44
 327 184 327 184 329 186 c 0,45,46
 341 197 341 197 361 222 c 0,47,48
 402 273 402 273 427 327 c 0,49,50
 462 403 462 403 462 468 c 1,51,-1
 484 571 l 2,52,53
 492 609 492 609 500.5 658 c 128,-1,54
 509 707 509 707 513 735 c 1,55,56
 513 747 513 747 525 753 c 128,-1,57
 537 759 537 759 553 759 c 0,58,59
 570 759 570 759 588 750 c 2,60,-1
 591 749 l 1,61,-1
 595 710 l 1,62,-1
 600 623 l 1,63,-1
 603 567 l 1,64,65
 603 541 603 541 608 509 c 1,66,-1
 616 341 l 1,67,-1
 621 181 l 1,68,69
 621 141 621 141 630 97 c 128,-1,70
 639 53 639 53 659 1 c 0,71,72
 690 -83 690 -83 740 -106 c 1,0,-1
EndSplineSet
EndChar

StartChar: N
Encoding: 78 78 47
Width: 752
Flags: W
LayerCount: 2
Fore
SplineSet
718 221 m 1,0,-1
 717 210 l 1,1,-1
 717 154 l 1,2,-1
 713 127 l 1,3,-1
 712 109 l 1,4,-1
 712 95 l 1,5,-1
 714 80 l 1,6,7
 714 65 714 65 705.5 49 c 128,-1,8
 697 33 697 33 669 -7 c 1,9,10
 563 35 563 35 417 171 c 0,11,12
 371 213 371 213 313.5 272 c 128,-1,13
 256 331 256 331 192 403 c 0,14,15
 87 519 87 519 78 525 c 1,16,17
 114 355 114 355 133 259 c 128,-1,18
 152 163 152 163 164 90 c 0,19,20
 168 63 168 63 171 30 c 128,-1,21
 174 -3 174 -3 174 -29 c 2,22,-1
 174 -72 l 1,23,-1
 131 -72 l 1,24,25
 117 -48 117 -48 109 -14 c 0,26,27
 103 18 103 18 103 48 c 0,28,29
 103 61 103 61 104 76 c 128,-1,30
 105 91 105 91 108 107 c 1,31,-1
 110 122 l 1,32,-1
 85 268 l 1,33,34
 59 414 59 414 28 555 c 0,35,36
 -8 721 -8 721 -30 756 c 1,37,-1
 -30 821 l 1,38,-1
 -8 832 l 1,39,40
 25 811 25 811 100 672 c 0,41,42
 193 498 193 498 278 392 c 0,43,44
 419 217 419 217 621 100 c 1,45,46
 636 121 636 121 647.5 171.5 c 128,-1,47
 659 222 659 222 659 251 c 0,48,49
 659 294 659 294 609 445 c 0,50,51
 575 548 575 548 515 709 c 0,52,53
 500 749 500 749 478 808 c 0,54,55
 473 822 473 822 465 842 c 1,56,57
 465 856 465 856 472 864 c 0,58,59
 483 876 483 876 512 876 c 2,60,-1
 529 875 l 1,61,62
 546 848 546 848 558 829 c 0,63,64
 560 826 560 826 581 797 c 0,65,66
 616 748 616 748 616 724 c 1,67,-1
 615 719 l 1,68,69
 613 727 613 727 612.5 729.5 c 128,-1,70
 612 732 612 732 610 735 c 1,71,-1
 608 722 l 1,72,-1
 608 692 l 1,73,-1
 593 680 l 1,74,75
 586 676 586 676 586 670 c 1,76,-1
 627 570 l 1,77,78
 645 523 645 523 654 499 c 0,79,80
 671 452 671 452 680 423 c 1,81,-1
 708 301 l 1,82,83
 718 248 718 248 718 221 c 1,0,-1
EndSplineSet
EndChar

StartChar: O
Encoding: 79 79 48
Width: 798
Flags: W
LayerCount: 2
Fore
SplineSet
774 290 m 0,0,1
 774 144 774 144 637 56 c 0,2,3
 517 -22 517 -22 354 -22 c 0,4,5
 335 -22 335 -22 310.5 -18 c 128,-1,6
 286 -14 286 -14 258 -5 c 0,7,8
 149 28 149 28 79 108 c 1,9,10
 -18 222 -18 222 -18 410 c 0,11,12
 -18 574 -18 574 56 670 c 0,13,14
 113 745 113 745 214 776 c 0,15,16
 280 796 280 796 355 796 c 2,17,-1
 377 795 l 1,18,-1
 390 794 l 1,19,-1
 401 813 l 1,20,21
 412 830 412 830 438 830 c 0,22,23
 462 830 462 830 542 754 c 0,24,25
 634 665 634 665 695 558 c 0,26,27
 774 418 774 418 774 290 c 0,0,1
690 290 m 0,28,29
 690 393 690 393 654 477 c 0,30,31
 603 593 603 593 570 590 c 1,32,-1
 553 593 l 1,33,-1
 534 591 l 1,34,-1
 522 590 l 2,35,36
 492 590 492 590 479 628 c 0,37,38
 472 648 472 648 464 668 c 0,39,-1
 462 674 l 1,40,-1
 342 674 l 1,41,-1
 341 692 l 1,42,43
 335 710 335 710 306 710 c 0,44,45
 202 710 202 710 140 587 c 0,46,47
 90 487 90 487 90 374 c 0,48,49
 90 224 90 224 156 144 c 0,50,51
 203 88 203 88 292 64 c 1,52,-1
 402 38 l 1,53,54
 409 46 409 46 493 63 c 128,-1,55
 577 80 577 80 622 118 c 0,56,57
 690 175 690 175 690 290 c 0,28,29
EndSplineSet
EndChar

StartChar: P
Encoding: 80 80 49
Width: 504
Flags: W
LayerCount: 2
Fore
SplineSet
475 628 m 0,0,1
 475 517 475 517 387 472 c 0,2,3
 350 454 350 454 222 433 c 0,4,5
 133 419 133 419 133 379 c 0,6,7
 133 338 133 338 166 245 c 0,8,9
 179 208 179 208 199 159 c 0,10,11
 207 140 207 140 231 82 c 0,12,13
 269 -10 269 -10 278 -45 c 1,14,-1
 216 -45 l 1,15,16
 200 -24 200 -24 159 57 c 0,17,18
 103 171 103 171 62 306 c 0,19,20
 9 488 9 488 9 648 c 0,21,22
 9 735 9 735 50 797 c 0,23,24
 95 866 95 866 175 866 c 0,25,26
 296 866 296 866 385.5 792 c 128,-1,27
 475 718 475 718 475 628 c 0,0,1
392 596 m 0,28,29
 392 688 392 688 344 729 c 1,30,31
 303 762 303 762 226 762 c 1,32,33
 223 768 223 768 221 768 c 2,34,-1
 200 772 l 1,35,-1
 171 769 l 1,36,-1
 133 762 l 1,37,-1
 102 665 l 1,38,39
 89 619 89 619 89 597 c 0,40,41
 89 556 89 556 127 524 c 1,42,43
 161 512 161 512 179 502.5 c 128,-1,44
 197 493 197 493 203 493 c 2,45,-1
 226 493 l 2,46,47
 292 493 292 493 337 516 c 0,48,49
 364 530 364 530 378 549.5 c 128,-1,50
 392 569 392 569 392 596 c 0,28,29
EndSplineSet
EndChar

StartChar: Q
Encoding: 81 81 50
Width: 980
Flags: W
LayerCount: 2
Fore
SplineSet
1093 -94 m 1,0,-1
 1066 -125 l 1,1,-1
 1045 -152 l 1,2,3
 858 -18 858 -18 812 11 c 128,-1,4
 766 40 766 40 740 40 c 1,5,6
 686 15 686 15 602 -6 c 128,-1,7
 518 -27 518 -27 405 -27 c 0,8,9
 218 -27 218 -27 111 89 c 0,10,11
 12 197 12 197 12 365 c 0,12,13
 12 493 12 493 57 583 c 0,14,15
 111 690 111 690 213 690 c 2,16,-1
 268 690 l 2,17,18
 305 690 305 690 314 688 c 1,19,20
 327 688 327 688 358 678 c 1,21,22
 386 703 386 703 402.5 712.5 c 128,-1,23
 419 722 419 722 438 722 c 2,24,-1
 466 720 l 1,25,-1
 491 719 l 2,26,27
 623 719 623 719 773 587 c 0,28,29
 931 449 931 449 931 308 c 2,30,-1
 931 231 l 1,31,-1
 835 68 l 1,32,-1
 1093 -94 l 1,0,-1
883 288 m 0,33,34
 883 397 883 397 760.5 535 c 128,-1,35
 638 673 638 673 534 673 c 0,36,37
 516 673 516 673 510 671 c 0,38,39
 431 653 431 653 418 647 c 1,40,41
 421 629 421 629 363 592 c 1,42,-1
 323 600 l 1,43,44
 310 613 310 613 298 620 c 1,45,-1
 269 624 l 1,46,-1
 247 623 l 1,47,-1
 223 623 l 2,48,49
 160 623 160 623 121 533 c 0,50,51
 89 457 89 457 89 365 c 0,52,53
 89 320 89 320 94 284.5 c 128,-1,54
 99 249 99 249 111 214 c 0,55,56
 141 126 141 126 209 79 c 0,57,58
 294 20 294 20 433 20 c 0,59,60
 540 20 540 20 596 35.5 c 128,-1,61
 652 51 652 51 682 83 c 1,62,-1
 554 177 l 1,63,64
 529 199 529 199 529 221 c 1,65,-1
 539 240 l 1,66,67
 550 258 550 258 567 260 c 1,68,69
 590 260 590 260 685 191 c 1,70,71
 769 128 769 128 778 116 c 1,72,73
 834 144 834 144 863 200 c 0,74,75
 873 220 873 220 878 241.5 c 128,-1,76
 883 263 883 263 883 288 c 0,33,34
EndSplineSet
EndChar

StartChar: R
Encoding: 82 82 51
Width: 750
Flags: W
LayerCount: 2
Fore
SplineSet
902 3 m 0,0,1
 902 -7 902 -7 888 -24 c 2,2,-1
 881 -32 l 1,3,4
 881 -58 881 -58 874.5 -64 c 128,-1,5
 868 -70 868 -70 842 -70 c 0,6,7
 826 -70 826 -70 707 -28 c 128,-1,8
 588 14 588 14 574 16 c 1,9,-1
 515 38 l 2,10,11
 442 67 442 67 379 104 c 0,12,13
 288 156 288 156 229 217 c 1,14,15
 316 259 316 259 359 285 c 0,16,17
 450 340 450 340 450 457 c 0,18,19
 450 552 450 552 367 625 c 0,20,21
 297 687 297 687 239 687 c 0,22,23
 200 687 200 687 173 625 c 0,24,25
 143 553 143 553 143 466 c 0,26,27
 143 443 143 443 167 326 c 1,28,-1
 212 120 l 1,29,-1
 239 7 l 1,30,-1
 239 -32 l 1,31,-1
 182 -32 l 1,32,33
 138 24 138 24 111 173 c 1,34,-1
 72 411 l 1,35,36
 45 528 45 528 -10 538 c 1,37,-1
 0 605 l 1,38,39
 5 658 5 658 48 658 c 0,40,41
 51 657 51 657 53.5 656.5 c 128,-1,42
 56 656 56 656 67 650 c 2,43,-1
 105 629 l 1,44,-1
 152 710 l 1,45,46
 188 754 188 754 249 754 c 0,47,48
 343 754 343 754 433 651 c 0,49,50
 517 555 517 555 517 466 c 0,51,52
 517 397 517 397 466 328 c 1,53,-1
 354 198 l 1,54,55
 354 180 354 180 417 156 c 0,56,57
 547 109 547 109 625 72 c 0,58,59
 661 56 661 56 693.5 44.5 c 128,-1,60
 726 33 726 33 760.5 24.5 c 128,-1,61
 795 16 795 16 847 16 c 2,62,-1
 881 16 l 2,63,64
 902 16 902 16 902 3 c 0,0,1
EndSplineSet
EndChar

StartChar: S
Encoding: 83 83 52
Width: 925
Flags: W
LayerCount: 2
Fore
SplineSet
904 78 m 1,0,1
 901 60 901 60 832 34 c 128,-1,2
 763 8 763 8 640.5 -11.5 c 128,-1,3
 518 -31 518 -31 368 -31 c 0,4,5
 230 -31 230 -31 119 -10 c 0,6,7
 -47 20 -47 20 -47 89 c 1,8,-1
 -30 114 l 1,9,10
 20 171 20 171 115 198 c 1,11,-1
 133 182 l 1,12,-1
 117 155 l 1,13,14
 113 151 113 151 87 138 c 0,15,16
 51 121 51 121 51 100 c 0,17,18
 51 76 51 76 160 49.5 c 128,-1,19
 269 23 269 23 401 23 c 2,20,-1
 500 24 l 1,21,-1
 598 32 l 1,22,23
 660 44 660 44 692 53 c 0,24,25
 784 77 784 77 784 100 c 1,26,27
 739 154 739 154 595 232 c 2,28,-1
 308 387 l 1,29,30
 194 452 194 452 155 513 c 0,31,32
 122 566 122 566 122 661 c 0,33,34
 122 794 122 794 172 870 c 0,35,36
 226 953 226 953 330 953 c 0,37,38
 375 953 375 953 429 938 c 0,39,40
 516 914 516 914 516 865 c 0,41,42
 516 845 516 845 502 838 c 128,-1,43
 488 831 488 831 466 831 c 2,44,-1
 440 832 l 2,45,46
 393 832 393 832 353 858.5 c 128,-1,47
 313 885 313 885 297 887 c 1,48,49
 252 887 252 887 222 805 c 0,50,51
 197 733 197 733 197 654 c 0,52,53
 197 612 197 612 206 591 c 0,54,55
 226 545 226 545 287 495 c 0,56,57
 340 453 340 453 416 411 c 0,58,59
 435 401 435 401 491 375 c 0,60,61
 521 360 521 360 552 346 c 0,62,63
 577 335 577 335 661 283 c 1,64,-1
 808 189 l 1,65,-1
 883 141 l 1,66,67
 897 129 897 129 903 93 c 1,68,-1
 904 78 l 1,0,1
EndSplineSet
EndChar

StartChar: T
Encoding: 84 84 53
Width: 1000
Flags: W
LayerCount: 2
Fore
SplineSet
1021 591 m 1,0,1
 1022 578 1022 578 1014 571 c 1,2,3
 1007 568 1007 568 989 566 c 1,4,-1
 974 567 l 1,5,-1
 963 569 l 1,6,-1
 860 609 l 1,7,8
 801 630 801 630 748 639 c 2,9,-1
 643 654 l 1,10,11
 550 664 550 664 515 664 c 0,12,13
 486 664 486 664 474 660 c 1,14,-1
 480 610 l 1,15,-1
 482 588 l 1,16,-1
 586 -72 l 1,17,18
 583 -93 583 -93 568 -105 c 128,-1,19
 553 -117 553 -117 532 -117 c 2,20,-1
 523 -116 l 1,21,-1
 488 -98 l 1,22,23
 454 -78 454 -78 456 -61 c 1,24,-1
 462 -29 l 1,25,-1
 467 7 l 1,26,-1
 468 43 l 1,27,28
 468 93 468 93 455 148 c 0,29,30
 425 280 425 280 425 329 c 0,31,32
 425 424 425 424 413 526 c 0,33,34
 397 668 397 668 366 674 c 1,35,-1
 353 674 l 1,36,-1
 335 675 l 2,37,38
 293 675 293 675 256 669 c 128,-1,39
 219 663 219 663 219 646 c 0,40,41
 219 636 219 636 238 620 c 1,42,43
 231 620 231 620 227 618 c 1,44,-1
 171 632 l 1,45,-1
 86 646 l 1,46,47
 50 655 50 655 50 685 c 1,48,-1
 51 698 l 1,49,50
 52 703 52 703 118 727 c 0,51,52
 161 741 161 741 198 748 c 128,-1,53
 235 755 235 755 275 755 c 0,54,55
 305 755 305 755 340 749 c 2,56,-1
 353 748 l 2,57,58
 368 748 368 748 374 757 c 128,-1,59
 380 766 380 766 380 784 c 1,60,-1
 379 808 l 1,61,62
 379 824 379 824 377 832 c 1,63,64
 377 848 377 848 382 856.5 c 128,-1,65
 387 865 387 865 401 865 c 2,66,-1
 410 864 l 2,67,68
 439 860 439 860 450.5 804.5 c 128,-1,69
 462 749 462 749 474 746 c 0,70,71
 511 733 511 733 548 728 c 128,-1,72
 585 723 585 723 627.5 720 c 128,-1,73
 670 717 670 717 711 717 c 0,74,75
 797 717 797 717 917 673 c 0,76,77
 1012 639 1012 639 1021 591 c 1,0,1
EndSplineSet
EndChar

StartChar: U
Encoding: 85 85 54
Width: 730
Flags: W
LayerCount: 2
Fore
SplineSet
699 355 m 0,0,1
 699 213 699 213 631 108 c 0,2,3
 557 -8 557 -8 444 -8 c 2,4,-1
 375 -8 l 2,5,6
 234 -8 234 -8 143 104 c 0,7,8
 77 186 77 186 43 325 c 0,9,10
 33 368 33 368 27 409.5 c 128,-1,11
 21 451 21 451 21 483 c 2,12,-1
 21 807 l 1,13,14
 29 828 29 828 35 836 c 128,-1,15
 41 844 41 844 54 844 c 0,16,17
 64 844 64 844 78 838 c 128,-1,18
 92 832 92 832 96.5 816.5 c 128,-1,19
 101 801 101 801 106 801 c 1,20,-1
 108 707 l 1,21,-1
 110 542 l 1,22,23
 110 481 110 481 114 426.5 c 128,-1,24
 118 372 118 372 127 326 c 0,25,26
 149 204 149 204 202 126 c 0,27,28
 264 36 264 36 365 21 c 1,29,-1
 402 18 l 1,30,31
 490 18 490 18 553 88 c 0,32,33
 605 146 605 146 635 250 c 0,34,35
 639 267 639 267 642 285.5 c 128,-1,36
 645 304 645 304 645 321 c 0,37,38
 645 332 645 332 644 346.5 c 128,-1,39
 643 361 643 361 640 376 c 1,40,-1
 630 440 l 1,41,42
 625 481 625 481 613 523 c 128,-1,43
 601 565 601 565 576 624.5 c 128,-1,44
 551 684 551 684 502 778 c 0,45,46
 488 806 488 806 473 836 c 0,47,48
 469 845 469 845 463 857 c 1,49,50
 463 865 463 865 478 876 c 1,51,52
 492 884 492 884 503 886 c 1,53,54
 527 886 527 886 573.5 805.5 c 128,-1,55
 620 725 620 725 657 607 c 0,56,57
 699 470 699 470 699 355 c 0,0,1
EndSplineSet
EndChar

StartChar: V
Encoding: 86 86 55
Width: 660
Flags: W
LayerCount: 2
Fore
SplineSet
661 714 m 1,0,-1
 654 733 l 1,1,-1
 655 719 l 1,2,-1
 656 701 l 1,3,-1
 656 689 l 2,4,5
 656 683 656 683 654 675 c 0,6,7
 654 668 654 668 647 662 c 1,8,-1
 637 697 l 1,9,10
 635 706 635 706 634 714 c 128,-1,11
 633 722 633 722 629 733 c 1,12,13
 618 720 618 720 603 669 c 2,14,-1
 567 549 l 1,15,-1
 527 445 l 1,16,-1
 451 243 l 1,17,18
 410 128 410 128 410 109 c 1,19,-1
 402 92 l 1,20,-1
 383 44 l 1,21,-1
 352 2 l 1,22,23
 340 -16 340 -16 303 -23 c 1,24,25
 261 7 261 7 193.5 154 c 128,-1,26
 126 301 126 301 98 410 c 1,27,-1
 68 519 l 1,28,-1
 50 573 l 1,29,-1
 44 601 l 1,30,-1
 41 615 l 1,31,-1
 22 698 l 1,32,33
 7 715 7 715 -2.5 746.5 c 128,-1,34
 -12 778 -12 778 -12 828 c 0,35,36
 -12 846 -12 846 -5 854 c 2,37,-1
 8 868 l 1,38,-1
 38 868 l 1,39,40
 56 865 56 865 64 854 c 0,41,42
 78 834 78 834 78 798 c 1,43,-1
 89 743 l 2,44,45
 119 596 119 596 128 539 c 1,46,-1
 151 455 l 1,47,-1
 161 412 l 1,48,-1
 248 180 l 1,49,50
 248 171 248 171 263 156.5 c 128,-1,51
 278 142 278 142 278 130 c 0,52,53
 278 116 278 116 307 101 c 1,54,-1
 337 91 l 1,55,56
 385 191 385 191 426 287 c 0,57,58
 463 373 463 373 498 466 c 1,59,-1
 566 665 l 1,60,61
 590 733 590 733 628 765 c 1,62,63
 641 765 641 765 653 742 c 0,64,65
 659 728 659 728 661 714 c 1,0,-1
EndSplineSet
EndChar

StartChar: W
Encoding: 87 87 56
Width: 924
Flags: W
LayerCount: 2
Fore
SplineSet
898 925 m 1,0,1
 859 849 859 849 830 609 c 1,2,3
 790 249 790 249 782 206 c 0,4,5
 746 -9 746 -9 679 -64 c 1,6,7
 672 -64 672 -64 622 -26 c 0,8,9
 558 23 558 23 512 84 c 0,10,11
 450 168 450 168 440 259 c 1,12,-1
 421 259 l 1,13,14
 401 245 401 245 389 160 c 1,15,16
 374 30 374 30 369 19 c 1,17,18
 351 -54 351 -54 311 -54 c 1,19,20
 285 -41 285 -41 262 -27 c 128,-1,21
 239 -13 239 -13 221 2 c 0,22,23
 168 45 168 45 108 121 c 0,24,25
 65 176 65 176 19 343 c 0,26,27
 -11 457 -11 457 -40 623 c 0,28,29
 -61 749 -61 749 -61 772 c 0,30,31
 -61 785 -61 785 -28 817 c 0,32,33
 -9 835 -9 835 4 836 c 0,34,35
 20 836 20 836 31 808.5 c 128,-1,36
 42 781 42 781 42 727 c 0,37,38
 42 686 42 686 47 645 c 128,-1,39
 52 604 52 604 68 550 c 1,40,-1
 93 435 l 1,41,42
 126 301 126 301 171 200 c 0,43,44
 232 61 232 61 306 10 c 1,45,46
 326 58 326 58 347.5 216 c 128,-1,47
 369 374 369 374 378 407 c 1,48,49
 400 512 400 512 440 531 c 1,50,51
 457 499 457 499 482 369.5 c 128,-1,52
 507 240 507 240 538 174 c 1,53,54
 587 64 587 64 679 10 c 1,55,56
 735 141 735 141 768 384 c 1,57,58
 777 478 777 478 787 572 c 0,59,60
 791 613 791 613 810.5 780 c 128,-1,61
 830 947 830 947 870 990 c 1,62,63
 875 986 875 986 878 984 c 128,-1,64
 881 982 881 982 884 981 c 1,65,-1
 890 984 l 1,66,-1
 898 990 l 1,67,-1
 898 925 l 1,0,1
EndSplineSet
EndChar

StartChar: X
Encoding: 88 88 57
Width: 854
Flags: W
LayerCount: 2
Fore
SplineSet
960 -79 m 1,0,1
 948 -136 948 -136 918 -139.5 c 128,-1,2
 888 -143 888 -143 871 -149 c 1,3,4
 866 -100 866 -100 864 -95 c 1,5,-1
 861 -90 l 1,6,7
 861 -52 861 -52 829 -27 c 0,8,9
 804 -7 804 -7 680 60 c 0,10,11
 507 155 507 155 334 258 c 1,12,-1
 251 186 l 2,13,14
 154 101 154 101 154 32 c 1,15,-1
 155 20 l 1,16,-1
 116 20 l 2,17,18
 76 20 76 20 76 60 c 0,19,20
 76 93 76 93 130 153 c 0,21,22
 172 199 172 199 230 246 c 0,23,24
 256 268 256 268 276 282 c 0,25,26
 279 284 279 284 285 288 c 1,27,-1
 195 368 l 2,28,29
 92 459 92 459 28 532 c 0,30,31
 -63 638 -63 638 -63 696 c 0,32,33
 -63 711 -63 711 -43 721 c 2,34,-1
 -14 735 l 1,35,36
 6 710 6 710 34 662 c 2,37,-1
 96 557 l 1,38,-1
 154 503 l 2,39,40
 219 443 219 443 267 403 c 0,41,42
 331 349 331 349 344 348 c 1,43,-1
 642 616 l 1,44,45
 653 616 653 616 667 601.5 c 128,-1,46
 681 587 681 587 692 566 c 1,47,-1
 394 308 l 1,48,49
 423 267 423 267 548 201 c 1,50,-1
 692 129 l 1,51,52
 812 63 812 63 882 5 c 0,53,54
 926 -31 926 -31 960 -79 c 1,0,1
EndSplineSet
EndChar

StartChar: Y
Encoding: 89 89 58
Width: 545
Flags: W
LayerCount: 2
Fore
SplineSet
588 858 m 1,0,-1
 574 796 l 1,1,2
 545 774 545 774 494 683 c 0,3,4
 465 630 465 630 431.5 557 c 128,-1,5
 398 484 398 484 366 407 c 1,6,7
 321 292 321 292 300 205 c 0,8,9
 285 140 285 140 285 89 c 1,10,-1
 288 46 l 1,11,-1
 291 17 l 1,12,13
 291 8 291 8 285 -4 c 0,14,15
 273 -23 273 -23 260.5 -32 c 128,-1,16
 248 -41 248 -41 235 -41 c 0,17,18
 225 -41 225 -41 214 -35 c 1,19,-1
 194 -21 l 1,20,-1
 191 55 l 1,21,22
 191 153 191 153 236 294 c 0,23,24
 267 391 267 391 320 505 c 0,25,26
 362 596 362 596 366 597 c 1,27,28
 362 604 362 604 349 605 c 1,29,-1
 309 601 l 1,30,-1
 231 597 l 1,31,32
 138 597 138 597 36 695 c 0,33,34
 -59 785 -59 785 -59 842 c 0,35,36
 -59 858 -59 858 -50 862.5 c 128,-1,37
 -41 867 -41 867 -23 869 c 1,38,39
 -4 869 -4 869 41 808 c 0,40,41
 101 727 101 727 133 695 c 1,42,43
 197 634 197 634 267 634 c 0,44,45
 354 634 354 634 414 703 c 1,46,-1
 517 881 l 1,47,-1
 536 894 l 2,48,49
 545 900 545 900 556 900 c 256,50,51
 567 900 567 900 576 890.5 c 128,-1,52
 585 881 585 881 588 858 c 1,0,-1
EndSplineSet
EndChar

StartChar: Z
Encoding: 90 90 59
Width: 1000
Flags: W
LayerCount: 2
Fore
SplineSet
1136 20 m 1,0,-1
 1123 2 l 2,1,2
 1108 -19 1108 -19 1096 -46 c 1,3,4
 1072 -31 1072 -31 948.5 -13 c 128,-1,5
 825 5 825 5 754 5 c 1,6,7
 676 -8 676 -8 528 -20 c 1,8,9
 483 -20 483 -20 354 -27 c 0,10,11
 280 -31 280 -31 251 -31 c 2,12,-1
 170 -31 l 1,13,-1
 148 -31 l 1,14,-1
 125 -32 l 2,15,16
 63 -32 63 -32 41 -18.5 c 128,-1,17
 19 -5 19 -5 19 20 c 0,18,19
 19 38 19 38 169 145.5 c 128,-1,20
 319 253 319 253 432 311 c 0,21,22
 446 318 446 318 466.5 333.5 c 128,-1,23
 487 349 487 349 523 379 c 0,24,25
 605 448 605 448 662 514 c 0,26,27
 734 598 734 598 734 653 c 0,28,29
 734 739 734 739 612 776 c 0,30,31
 565 790 565 790 501.5 797 c 128,-1,32
 438 804 438 804 351 804 c 2,33,-1
 130 804 l 1,34,-1
 103 803 l 1,35,-1
 69 803 l 2,36,37
 54 803 54 803 36.5 803.5 c 128,-1,38
 19 804 19 804 5 811 c 0,39,40
 -21 822 -21 822 -21 854 c 0,41,42
 -21 861 -21 861 -6 877 c 128,-1,43
 9 893 9 893 19 895 c 1,44,45
 51 881 51 881 97 876 c 128,-1,46
 143 871 143 871 201 868 c 128,-1,47
 259 865 259 865 321 865 c 1,48,-1
 486 844 l 2,49,50
 519 840 519 840 562 837 c 128,-1,51
 605 834 605 834 643 834 c 0,52,53
 683 834 683 834 743.5 772 c 128,-1,54
 804 710 804 710 804 663 c 1,55,-1
 787 615 l 1,56,57
 773 583 773 583 753.5 553 c 128,-1,58
 734 523 734 523 706 490 c 0,59,60
 631 403 631 403 512 321 c 1,61,-1
 334 203 l 2,62,63
 289 173 289 173 250 146.5 c 128,-1,64
 211 120 211 120 196 108 c 0,65,66
 142 67 142 67 140 50 c 1,67,68
 142 48 142 48 142 40 c 0,69,70
 142 28 142 28 140 20 c 1,71,-1
 321 20 l 1,72,-1
 430 35 l 2,73,74
 550 50 550 50 613 50 c 2,75,-1
 975 50 l 1,76,-1
 1028 56 l 2,77,78
 1066 62 1066 62 1084 62 c 0,79,80
 1107 62 1107 62 1121.5 53 c 128,-1,81
 1136 44 1136 44 1136 20 c 1,0,-1
EndSplineSet
EndChar

StartChar: bracketleft
Encoding: 91 91 60
Width: 392
Flags: W
LayerCount: 2
Fore
SplineSet
367 793 m 1,0,1
 363 789 363 789 360 786 c 0,2,3
 350 776 350 776 335 765 c 0,4,5
 306 742 306 742 274 725 c 1,6,7
 274 741 274 741 271.5 751.5 c 128,-1,8
 269 762 269 762 253 765 c 1,9,-1
 226 767 l 1,10,-1
 208 768 l 2,11,12
 144 768 144 768 102 750.5 c 128,-1,13
 60 733 60 733 55 689 c 1,14,15
 55 646 55 646 56 626.5 c 128,-1,16
 57 607 57 607 63 548 c 1,17,-1
 68 464 l 1,18,-1
 68 438 l 2,19,-1
 68 416 l 1,20,21
 66 408 66 408 66 405 c 1,22,-1
 63 371 l 1,23,-1
 69 218 l 1,24,25
 69 145 69 145 77.5 96.5 c 128,-1,26
 86 48 86 48 98 29 c 1,27,-1
 320 10 l 1,28,29
 335 10 335 10 343 8 c 1,30,31
 353 8 353 8 354 -2 c 1,32,-1
 354 -15 l 2,33,34
 354 -36 354 -36 343.5 -43.5 c 128,-1,35
 333 -51 333 -51 314 -51 c 1,36,-1
 277 -47 l 1,37,-1
 236 -41 l 1,38,-1
 65 -26 l 2,39,40
 50 -24 50 -24 38 41 c 0,41,42
 33 71 33 71 30 113.5 c 128,-1,43
 27 156 27 156 27 208 c 1,44,-1
 25 293 l 1,45,-1
 23 356 l 1,46,-1
 23 414 l 1,47,48
 26 440 26 440 27 453 c 1,49,-1
 -11 760 l 1,50,51
 -11 777 -11 777 138.5 800 c 128,-1,52
 288 823 288 823 334 823 c 1,53,54
 367 820 367 820 367 793 c 1,0,1
EndSplineSet
EndChar

StartChar: backslash
Encoding: 92 92 61
Width: 441
Flags: W
LayerCount: 2
Fore
SplineSet
502 -45 m 1,0,-1
 486 -89 l 1,1,-1
 413 -62 l 2,2,3
 385 -53 385 -53 369.5 -27.5 c 128,-1,4
 354 -2 354 -2 322 92 c 1,5,-1
 233 377 l 1,6,-1
 51 766 l 1,7,8
 45 775 45 775 37 778 c 2,9,-1
 26 782 l 1,10,11
 14 782 14 782 10 789 c 1,12,-1
 14 831 l 1,13,14
 17 855 17 855 20.5 865 c 128,-1,15
 24 875 24 875 33.5 883 c 128,-1,16
 43 891 43 891 61 891 c 1,17,-1
 78 888 l 2,18,19
 85 887 85 887 122 755 c 0,20,21
 141 685 141 685 164 642 c 0,22,23
 194 585 194 585 234 491 c 1,24,-1
 268 405 l 1,25,26
 294 353 294 353 331.5 230.5 c 128,-1,27
 369 108 369 108 394 61 c 0,28,29
 436 -19 436 -19 502 -45 c 1,0,-1
EndSplineSet
EndChar

StartChar: bracketright
Encoding: 93 93 62
Width: 308
Flags: W
LayerCount: 2
Fore
SplineSet
271 17 m 1,0,-1
 270 3 l 1,1,2
 270 -16 270 -16 260 -26 c 0,3,4
 255 -32 255 -32 238 -34 c 1,5,-1
 209 -30 l 2,6,7
 200 -29 200 -29 193 -28 c 128,-1,8
 186 -27 186 -27 182 -25 c 1,9,-1
 163 -25 l 2,10,11
 134 -25 134 -25 102 -32 c 2,12,-1
 68 -40 l 1,13,-1
 44 -38 l 1,14,-1
 46 -8 l 1,15,16
 50 3 50 3 61.5 7.5 c 128,-1,17
 73 12 73 12 79 13 c 128,-1,18
 85 14 85 14 101 14 c 2,19,-1
 124 13 l 1,20,-1
 149 13 l 2,21,22
 194 13 194 13 209.5 26.5 c 128,-1,23
 225 40 225 40 228 67 c 1,24,-1
 211 302 l 1,25,26
 211 330 211 330 207.5 398.5 c 128,-1,27
 204 467 204 467 204 500 c 0,28,29
 204 526 204 526 205 568 c 128,-1,30
 206 610 206 610 206 625 c 0,31,32
 206 667 206 667 209 700 c 0,33,34
 214 738 214 738 216 759 c 1,35,-1
 145 769 l 1,36,-1
 112 771 l 1,37,-1
 96 770 l 1,38,-1
 59 787 l 1,39,40
 22 806 22 806 22 818 c 0,41,42
 22 826 22 826 34 836 c 128,-1,43
 46 846 46 846 55 846 c 1,44,45
 124 834 124 834 161 825 c 0,46,47
 266 801 266 801 266 779 c 1,48,-1
 246 552 l 1,49,50
 246 533 246 533 244 524 c 1,51,-1
 244 503 l 2,52,53
 244 476 244 476 245 459 c 0,54,55
 250 376 250 376 250 360 c 0,56,57
 250 316 250 316 255.5 264 c 128,-1,58
 261 212 261 212 264 182 c 1,59,-1
 271 44 l 1,60,-1
 271 17 l 1,0,-1
EndSplineSet
EndChar

StartChar: asciicircum
Encoding: 94 94 63
Width: 525
Flags: W
LayerCount: 2
Fore
SplineSet
477 685 m 1,0,-1
 474 649 l 1,1,2
 386 679 386 679 326 711 c 0,3,4
 259 747 259 747 206 813 c 1,5,6
 176 788 176 788 124 680 c 0,7,8
 88 604 88 604 9 595 c 1,9,-1
 12 632 l 1,10,11
 123 820 123 820 159 872 c 0,12,13
 186 911 186 911 211 926 c 1,14,15
 259 863 259 863 345 792 c 2,16,-1
 477 685 l 1,0,-1
EndSplineSet
EndChar

StartChar: underscore
Encoding: 95 95 64
Width: 539
Flags: W
LayerCount: 2
Fore
SplineSet
524 -4 m 0,0,1
 524 -19 524 -19 491 -27 c 1,2,3
 458 -33 458 -33 415 -33 c 2,4,-1
 394 -33 l 1,5,-1
 186 -33 l 2,6,7
 149 -33 149 -33 123.5 -34 c 128,-1,8
 98 -35 98 -35 76 -36 c 1,9,-1
 16 -43 l 2,10,11
 9 -43 9 -43 3 -38 c 2,12,-1
 -10 -29 l 1,13,-1
 -10 14 l 1,14,-1
 22 19 l 2,15,16
 53 24 53 24 55 27 c 1,17,-1
 67 24 l 1,18,-1
 85 16 l 1,19,-1
 424 16 l 1,20,-1
 430 22 l 1,21,22
 440 27 440 27 474 27 c 1,23,24
 481 30 481 30 496 32 c 0,25,26
 508 32 508 32 516 24 c 128,-1,27
 524 16 524 16 524 -4 c 0,0,1
EndSplineSet
EndChar

StartChar: grave
Encoding: 96 96 65
Width: 287
Flags: W
LayerCount: 2
Fore
SplineSet
242 639 m 1,0,1
 226 639 226 639 139.5 726.5 c 128,-1,2
 53 814 53 814 41 817 c 1,3,-1
 45 877 l 1,4,5
 58 901 58 901 67 910 c 0,6,7
 83 928 83 928 97 930 c 1,8,9
 114 930 114 930 131 906 c 1,10,11
 147 880 147 880 147 862 c 1,12,-1
 141 838 l 2,13,14
 135 815 135 815 128 809 c 0,15,16
 124 805 124 805 188 721 c 1,17,-1
 242 639 l 1,0,1
EndSplineSet
EndChar

StartChar: a
Encoding: 97 97 66
Width: 738
Flags: W
LayerCount: 2
Fore
SplineSet
929 80 m 1,0,-1
 919 69 l 1,1,2
 891 47 891 47 818 26 c 0,3,4
 756 9 756 9 736 9 c 0,5,6
 643 9 643 9 571 54 c 1,7,-1
 452 151 l 1,8,9
 381 94 381 94 278 46.5 c 128,-1,10
 175 -1 175 -1 77 -1 c 0,11,12
 56 -1 56 -1 26 19 c 128,-1,13
 -4 39 -4 39 -4 69 c 0,14,15
 -4 158 -4 158 102 242 c 0,16,17
 220 334 220 334 381 334 c 0,18,19
 420 334 420 334 432 366 c 1,20,21
 437 391 437 391 441.5 409.5 c 128,-1,22
 446 428 446 428 452 445 c 1,23,24
 411 470 411 470 344 488 c 128,-1,25
 277 506 277 506 229 506 c 0,26,27
 194 506 194 506 177 504.5 c 128,-1,28
 160 503 160 503 119.5 498.5 c 128,-1,29
 79 494 79 494 56.5 492 c 128,-1,30
 34 490 34 490 16 490 c 2,31,-1
 -33 493 l 1,32,33
 -57 496 -57 496 -73 504 c 128,-1,34
 -89 512 -89 512 -89 532 c 0,35,36
 -89 553 -89 553 -75 566 c 0,37,38
 -71 569 -71 569 -47 574 c 1,39,-1
 1 577 l 2,40,41
 23 577 23 577 49 576 c 128,-1,42
 75 575 75 575 105 572 c 1,43,44
 123 572 123 572 158 566 c 1,45,46
 256 566 256 566 340 551 c 0,47,48
 451 531 451 531 515 486 c 0,49,50
 594 431 594 431 594 344 c 0,51,52
 594 319 594 319 564 288 c 128,-1,53
 534 257 534 257 534 222 c 0,54,55
 534 161 534 161 612 110 c 128,-1,56
 690 59 690 59 787 59 c 0,57,58
 807 59 807 59 846 66 c 0,59,60
 889 72 889 72 908 80 c 1,61,-1
 929 80 l 1,0,-1
442 212 m 1,62,-1
 433 252 l 1,63,64
 427 273 427 273 381 273 c 0,65,66
 257 273 257 273 147 196 c 0,67,68
 57 133 57 133 57 101 c 0,69,70
 57 84 57 84 69 70 c 1,71,72
 75 65 75 65 84 62 c 128,-1,73
 93 59 93 59 107 59 c 0,74,75
 187 59 187 59 304 125 c 1,76,-1
 442 212 l 1,62,-1
EndSplineSet
EndChar

StartChar: b
Encoding: 98 98 67
Width: 390
Flags: W
LayerCount: 2
Fore
SplineSet
397 379 m 1,0,1
 397 340 397 340 376 258 c 0,2,3
 350 159 350 159 318 117 c 0,4,5
 232 7 232 7 134 7 c 0,6,7
 73 7 73 7 40 33 c 128,-1,8
 7 59 7 59 7 105 c 0,9,10
 7 114 7 114 17 159 c 0,11,12
 21 177 21 177 25.5 196.5 c 128,-1,13
 30 216 30 216 32 233 c 128,-1,14
 34 250 34 250 34 263 c 0,15,16
 34 281 34 281 30.5 301.5 c 128,-1,17
 27 322 27 322 24 340.5 c 128,-1,18
 21 359 21 359 20 372 c 0,19,20
 7 453 7 453 7 526 c 1,21,-1
 -44 824 l 1,22,-1
 -10 894 l 1,23,24
 26 879 26 879 45.5 808 c 128,-1,25
 65 737 65 737 65 649 c 1,26,-1
 82 546 l 1,27,-1
 94 500 l 1,28,29
 99 484 99 484 103 471.5 c 128,-1,30
 107 459 107 459 115 425 c 1,31,32
 139 415 139 415 156 415 c 0,33,34
 171 415 171 415 183 423 c 0,35,36
 198 435 198 435 206 441 c 0,37,38
 258 473 258 473 295 473 c 0,39,40
 343 473 343 473 375 426 c 1,41,-1
 397 379 l 1,0,1
316 377 m 1,42,-1
 295 423 l 1,43,-1
 256 421 l 1,44,45
 232 408 232 408 210 392.5 c 128,-1,46
 188 377 188 377 162 355 c 1,47,48
 145 325 145 325 136 303.5 c 128,-1,49
 127 282 127 282 121.5 252 c 128,-1,50
 116 222 116 222 110 190.5 c 128,-1,51
 104 159 104 159 104 134 c 0,52,53
 104 104 104 104 114 85 c 1,54,-1
 141 69 l 1,55,-1
 160 69 l 2,56,57
 206 69 206 69 251 133 c 0,58,59
 269 159 269 159 294 236.5 c 128,-1,60
 319 314 319 314 319 355 c 0,61,62
 319 369 319 369 316 377 c 1,42,-1
EndSplineSet
EndChar

StartChar: c
Encoding: 99 99 68
Width: 700
Flags: W
LayerCount: 2
Fore
SplineSet
886 117 m 1,0,-1
 664 10 l 1,1,2
 608 -15 608 -15 458 -15 c 0,3,4
 265 -15 265 -15 152 36 c 0,5,6
 8 102 8 102 8 249 c 0,7,8
 8 274 8 274 52 343 c 0,9,10
 109 433 109 433 187 490 c 0,11,12
 293 567 293 567 418 567 c 0,13,14
 441 567 441 567 486 548 c 0,15,16
 525 533 525 533 550 514 c 1,17,-1
 550 474 l 1,18,-1
 524 471 l 1,19,-1
 468 472 l 1,20,-1
 391 474 l 1,21,22
 273 474 273 474 187 401.5 c 128,-1,23
 101 329 101 329 101 236 c 0,24,25
 101 171 101 171 211 106 c 0,26,27
 306 51 306 51 444 51 c 0,28,29
 544 51 544 51 630 81 c 0,30,31
 690 102 690 102 742 139 c 1,32,-1
 780 170 l 1,33,34
 784 167 784 167 787 166 c 0,35,36
 800 159 800 159 809 153 c 0,37,38
 837 137 837 137 886 117 c 1,0,-1
EndSplineSet
EndChar

StartChar: d
Encoding: 100 100 69
Width: 497
Flags: W
LayerCount: 2
Fore
SplineSet
550 70 m 1,0,1
 526 26 526 26 509 20 c 1,2,-1
 461 11 l 1,3,4
 429 36 429 36 402 117 c 0,5,6
 381 184 381 184 356 184 c 1,7,8
 301 117 301 117 232 66 c 0,9,10
 157 11 157 11 91 11 c 0,11,12
 43 11 43 11 13 53 c 1,13,14
 -15 97 -15 97 -15 164 c 0,15,16
 -15 218 -15 218 -5.5 315 c 128,-1,17
 4 412 4 412 22 441 c 0,18,19
 69 515 69 515 134 515 c 1,20,-1
 177 513 l 1,21,-1
 242 511 l 2,22,23
 286 511 286 511 322 515 c 1,24,25
 313 529 313 529 303.5 566.5 c 128,-1,26
 294 604 294 604 279 682.5 c 128,-1,27
 264 761 264 761 264 822 c 2,28,-1
 264 1091 l 2,29,30
 264 1108 264 1108 267 1115.5 c 128,-1,31
 270 1123 270 1123 292 1148 c 1,32,-1
 320 1148 l 1,33,34
 327 1112 327 1112 352 1037 c 128,-1,35
 377 962 377 962 389 906 c 0,36,37
 407 817 407 817 407 716 c 1,38,-1
 413 290 l 1,39,40
 430 220 430 220 444 188 c 0,41,42
 487 83 487 83 550 70 c 1,0,1
376 463 m 1,43,44
 379 471 379 471 372 588 c 128,-1,45
 365 705 365 705 358 834 c 1,46,47
 358 858 358 858 347 888 c 1,48,49
 338 921 338 921 319 950 c 1,50,-1
 318 942 l 1,51,-1
 315 898 l 1,52,-1
 315 877 l 1,53,-1
 319 844 l 1,54,55
 322 836 322 836 330 723 c 128,-1,56
 338 610 338 610 341 603 c 1,57,58
 349 569 349 569 356 537 c 0,59,60
 371 473 371 473 376 463 c 1,43,44
311 242 m 1,61,62
 313 248 313 248 318 274 c 0,63,64
 328 327 328 327 328 361 c 0,65,66
 328 389 328 389 322.5 407.5 c 128,-1,67
 317 426 317 426 305.5 429.5 c 128,-1,68
 294 433 294 433 281.5 434 c 128,-1,69
 269 435 269 435 260 435 c 2,70,-1
 241 435 l 2,71,-1
 215 435 l 1,72,73
 200 438 200 438 193 439 c 0,74,75
 175 442 175 442 150.5 433 c 128,-1,76
 126 424 126 424 101 401 c 0,77,78
 84 385 84 385 63 297 c 128,-1,79
 42 209 42 209 44 194 c 1,80,81
 44 173 44 173 45 149.5 c 128,-1,82
 46 126 46 126 53 109 c 0,83,84
 71 70 71 70 103 70 c 0,85,86
 155 70 155 70 238 156 c 0,87,88
 266 184 266 184 311 242 c 1,61,62
EndSplineSet
EndChar

StartChar: e
Encoding: 101 101 70
Width: 647
Flags: W
LayerCount: 2
Fore
SplineSet
730 33 m 1,0,1
 730 16 730 16 712 -5 c 0,2,3
 688 -32 688 -32 652 -32 c 0,4,5
 627 -32 627 -32 570.5 -23 c 128,-1,6
 514 -14 514 -14 420 5 c 0,7,8
 242 42 242 42 209 59 c 1,9,10
 99 111 99 111 58 145 c 0,11,12
 52 151 52 151 36 168 c 128,-1,13
 20 185 20 185 -2 213 c 1,14,-1
 -44 210 l 1,15,16
 -102 210 -102 210 -139 238 c 0,17,18
 -181 271 -181 271 -181 306 c 0,19,20
 -181 326 -181 326 -163.5 340 c 128,-1,21
 -146 354 -146 354 -116 358 c 1,22,-1
 -85 328 l 1,23,-1
 -64 309 l 1,24,-1
 14 306 l 1,25,26
 14 406 14 406 108 478 c 1,27,28
 177 529 177 529 304 568 c 0,29,30
 339 578 339 578 372 581 c 2,31,-1
 428 585 l 1,32,33
 522 585 522 585 593.5 542.5 c 128,-1,34
 665 500 665 500 665 436 c 0,35,36
 665 403 665 403 615 359 c 0,37,38
 557 308 557 308 453 273 c 0,39,40
 325 232 325 232 159 232 c 1,41,-1
 140 234 l 2,42,43
 127 234 127 234 126 227 c 0,44,45
 126 222 126 222 147 201 c 1,46,-1
 176 176 l 1,47,-1
 300 101 l 1,48,49
 387 71 387 71 521 71 c 0,50,51
 568 71 568 71 580 89 c 1,52,53
 593 112 593 112 639 124 c 1,54,-1
 678 124 l 1,55,-1
 730 33 l 1,0,1
574 417 m 1,56,57
 556 467 556 467 508 487 c 1,58,59
 469 501 469 501 379 501 c 0,60,61
 273 501 273 501 197 446 c 0,62,63
 127 396 127 396 79 293 c 1,64,65
 94 299 94 299 102 299 c 1,66,-1
 117 296 l 1,67,-1
 131 293 l 1,68,69
 255 293 255 293 408 333.5 c 128,-1,70
 561 374 561 374 574 417 c 1,56,57
EndSplineSet
EndChar

StartChar: f
Encoding: 102 102 71
Width: 530
Flags: W
LayerCount: 2
Fore
SplineSet
567 709 m 0,0,1
 567 682 567 682 547 656 c 0,2,3
 537 642 537 642 521 630.5 c 128,-1,4
 505 619 505 619 492 619 c 0,5,6
 483 619 483 619 474 627 c 128,-1,7
 465 635 465 635 465 654 c 1,8,-1
 467 673 l 1,9,-1
 469 686 l 1,10,11
 469 756 469 756 392 803 c 0,12,13
 359 824 359 824 330 833.5 c 128,-1,14
 301 843 301 843 271 843 c 0,15,16
 173 843 173 843 115 718 c 0,17,18
 94 673 94 673 88 644.5 c 128,-1,19
 82 616 82 616 71 567 c 1,20,21
 71 510 71 510 72 491 c 128,-1,22
 73 472 73 472 73 451 c 0,23,24
 73 408 73 408 80.5 380.5 c 128,-1,25
 88 353 88 353 97 325 c 1,26,27
 108 282 108 282 128 271 c 0,28,29
 139 265 139 265 174 265 c 0,30,31
 195 265 195 265 237 273 c 128,-1,32
 279 281 279 281 326 291 c 1,33,34
 418 300 418 300 435 316 c 1,35,-1
 460 291 l 1,36,37
 471 278 471 278 473 267 c 1,38,39
 473 244 473 244 460 229.5 c 128,-1,40
 447 215 447 215 415 215 c 1,41,42
 397 219 397 219 376.5 222 c 128,-1,43
 356 225 356 225 342 225 c 0,44,45
 325 225 325 225 310.5 223 c 128,-1,46
 296 221 296 221 272 215 c 1,47,-1
 173 197 l 2,48,49
 164 195 164 195 164 179 c 0,50,51
 164 153 164 153 187.5 93 c 128,-1,52
 211 33 211 33 248 -37 c 0,53,54
 290 -116 290 -116 292 -132 c 1,55,-1
 278 -147 l 1,56,57
 260 -162 260 -162 242 -162 c 0,58,59
 218 -162 218 -162 136.5 -104.5 c 128,-1,60
 55 -47 55 -47 -10 15 c 0,61,62
 -42 45 -42 45 -78 123 c 0,63,64
 -110 192 -110 192 -110 210 c 0,65,66
 -110 231 -110 231 -81.5 234.5 c 128,-1,67
 -53 238 -53 238 -42 239 c 128,-1,68
 -31 240 -31 240 -7 240 c 2,69,-1
 25 239 l 1,70,-1
 58 239 l 1,71,-1
 58 269 l 1,72,73
 50 284 50 284 47 284 c 1,74,75
 45 280 45 280 43.5 280 c 128,-1,76
 42 280 42 280 37 303 c 0,77,78
 16 396 16 396 16 498 c 0,79,80
 16 664 16 664 71 771 c 0,81,82
 137 902 137 902 271 902 c 0,83,84
 403 902 403 902 464 850 c 1,85,86
 517 781 517 781 547 754 c 0,87,88
 567 737 567 737 567 709 c 0,0,1
163 -36 m 1,89,90
 155 -1 155 -1 135 61 c 0,91,92
 112 133 112 133 104 143 c 0,93,94
 87 164 87 164 62 164 c 2,95,-1
 39 165 l 2,96,97
 35 165 35 165 10 162 c 128,-1,98
 -15 159 -15 159 -23 156 c 1,99,100
 23 94 23 94 56 52 c 128,-1,101
 89 10 89 10 102 0 c 0,102,103
 136 -25 136 -25 163 -36 c 1,89,90
EndSplineSet
EndChar

StartChar: g
Encoding: 103 103 72
Width: 546
Flags: W
LayerCount: 2
Fore
SplineSet
624 180 m 1,0,1
 590 160 590 160 576 160 c 0,2,3
 569 160 569 160 560 165.5 c 128,-1,4
 551 171 551 171 543 171 c 1,5,-1
 480 143 l 1,6,7
 416 109 416 109 416 90 c 1,8,9
 431 43 431 43 446 -30 c 128,-1,10
 461 -103 461 -103 461 -172 c 0,11,12
 461 -255 461 -255 433.5 -290 c 128,-1,13
 406 -325 406 -325 335 -325 c 0,14,15
 288 -325 288 -325 232 -224 c 0,16,17
 191 -150 191 -150 191 -55 c 0,18,19
 191 32 191 32 230 73 c 1,20,-1
 335 144 l 1,21,-1
 335 171 l 1,22,23
 263 185 263 185 223 193 c 128,-1,24
 183 201 183 201 120 215 c 1,25,26
 -7 260 -7 260 -7 396 c 0,27,28
 -7 507 -7 507 87 565 c 0,29,30
 164 612 164 612 281 612 c 0,31,32
 359 612 359 612 423.5 566 c 128,-1,33
 488 520 488 520 488 468 c 1,34,-1
 475 448 l 1,35,-1
 461 432 l 1,36,-1
 425 432 l 1,37,-1
 435 460 l 1,38,-1
 439 477 l 1,39,40
 439 484 439 484 434 483 c 1,41,-1
 425 477 l 1,42,43
 425 516 425 516 380 537 c 128,-1,44
 335 558 335 558 272 558 c 0,45,46
 159 558 159 558 100 513 c 0,47,48
 47 472 47 472 47 405 c 0,49,50
 47 339 47 339 99 290 c 0,51,52
 160 234 160 234 263 234 c 0,53,54
 293 234 293 234 302 237 c 0,55,56
 317 243 317 243 317 261 c 1,57,-1
 308 323 l 1,58,59
 298 406 298 406 298 439 c 0,60,61
 298 473 298 473 301.5 487.5 c 128,-1,62
 305 502 305 502 317 504 c 1,63,64
 367 504 367 504 377 386 c 0,65,66
 380 351 380 351 380 261 c 0,67,68
 380 213 380 213 392 195 c 128,-1,69
 404 177 404 177 423 177 c 0,70,71
 435 177 435 177 444 181 c 2,72,-1
 461 189 l 1,73,-1
 530 189 l 2,74,75
 577 189 577 189 624 180 c 1,0,1
416 -217 m 0,76,77
 416 -137 416 -137 387 -35 c 1,78,-1
 353 72 l 1,79,80
 311 60 311 60 278 19.5 c 128,-1,81
 245 -21 245 -21 245 -73 c 0,82,83
 245 -141 245 -141 296 -212 c 0,84,85
 340 -271 340 -271 362 -271 c 0,86,87
 376 -271 376 -271 396 -253.5 c 128,-1,88
 416 -236 416 -236 416 -217 c 0,76,77
EndSplineSet
EndChar

StartChar: h
Encoding: 104 104 73
Width: 392
Flags: W
LayerCount: 2
Fore
SplineSet
424 -37 m 1,0,1
 392 -52 392 -52 371 -65 c 2,2,-1
 344 -81 l 1,3,4
 290 -81 290 -81 265 -2 c 0,5,6
 257 24 257 24 244 102 c 0,7,8
 222 236 222 236 212 246 c 1,9,10
 194 233 194 233 158 180 c 1,11,12
 131 107 131 107 109 58 c 128,-1,13
 87 9 87 9 68 -1 c 1,14,15
 59 22 59 22 53 54 c 0,16,17
 49 85 49 85 48.5 96 c 128,-1,18
 48 107 48 107 48 114 c 0,19,20
 48 150 48 150 42 189 c 1,21,22
 44 201 44 201 44 207 c 0,23,24
 44 211 44 211 42 220 c 128,-1,25
 40 229 40 229 33 247 c 1,26,-1
 13 363 l 1,27,-1
 -26 590 l 1,28,-1
 -47 717 l 1,29,-1
 -53 746 l 1,30,-1
 -60 778 l 1,31,32
 -60 791 -60 791 -55 804 c 0,33,34
 -52 816 -52 816 -38 833 c 1,35,36
 1 824 1 824 16 763 c 1,37,38
 24 696 24 696 28 663 c 0,39,40
 36 601 36 601 51 496 c 1,41,42
 56 471 56 471 63.5 427 c 128,-1,43
 71 383 71 383 77 339 c 0,44,45
 91 236 91 236 91 174 c 0,46,47
 91 130 91 130 86 114 c 1,48,-1
 119 228 l 1,49,50
 135 260 135 260 148 276 c 0,51,52
 175 307 175 307 176 309 c 0,53,54
 186 324 186 324 197 339 c 0,55,56
 214 361 214 361 234 361 c 0,57,58
 267 361 267 361 281 295 c 1,59,60
 299 191 299 191 310 171 c 1,61,62
 335 103 335 103 353 64 c 0,63,64
 388 -10 388 -10 424 -10 c 1,65,-1
 424 -37 l 1,0,1
EndSplineSet
EndChar

StartChar: i
Encoding: 105 105 74
Width: 535
Flags: W
LayerCount: 2
Fore
SplineSet
216 863 m 0,0,1
 216 824 216 824 204 811.5 c 128,-1,2
 192 799 192 799 153 787 c 1,3,-1
 141 826 l 1,4,5
 135 856 135 856 135 878 c 0,6,7
 135 897 135 897 138.5 905.5 c 128,-1,8
 142 914 142 914 153 914 c 0,9,10
 188 914 188 914 202 905.5 c 128,-1,11
 216 897 216 897 216 863 c 0,0,1
611 271 m 1,12,-1
 610 261 l 1,13,14
 609 256 609 256 608 255 c 0,15,16
 608 167 608 167 490 104 c 0,17,18
 344 28 344 28 228 28 c 0,19,20
 148 28 148 28 120 68 c 0,21,22
 113 79 113 79 82 180 c 1,23,24
 70 177 70 177 52 165 c 2,25,-1
 38 154 l 1,26,-1
 -76 154 l 1,27,-1
 -76 217 l 1,28,29
 38 247 38 247 84 303 c 0,30,31
 112 339 112 339 129.5 422 c 128,-1,32
 147 505 147 505 172 548 c 1,33,-1
 236 523 l 2,34,35
 256 514 256 514 286 485 c 1,36,37
 237 424 237 424 207 344.5 c 128,-1,38
 177 265 177 265 177 192 c 0,39,40
 177 147 177 147 198 119 c 128,-1,41
 219 91 219 91 253 91 c 0,42,43
 273 91 273 91 338 106 c 0,44,45
 438 129 438 129 497 164 c 0,46,47
 582 213 582 213 582 281 c 1,48,-1
 598 284 l 1,49,-1
 608 281 l 1,50,51
 611 278 611 278 611 271 c 1,12,-1
EndSplineSet
EndChar

StartChar: j
Encoding: 106 106 75
Width: 372
Flags: W
LayerCount: 2
Fore
SplineSet
217 688 m 1,0,-1
 207 687 l 1,1,-1
 198 687 l 1,2,-1
 185 687 l 1,3,-1
 176 688 l 1,4,-1
 157 704 l 2,5,6
 139 720 139 720 138 727 c 0,7,8
 138 744 138 744 150 765.5 c 128,-1,9
 162 787 162 787 176 787 c 0,10,11
 184 787 184 787 199 769 c 1,12,-1
 217 738 l 1,13,-1
 217 688 l 1,0,-1
357 212 m 0,14,15
 357 202 357 202 345 178 c 1,16,-1
 334 153 l 1,17,18
 329 151 329 151 319.5 148.5 c 128,-1,19
 310 146 310 146 295 144 c 1,20,21
 256 144 256 144 256 133 c 0,22,23
 256 121 256 121 281 36 c 1,24,-1
 328 -127 l 1,25,26
 353 -224 353 -224 353 -251 c 0,27,28
 353 -272 353 -272 326 -293 c 0,29,30
 292 -318 292 -318 245 -318 c 0,31,32
 138 -318 138 -318 66 -215 c 0,33,34
 4 -124 4 -124 4 -11 c 0,35,36
 4 125 4 125 78 175 c 1,37,38
 120 205 120 205 194 205 c 1,39,-1
 194 443 l 2,40,41
 194 448 194 448 182 462 c 1,42,-1
 166 484 l 1,43,-1
 245 526 l 1,44,-1
 277 526 l 1,45,-1
 277 484 l 1,46,47
 269 467 269 467 264 427 c 128,-1,48
 259 387 259 387 259 357 c 1,49,-1
 253 254 l 1,50,-1
 253 201 l 1,51,-1
 294 214 l 2,52,53
 339 230 339 230 349 226 c 0,54,55
 356 223 356 223 357 212 c 0,14,15
302 -251 m 1,56,57
 302 -202 302 -202 280 -143 c 1,58,-1
 250 -58 l 1,59,-1
 230 39 l 1,60,61
 227 55 227 55 218 83 c 1,62,63
 212 108 212 108 205 121 c 0,64,65
 194 141 194 141 170 141 c 1,66,67
 123 135 123 135 93 102 c 1,68,69
 62 65 62 65 62 6 c 0,70,71
 62 -126 62 -126 120 -203 c 0,72,73
 175 -276 175 -276 262 -276 c 0,74,75
 280 -276 280 -276 295 -260 c 1,76,-1
 302 -251 l 1,56,57
EndSplineSet
EndChar

StartChar: k
Encoding: 107 107 76
Width: 504
Flags: W
LayerCount: 2
Fore
SplineSet
496 513 m 1,0,1
 496 441 496 441 423 374 c 1,2,-1
 294 268 l 1,3,4
 348 187 348 187 398 143 c 0,5,6
 464 86 464 86 464 77 c 1,7,-1
 463 56 l 1,8,-1
 463 41 l 1,9,-1
 464 24 l 1,10,-1
 400 24 l 1,11,-1
 209 215 l 1,12,13
 182 197 182 197 129.5 176.5 c 128,-1,14
 77 156 77 156 50 151 c 1,15,-1
 47 168 l 1,16,-1
 46 185 l 1,17,-1
 47 203 l 1,18,-1
 50 215 l 1,19,-1
 34 295 l 1,20,21
 18 391 18 391 18 438 c 0,22,23
 18 452 18 452 5 530 c 1,24,-1
 -21 692 l 1,25,26
 -35 792 -35 792 -35 821 c 1,27,-1
 -34 839 l 1,28,-1
 -33 856 l 1,29,-1
 -35 874 l 1,30,-1
 18 874 l 1,31,32
 39 841 39 841 53 693 c 1,33,-1
 71 417 l 1,34,35
 71 351 71 351 80.5 305.5 c 128,-1,36
 90 260 90 260 103 236 c 1,37,38
 197 266 197 266 285 339 c 1,39,-1
 407 456 l 1,40,41
 464 513 464 513 496 513 c 1,0,1
EndSplineSet
EndChar

StartChar: l
Encoding: 108 108 77
Width: 189
Flags: W
LayerCount: 2
Fore
SplineSet
177 32 m 1,0,-1
 170 16 l 1,1,2
 162 1 162 1 152 -1 c 1,3,4
 136 -1 136 -1 121 36 c 1,5,6
 108 74 108 74 88 165 c 1,7,-1
 45 376 l 1,8,-1
 14 532 l 1,9,10
 -4 634 -4 634 -4 770 c 1,11,-1
 -5 793 l 1,12,13
 -5 818 -5 818 1 834.5 c 128,-1,14
 7 851 7 851 29 851 c 0,15,16
 45 851 45 851 49 839.5 c 128,-1,17
 53 828 53 828 54 817.5 c 128,-1,18
 55 807 55 807 55 782 c 2,19,-1
 55 727 l 2,20,21
 55 685 55 685 56 648 c 128,-1,22
 57 611 57 611 61.5 564.5 c 128,-1,23
 66 518 66 518 78 442 c 1,24,-1
 103 340 l 1,25,-1
 151 146 l 1,26,-1
 177 32 l 1,0,-1
EndSplineSet
EndChar

StartChar: m
Encoding: 109 109 78
Width: 1000
Flags: W
LayerCount: 2
Fore
SplineSet
1083 -29 m 1,0,-1
 1021 -46 l 2,1,2
 958 -62 958 -62 947 -59 c 0,3,4
 937 -56 937 -56 896 -4 c 0,5,6
 845 58 845 58 801 134 c 0,7,8
 748 229 748 229 736 317 c 1,9,-1
 706 317 l 1,10,-1
 644 250 l 1,11,12
 638 242 638 242 636 228 c 1,13,14
 609 183 609 183 589 160 c 0,15,16
 526 91 526 91 450 91 c 1,17,18
 400 155 400 155 387 183 c 128,-1,19
 374 211 374 211 374 254 c 2,20,-1
 374 283 l 1,21,-1
 375 317 l 1,22,-1
 344 317 l 1,23,24
 309 277 309 277 269 190 c 0,25,26
 225 94 225 94 204 69 c 0,27,28
 160 16 160 16 88 16 c 0,29,30
 50 16 50 16 25 105 c 0,31,32
 11 156 11 156 4 226 c 128,-1,33
 -3 296 -3 296 -3 393 c 0,34,35
 -3 519 -3 519 6 576 c 0,36,37
 20 664 20 664 58 664 c 0,38,39
 94 664 94 664 109 640 c 0,40,41
 118 625 118 625 118 593 c 2,42,-1
 118 573 l 1,43,-1
 105 423 l 1,44,-1
 100 302 l 1,45,-1
 103 210 l 1,46,47
 103 192 103 192 106 179 c 128,-1,48
 109 166 109 166 118 136 c 1,49,-1
 149 136 l 1,50,51
 212 174 212 174 239 276 c 0,52,53
 249 314 249 314 270 472 c 0,54,55
 285 597 285 597 314 649 c 1,56,57
 391 628 391 628 425 517 c 0,58,59
 430 498 430 498 460 321 c 1,60,61
 475 218 475 218 510 212 c 1,62,63
 558 239 558 239 615 350 c 0,64,65
 676 470 676 470 676 558 c 0,66,67
 676 570 676 570 698 579.5 c 128,-1,68
 720 589 720 589 736 589 c 0,69,70
 777 589 777 589 801 468 c 1,71,72
 832 295 832 295 864 227 c 0,73,74
 931 85 931 85 1083 46 c 1,75,-1
 1083 -29 l 1,0,-1
EndSplineSet
EndChar

StartChar: n
Encoding: 110 110 79
Width: 680
Flags: W
LayerCount: 2
Fore
SplineSet
670 83 m 1,0,1
 670 54 670 54 646.5 37.5 c 128,-1,2
 623 21 623 21 593 21 c 0,3,4
 557 21 557 21 510 86 c 1,5,-1
 430 220 l 2,6,7
 381 303 381 303 343 332 c 1,8,9
 310 221 310 221 273 151 c 0,10,11
 227 60 227 60 157 -11 c 1,12,-1
 110 -11 l 1,13,14
 75 76 75 76 59 219 c 0,15,16
 38 401 38 401 32 430 c 0,17,18
 11 530 11 530 -46 566 c 1,19,-1
 -22 632 l 1,20,21
 -15 648 -15 648 -12 653.5 c 128,-1,22
 -9 659 -9 659 1 675 c 1,23,24
 63 645 63 645 91 544 c 0,25,26
 102 503 102 503 122 341 c 0,27,28
 137 207 137 207 164 145 c 1,29,30
 214 169 214 169 255 250 c 0,31,32
 312 366 312 366 312 550 c 1,33,-1
 359 550 l 1,34,-1
 670 83 l 1,0,1
EndSplineSet
EndChar

StartChar: o
Encoding: 111 111 80
Width: 763
Flags: W
LayerCount: 2
Fore
SplineSet
764 185 m 1,0,1
 764 110 764 110 688 64 c 0,2,3
 628 29 628 29 518 11 c 0,4,5
 437 -1 437 -1 338 -1 c 0,6,7
 212 -1 212 -1 107 65 c 0,8,9
 -2 135 -2 135 -2 226 c 0,10,11
 -2 250 -2 250 7 277 c 1,12,13
 45 376 45 376 64 400 c 0,14,15
 126 480 126 480 281 522 c 1,16,-1
 292 553 l 2,17,18
 298 570 298 570 314 594 c 1,19,20
 346 581 346 581 384 559.5 c 128,-1,21
 422 538 422 538 474 502.5 c 128,-1,22
 526 467 526 467 572.5 431 c 128,-1,23
 619 395 619 395 659 358 c 0,24,25
 749 274 749 274 761 220 c 1,26,-1
 764 185 l 1,0,1
697 144 m 1,27,28
 697 194 697 194 616 269 c 1,29,30
 563 316 563 316 465 379 c 0,31,32
 427 403 427 403 396 420 c 0,33,34
 391 423 391 423 384 427 c 1,35,36
 384 388 384 388 366 367 c 0,37,38
 340 337 340 337 277 337 c 0,39,40
 252 337 252 337 243 342 c 128,-1,41
 234 347 234 347 216 373 c 1,42,43
 158 351 158 351 116 282 c 0,44,45
 103 260 103 260 86 218 c 1,46,47
 86 136 86 136 201 88 c 0,48,49
 244 71 244 71 294.5 61 c 128,-1,50
 345 51 345 51 396 51 c 0,51,52
 542 51 542 51 604 69 c 128,-1,53
 666 87 666 87 697 144 c 1,27,28
EndSplineSet
EndChar

StartChar: p
Encoding: 112 112 81
Width: 480
Flags: W
LayerCount: 2
Fore
SplineSet
462 313 m 0,0,1
 462 250 462 250 409 209 c 0,2,3
 352 164 352 164 253 164 c 0,4,5
 230 164 230 164 199 170 c 128,-1,6
 168 176 168 176 155 176 c 1,7,-1
 131 173 l 1,8,-1
 104 164 l 1,9,-1
 104 124 l 1,10,-1
 128 -3 l 1,11,-1
 153 -144 l 1,12,-1
 175 -229 l 1,13,14
 175 -242 175 -242 173 -250 c 1,15,-1
 177 -254 l 1,16,-1
 182 -264 l 1,17,18
 182 -271 182 -271 167.5 -277 c 128,-1,19
 153 -283 153 -283 114 -283 c 1,20,21
 107 -276 107 -276 102 -270.5 c 128,-1,22
 97 -265 97 -265 86 -249 c 0,23,24
 55 -205 55 -205 33 -143 c 0,25,26
 4 -58 4 -58 4 35 c 2,27,-1
 4 124 l 2,28,29
 4 329 4 329 20 405 c 0,30,31
 55 572 55 572 173 572 c 0,32,33
 264 572 264 572 360 489 c 0,34,35
 462 402 462 402 462 313 c 0,0,1
392 303 m 0,36,37
 392 372 392 372 313 433 c 0,38,39
 246 483 246 483 183 492 c 1,40,-1
 114 468 l 1,41,42
 106 436 106 436 106 416 c 1,43,-1
 111 340 l 1,44,-1
 114 263 l 1,45,-1
 193 245 l 2,46,47
 237 234 237 234 283 234 c 0,48,49
 348 234 348 234 370 246 c 128,-1,50
 392 258 392 258 392 303 c 0,36,37
EndSplineSet
EndChar

StartChar: q
Encoding: 113 113 82
Width: 532
Flags: W
LayerCount: 2
Fore
SplineSet
558 -340 m 1,0,1
 516 -340 516 -340 501 -329 c 128,-1,2
 486 -318 486 -318 486 -297 c 1,3,-1
 489 -270 l 1,4,-1
 497 -239 l 1,5,-1
 447 164 l 1,6,7
 390 164 390 164 360 155 c 0,8,9
 285 133 285 133 266 133 c 0,10,11
 160 133 160 133 92 165 c 1,12,13
 4 204 4 204 4 285 c 0,14,15
 4 357 4 357 66 440 c 0,16,17
 147 547 147 547 276 547 c 0,18,19
 323 547 323 547 361 531 c 1,20,-1
 427 496 l 1,21,-1
 467 526 l 1,22,23
 491 503 491 503 500.5 472 c 128,-1,24
 510 441 510 441 510 394 c 1,25,-1
 509 317 l 1,26,-1
 509 293 l 2,27,28
 509 280 509 280 509 268 c 1,29,30
 507 258 507 258 507 254 c 0,31,32
 507 162 507 162 519.5 43 c 128,-1,33
 532 -76 532 -76 533.5 -87.5 c 128,-1,34
 535 -99 535 -99 546.5 -194.5 c 128,-1,35
 558 -290 558 -290 558 -340 c 1,0,1
427 244 m 1,36,-1
 427 325 l 1,37,-1
 413 326 l 1,38,-1
 403 326 l 1,39,-1
 374 325 l 1,40,-1
 356 325 l 1,41,42
 356 354 356 354 371 384 c 1,43,-1
 386 405 l 1,44,45
 386 444 386 444 324 468 c 0,46,47
 279 486 279 486 245 486 c 0,48,49
 195 486 195 486 132 411 c 1,50,51
 74 339 74 339 74 295 c 0,52,53
 74 244 74 244 141 210 c 0,54,55
 195 184 195 184 245 184 c 0,56,57
 285 184 285 184 312.5 192.5 c 128,-1,58
 340 201 340 201 427 244 c 1,36,-1
EndSplineSet
EndChar

StartChar: r
Encoding: 114 114 83
Width: 470
Flags: W
LayerCount: 2
Fore
SplineSet
496 522 m 1,0,1
 457 514 457 514 431 499 c 0,2,3
 410 487 410 487 394 487 c 0,4,5
 375 487 375 487 360.5 515.5 c 128,-1,6
 346 544 346 544 327 544 c 0,7,8
 280 544 280 544 221 458 c 0,9,10
 158 365 158 365 158 268 c 0,11,12
 158 232 158 232 170 194 c 1,13,-1
 170 -8 l 1,14,-1
 113 -8 l 2,15,16
 92 -8 92 -8 56 88 c 0,17,18
 12 209 12 209 12 352 c 1,19,-1
 11 389 l 1,20,-1
 10 420 l 1,21,22
 10 452 10 452 18.5 469 c 128,-1,23
 27 486 27 486 57 510 c 1,24,-1
 90 510 l 1,25,-1
 96 484 l 1,26,-1
 97 460 l 1,27,28
 97 452 97 452 97 445 c 1,29,30
 94 433 94 433 93 427 c 2,31,-1
 89 401 l 1,32,33
 89 386 89 386 102 364 c 1,34,35
 156 500 156 500 230 567 c 0,36,37
 291 622 291 622 361 622 c 1,38,-1
 410 603 l 2,39,40
 455 586 455 586 496 578 c 1,41,-1
 496 522 l 1,0,1
EndSplineSet
EndChar

StartChar: s
Encoding: 115 115 84
Width: 693
Flags: W
LayerCount: 2
Fore
SplineSet
709 112 m 0,0,1
 709 88 709 88 663 52 c 0,2,3
 607 8 607 8 536 8 c 2,4,-1
 282 8 l 1,5,6
 179 20 179 20 126 29 c 0,7,8
 -30 56 -30 56 -30 88 c 0,9,10
 -30 114 -30 114 1 138 c 1,11,-1
 132 203 l 1,12,-1
 179 203 l 1,13,-1
 179 169 l 1,14,15
 130 147 130 147 121 140 c 1,16,-1
 98 118 l 1,17,18
 122 94 122 94 204 73 c 1,19,20
 245 64 245 64 292.5 59 c 128,-1,21
 340 54 340 54 398 54 c 0,22,23
 428 54 428 54 440 55 c 128,-1,24
 452 56 452 56 493 63 c 0,25,26
 595 78 595 78 629 112 c 1,27,28
 583 147 583 147 407 199 c 0,29,30
 211 256 211 256 137 298 c 0,31,32
 6 370 6 370 6 481 c 0,33,34
 6 561 6 561 50 583 c 0,35,36
 78 596 78 596 167 596 c 0,37,38
 232 596 232 596 261.5 589.5 c 128,-1,39
 291 583 291 583 316 561 c 1,40,-1
 316 526 l 1,41,42
 265 505 265 505 250 505 c 0,43,44
 244 505 244 505 241 515 c 1,45,46
 240 525 240 525 224 526 c 1,47,-1
 155 501 l 1,48,49
 86 474 86 474 85 458 c 0,50,51
 85 382 85 382 246 312 c 1,52,-1
 547 208 l 1,53,54
 709 154 709 154 709 112 c 0,0,1
EndSplineSet
EndChar

StartChar: t
Encoding: 116 116 85
Width: 339
Flags: W
LayerCount: 2
Fore
SplineSet
440 358 m 2,0,-1
 440 347 l 2,1,2
 440 337 440 337 432 329 c 1,3,4
 425 318 425 318 422 313 c 0,5,6
 416 304 416 304 401 304 c 0,7,8
 398 304 398 304 386 306 c 1,9,10
 360 316 360 316 345 320 c 0,11,12
 295 335 295 335 266 335 c 0,13,14
 241 335 241 335 230 324 c 0,15,16
 226 320 226 320 224 297 c 128,-1,17
 222 274 222 274 222 239 c 0,18,19
 222 172 222 172 227 79 c 0,20,21
 228 46 228 46 233 -9 c 1,22,-1
 185 -9 l 1,23,24
 158 -3 158 -3 71 81 c 0,25,26
 41 110 41 110 15 183 c 0,27,28
 -24 292 -24 292 -24 343 c 0,29,30
 -24 382 -24 382 60 382 c 0,31,32
 145 382 145 382 145 417 c 0,33,34
 145 432 145 432 136 479.5 c 128,-1,35
 127 527 127 527 119 559 c 0,36,37
 92 669 92 669 92 684 c 1,38,-1
 -33 1030 l 1,39,-1
 -11 1062 l 1,40,41
 -2 1072 -2 1072 15 1073 c 0,42,43
 31 1073 31 1073 91.5 912 c 128,-1,44
 152 751 152 751 169 667 c 1,45,-1
 214 400 l 1,46,47
 221 394 221 394 258.5 386.5 c 128,-1,48
 296 379 296 379 323 379 c 0,49,50
 404 379 404 379 422 376 c 128,-1,51
 440 373 440 373 440 358 c 2,0,-1
168 66 m 1,52,53
 172 97 172 97 173 117 c 0,54,55
 178 177 178 177 178 223 c 0,56,57
 178 268 178 268 173.5 295.5 c 128,-1,58
 169 323 169 323 157.5 328 c 128,-1,59
 146 333 146 333 131.5 335 c 128,-1,60
 117 337 117 337 103 337 c 0,61,62
 77 337 77 337 53 331 c 128,-1,63
 29 325 29 325 29 321 c 0,64,65
 29 315 29 315 36 287 c 0,66,67
 40 269 40 269 45 251 c 0,68,69
 54 208 54 208 103 140 c 0,70,71
 147 79 147 79 168 66 c 1,52,53
EndSplineSet
EndChar

StartChar: u
Encoding: 117 117 86
Width: 567
Flags: W
LayerCount: 2
Fore
SplineSet
540 356 m 0,0,1
 540 221 540 221 458 117 c 0,2,3
 368 3 368 3 222 3 c 0,4,5
 130 3 130 3 64 106 c 0,6,7
 11 191 11 191 11 274 c 2,8,-1
 11 379 l 1,9,-1
 5 409 l 1,10,11
 2 429 2 429 0 447 c 128,-1,12
 -2 465 -2 465 -2 480 c 0,13,14
 -2 526 -2 526 8.5 563 c 128,-1,15
 19 600 19 600 46 627 c 1,16,-1
 57 628 l 1,17,-1
 73 629 l 1,18,-1
 97 626 l 1,19,20
 107 623 107 623 114 608 c 128,-1,21
 121 593 121 593 121 575 c 0,22,23
 121 560 121 560 118 542.5 c 128,-1,24
 115 525 115 525 107 501 c 0,25,26
 104 489 104 489 102.5 484 c 128,-1,27
 101 479 101 479 93 462 c 1,28,-1
 78 401 l 1,29,30
 69 356 69 356 69 344 c 0,31,32
 69 220 69 220 131 137 c 0,33,34
 187 62 187 62 281 62 c 0,35,36
 345 62 345 62 401 127 c 0,37,38
 469 204 469 204 469 320 c 0,39,40
 469 426 469 426 430 489 c 0,41,42
 411 521 411 521 411 544 c 0,43,44
 411 565 411 565 423 573 c 1,45,46
 435 579 435 579 458 579 c 0,47,48
 499 579 499 579 523 497 c 0,49,50
 540 434 540 434 540 356 c 0,0,1
EndSplineSet
EndChar

StartChar: v
Encoding: 118 118 87
Width: 546
Flags: W
LayerCount: 2
Fore
SplineSet
573 541 m 2,0,1
 573 519 573 519 543 463 c 1,2,-1
 460 314 l 1,3,-1
 435 230 l 1,4,5
 421 185 421 185 404.5 144.5 c 128,-1,6
 388 104 388 104 370 73 c 0,7,8
 324 -12 324 -12 284 -12 c 0,9,10
 261 -12 261 -12 239 31 c 0,11,12
 183 143 183 143 121 239 c 1,13,14
 103 269 103 269 11 378 c 0,15,16
 -55 458 -55 458 -55 490 c 0,17,18
 -55 500 -55 500 -29 526 c 1,19,20
 -5 553 -5 553 8 553 c 0,21,22
 29 553 29 553 79 473 c 2,23,-1
 180 311 l 1,24,25
 248 208 248 208 303 164 c 1,26,27
 377 238 377 238 416 360 c 1,28,-1
 458 532 l 1,29,30
 479 616 479 616 523 616 c 0,31,32
 553 616 553 616 565 594 c 0,33,34
 569 586 569 586 571 577 c 128,-1,35
 573 568 573 568 573 554 c 2,36,-1
 573 541 l 2,0,1
EndSplineSet
EndChar

StartChar: w
Encoding: 119 119 88
Width: 865
Flags: W
LayerCount: 2
Fore
SplineSet
921 650 m 1,0,-1
 878 500 l 1,1,-1
 836 364 l 1,2,3
 782 209 782 209 722 111 c 0,4,5
 638 -26 638 -26 556 -26 c 0,6,7
 532 -26 532 -26 511 5 c 1,8,9
 451 127 451 127 395 232 c 1,10,-1
 380 215 l 1,11,-1
 375 211 l 1,12,-1
 381 214 l 1,13,14
 384 205 384 205 384 199 c 0,15,16
 384 183 384 183 321 105 c 0,17,18
 248 17 248 17 202 17 c 0,19,20
 154 17 154 17 102 112 c 0,21,22
 65 180 65 180 28 291 c 1,23,-1
 -2 393 l 1,24,25
 -11 410 -11 410 -33 425 c 1,26,27
 -54 436 -54 436 -56 446 c 1,28,29
 -56 487 -56 487 -44 516 c 0,30,31
 -27 553 -27 553 9 553 c 0,32,33
 34 553 34 553 69.5 443.5 c 128,-1,34
 105 334 105 334 105 296 c 0,35,36
 105 275 105 275 137 208 c 0,37,38
 173 131 173 131 213 92 c 1,39,40
 301 165 301 165 325 280 c 1,41,-1
 336 448 l 1,42,43
 336 521 336 521 384 521 c 1,44,-1
 390 518 l 1,45,-1
 405 517 l 2,46,47
 412 517 412 517 420 517 c 1,48,49
 432 520 432 520 438 521 c 1,50,51
 438 508 438 508 442 476 c 128,-1,52
 446 444 446 444 455 392 c 0,53,54
 476 266 476 266 503 181 c 0,55,56
 539 70 539 70 578 70 c 0,57,58
 644 70 644 70 698 228 c 0,59,60
 707 254 707 254 726 330.5 c 128,-1,61
 745 407 745 407 772 523 c 0,62,63
 808 682 808 682 835 682 c 0,64,65
 846 682 846 682 856 672 c 0,66,67
 880 650 880 650 921 650 c 1,0,-1
EndSplineSet
EndChar

StartChar: x
Encoding: 120 120 89
Width: 581
Flags: W
LayerCount: 2
Fore
SplineSet
587 4 m 1,0,-1
 560 -23 l 1,1,-1
 550 -25 l 1,2,-1
 245 194 l 1,3,4
 229 194 229 194 128 84 c 0,5,6
 71 23 71 23 35 -6 c 1,7,-1
 -12 -6 l 1,8,9
 40 79 40 79 94 135 c 1,10,-1
 164 198 l 2,11,12
 188 219 188 219 188 241 c 1,13,-1
 116 355 l 1,14,15
 40 470 40 470 26 470 c 0,16,17
 19 470 19 470 9 465 c 2,18,-1
 -22 451 l 1,19,-1
 -22 479 l 1,20,21
 10 518 10 518 23 571 c 0,22,23
 31 603 31 603 54 603 c 0,24,25
 80 603 80 603 113 527 c 1,26,-1
 171 385 l 1,27,28
 210 308 210 308 254 308 c 1,29,-1
 415 444 l 2,30,31
 504 518 504 518 587 556 c 1,32,-1
 587 517 l 1,33,34
 489 419 489 419 412 358 c 0,35,36
 317 282 317 282 302 251 c 1,37,-1
 587 4 l 1,0,-1
EndSplineSet
EndChar

StartChar: y
Encoding: 121 121 90
Width: 380
Flags: W
LayerCount: 2
Fore
SplineSet
366 8 m 2,0,1
 366 -35 366 -35 351 -76 c 128,-1,2
 336 -117 336 -117 308 -160 c 0,3,4
 266 -228 266 -228 217 -253 c 0,5,6
 211 -255 211 -255 195 -258 c 128,-1,7
 179 -261 179 -261 155.5 -263.5 c 128,-1,8
 132 -266 132 -266 117 -267 c 128,-1,9
 102 -268 102 -268 69 -268 c 0,10,11
 9 -268 9 -268 -62 -250 c 0,12,13
 -152 -227 -152 -227 -152 -192 c 0,14,15
 -152 -182 -152 -182 -143 -171 c 1,16,-1
 -124 -154 l 1,17,-1
 -38 -153 l 1,18,19
 -22 -192 -22 -192 6.5 -202 c 128,-1,20
 35 -212 35 -212 100 -212 c 0,21,22
 213 -212 213 -212 261 -108 c 0,23,24
 293 -35 293 -35 293 88 c 0,25,26
 293 115 293 115 288.5 169 c 128,-1,27
 284 223 284 223 284 226 c 0,28,29
 284 268 284 268 277 300.5 c 128,-1,30
 270 333 270 333 257 362 c 1,31,32
 246 360 246 360 196.5 343.5 c 128,-1,33
 147 327 147 327 108 327 c 2,34,-1
 89 326 l 2,35,36
 56 326 56 326 40 345 c 0,37,38
 15 376 15 376 15 461 c 1,39,-1
 9 648 l 1,40,41
 21 668 21 668 39 668 c 0,42,43
 49 668 49 668 57 664 c 2,44,-1
 83 647 l 1,45,-1
 89 447 l 1,46,47
 89 416 89 416 98 403 c 128,-1,48
 107 390 107 390 131 390 c 0,49,50
 146 390 146 390 162 394 c 128,-1,51
 178 398 178 398 211 410 c 128,-1,52
 244 422 244 422 251 435 c 1,53,54
 253 446 253 446 253 504 c 128,-1,55
 253 562 253 562 254 622 c 1,56,57
 260 674 260 674 291 674 c 0,58,59
 315 674 315 674 333 585 c 0,60,61
 343 534 343 534 354.5 367.5 c 128,-1,62
 366 201 366 201 366 103 c 2,63,-1
 366 8 l 2,0,1
EndSplineSet
EndChar

StartChar: z
Encoding: 122 122 91
Width: 451
Flags: W
LayerCount: 2
Fore
SplineSet
751 255 m 1,0,1
 741 247 741 247 636 206 c 0,2,3
 505 156 505 156 456 132 c 0,4,5
 362 87 362 87 362 61 c 1,6,-1
 386 22 l 1,7,8
 410 -31 410 -31 410 -101 c 0,9,10
 410 -201 410 -201 330 -266 c 0,11,12
 234 -344 234 -344 134 -344 c 0,13,14
 60 -344 60 -344 34 -306 c 0,15,16
 20 -284 20 -284 20 -246 c 0,17,18
 20 -165 20 -165 99 -82 c 1,19,-1
 272 68 l 1,20,21
 272 91 272 91 209 142 c 1,22,-1
 92 223 l 1,23,24
 29 265 29 265 29 279 c 0,25,26
 29 294 29 294 106 343 c 128,-1,27
 183 392 183 392 183 458 c 0,28,29
 183 488 183 488 157.5 501.5 c 128,-1,30
 132 515 132 515 86 515 c 0,31,32
 4 515 4 515 -58.5 466.5 c 128,-1,33
 -121 418 -121 418 -149 418 c 2,34,-1
 -161 418 l 1,35,-1
 -174 419 l 1,36,-1
 -190 418 l 1,37,-1
 -190 475 l 1,38,-1
 -89 524 l 1,39,40
 -2 563 -2 563 86 563 c 0,41,42
 160 563 160 563 195 548 c 0,43,44
 239 528 239 528 239 475 c 0,45,46
 239 404 239 404 184 354.5 c 128,-1,47
 129 305 129 305 127 288 c 0,48,49
 127 272 127 272 182 241 c 0,50,51
 214 224 214 224 232 207 c 1,52,-1
 276 155 l 1,53,54
 317 109 317 109 336 109 c 1,55,-1
 391 140 l 2,56,57
 452 174 452 174 509 199 c 0,58,59
 585 231 585 231 629 231 c 1,60,-1
 689 248 l 1,61,62
 704 251 704 251 719 253 c 128,-1,63
 734 255 734 255 751 255 c 1,0,1
362 -110 m 0,64,65
 362 -90 362 -90 329 -37 c 0,66,67
 311 -7 311 -7 305 20 c 1,68,-1
 281 20 l 1,69,70
 263 -5 263 -5 193 -69 c 0,71,72
 86 -167 86 -167 86 -239 c 0,73,74
 86 -268 86 -268 98.5 -281.5 c 128,-1,75
 111 -295 111 -295 141 -295 c 0,76,77
 189 -295 189 -295 265 -249 c 0,78,79
 362 -190 362 -190 362 -110 c 0,64,65
EndSplineSet
EndChar

StartChar: braceleft
Encoding: 123 123 92
Width: 245
Flags: W
LayerCount: 2
Fore
SplineSet
221 800 m 1,0,1
 184 788 184 788 162 780.5 c 128,-1,2
 140 773 140 773 110 762 c 1,3,4
 33 721 33 721 33 622 c 0,5,6
 33 595 33 595 70.5 543 c 128,-1,7
 108 491 108 491 108 466 c 0,8,9
 108 433 108 433 88.5 394 c 128,-1,10
 69 355 69 355 33 327 c 1,11,-1
 72 289 l 2,12,13
 97 264 97 264 97 230 c 0,14,15
 97 206 97 206 76 137 c 0,16,17
 65 99 65 99 65 74 c 0,18,19
 65 36 65 36 76 26 c 0,20,21
 82 20 82 20 108 20 c 1,22,-1
 129 16 l 1,23,-1
 159 12 l 1,24,-1
 178 13 l 2,25,26
 185 13 185 13 199 20 c 1,27,28
 199 1 199 1 193 -7 c 1,29,-1
 188 -17 l 1,30,-1
 199 -33 l 1,31,-1
 146 -33 l 1,32,-1
 61 -22 l 1,33,34
 22 -10 22 -10 22 69 c 0,35,36
 22 109 22 109 43 160 c 0,37,38
 54 187 54 187 54 208 c 0,39,40
 54 253 54 253 14 271.5 c 128,-1,41
 -26 290 -26 290 -26 311 c 1,42,-1
 40 390 l 1,43,44
 70 428 70 428 70 456 c 0,45,46
 70 468 70 468 30 526 c 0,47,48
 10 556 10 556 0 581.5 c 128,-1,49
 -10 607 -10 607 -10 633 c 0,50,51
 -10 722 -10 722 75 783 c 0,52,53
 145 832 145 832 199 832 c 2,54,-1
 221 832 l 1,55,-1
 221 800 l 1,0,1
EndSplineSet
EndChar

StartChar: bar
Encoding: 124 124 93
Width: 168
Flags: W
LayerCount: 2
Fore
SplineSet
123 29 m 1,0,-1
 120 20 l 1,1,-1
 106 4 l 1,2,-1
 57 4 l 1,3,-1
 40 95 l 1,4,5
 41 100 41 100 43.5 105 c 128,-1,6
 46 110 46 110 48 113 c 2,7,-1
 57 128 l 1,8,-1
 57 646 l 1,9,-1
 52 649 l 2,10,11
 40 658 40 658 40 720 c 1,12,-1
 36 729 l 1,13,-1
 31 749 l 1,14,15
 31 761 31 761 40.5 769.5 c 128,-1,16
 50 778 50 778 73 778 c 0,17,18
 92 778 92 778 100.5 751.5 c 128,-1,19
 109 725 109 725 109 684 c 1,20,-1
 108 638 l 1,21,-1
 108 623 l 2,22,23
 108 616 108 616 108 610 c 0,24,25
 106 601 106 601 106 597 c 2,26,-1
 106 285 l 2,27,28
 106 228 106 228 107 184.5 c 128,-1,29
 108 141 108 141 111 109 c 1,30,-1
 123 29 l 1,0,-1
EndSplineSet
EndChar

StartChar: braceright
Encoding: 125 125 94
Width: 315
Flags: W
LayerCount: 2
Fore
SplineSet
285 21 m 0,0,1
 285 -27 285 -27 218 -51 c 0,2,3
 160 -71 160 -71 65 -71 c 0,4,5
 55 -71 55 -71 48 -66.5 c 128,-1,6
 41 -62 41 -62 39 -51 c 1,7,8
 39 -39 39 -39 49.5 -33 c 128,-1,9
 60 -27 60 -27 75 -25 c 1,10,-1
 131 -25 l 1,11,-1
 145 -25 l 1,12,-1
 156 -25 l 2,13,14
 196 -25 196 -25 209 -20 c 1,15,16
 249 -11 249 -11 249 26 c 0,17,18
 249 43 249 43 208 126 c 128,-1,19
 167 209 167 209 167 236 c 0,20,21
 167 267 167 267 191 321 c 0,22,23
 203 347 203 347 203 369 c 0,24,25
 203 384 203 384 177.5 403.5 c 128,-1,26
 152 423 152 423 152 441 c 0,27,28
 152 468 152 468 200.5 566 c 128,-1,29
 249 664 249 664 249 692 c 0,30,31
 249 755 249 755 212 785 c 1,32,-1
 131 830 l 1,33,34
 131 839 131 839 140 846.5 c 128,-1,35
 149 854 149 854 157 856 c 1,36,37
 201 848 201 848 221 836 c 0,38,39
 285 799 285 799 285 712 c 0,40,41
 285 678 285 678 275 646.5 c 128,-1,42
 265 615 265 615 241 576 c 0,43,44
 198 504 198 504 198 456 c 0,45,46
 198 433 198 433 233 415 c 1,47,48
 269 400 269 400 269 390 c 1,49,-1
 239 336 l 1,50,51
 224 304 224 304 216 280.5 c 128,-1,52
 208 257 208 257 208 241 c 0,53,54
 208 215 208 215 246.5 150.5 c 128,-1,55
 285 86 285 86 285 21 c 0,0,1
EndSplineSet
EndChar

StartChar: asciitilde
Encoding: 126 126 95
Width: 504
Flags: W
LayerCount: 2
Fore
SplineSet
490 464 m 1,0,-1
 440 363 l 1,1,2
 402 308 402 308 339 308 c 0,3,4
 285 308 285 308 223.5 364 c 128,-1,5
 162 420 162 420 129 420 c 0,6,7
 105 420 105 420 80 385 c 2,8,-1
 43 331 l 1,9,-1
 5 369 l 1,10,-1
 58 434 l 1,11,12
 94 475 94 475 129 475 c 0,13,14
 163 475 163 475 223.5 419 c 128,-1,15
 284 363 284 363 339 363 c 0,16,17
 390 363 390 363 417 427 c 1,18,-1
 440 488 l 1,19,-1
 490 464 l 1,0,-1
EndSplineSet
EndChar

StartChar: exclamdown
Encoding: 161 161 96
Width: 176
Flags: W
LayerCount: 2
Fore
SplineSet
117 852 m 1,0,1
 117 826 117 826 101 816 c 1,2,-1
 67 803 l 1,3,-1
 46 803 l 1,4,-1
 46 845 l 1,5,-1
 52 874 l 1,6,7
 56 881 56 881 74 881 c 0,8,9
 90 881 90 881 102.5 873.5 c 128,-1,10
 115 866 115 866 117 852 c 1,0,1
131 334 m 1,11,-1
 117 251 l 1,12,13
 114 220 114 220 112 188 c 128,-1,14
 110 156 110 156 110 122 c 1,15,-1
 111 92 l 1,16,-1
 112 47 l 1,17,18
 112 -19 112 -19 104.5 -40.5 c 128,-1,19
 97 -62 97 -62 81 -63 c 0,20,21
 64 -63 64 -63 52 -40 c 1,22,-1
 46 -17 l 1,23,-1
 88 444 l 1,24,-1
 53 638 l 1,25,26
 53 661 53 661 68 670 c 1,27,-1
 88 674 l 1,28,29
 108 674 108 674 120 646 c 0,30,31
 125 634 125 634 128 617.5 c 128,-1,32
 131 601 131 601 131 582 c 2,33,-1
 131 334 l 1,11,-1
EndSplineSet
EndChar

StartChar: cent
Encoding: 162 162 97
Width: 568
Flags: W
LayerCount: 2
Fore
SplineSet
644 96 m 1,0,1
 644 88 644 88 638 85 c 0,2,3
 607 68 607 68 482 53 c 2,4,-1
 245 26 l 1,5,6
 227 26 227 26 221 4 c 128,-1,7
 215 -18 215 -18 215 -65 c 2,8,-1
 215 -105 l 1,9,-1
 216 -151 l 1,10,-1
 220 -246 l 1,11,-1
 224 -340 l 1,12,-1
 224 -365 l 2,13,14
 224 -382 224 -382 216 -385 c 2,15,-1
 199 -389 l 1,16,-1
 183 -392 l 2,17,18
 176 -392 176 -392 169 -385 c 1,19,20
 161 -372 161 -372 149 -263 c 0,21,22
 145 -219 145 -219 142 -164 c 128,-1,23
 139 -109 139 -109 139 -68 c 0,24,25
 139 -12 139 -12 145 14 c 1,26,27
 59 14 59 14 29 32 c 0,28,29
 -7 55 -7 55 -7 131 c 0,30,31
 -7 186 -7 186 42.5 270 c 128,-1,32
 92 354 92 354 146 389 c 0,33,34
 189 417 189 417 207 453 c 0,35,36
 215 469 215 469 217.5 484 c 128,-1,37
 220 499 220 499 220 514 c 0,38,39
 220 533 220 533 218 543 c 1,40,-1
 215 574 l 1,41,42
 215 591 215 591 224.5 600 c 128,-1,43
 234 609 234 609 263 609 c 0,44,45
 277 609 277 609 285.5 591.5 c 128,-1,46
 294 574 294 574 294 547 c 0,47,48
 294 506 294 506 281 464 c 1,49,-1
 350 465 l 1,50,-1
 411 469 l 1,51,52
 439 469 439 469 451.5 457 c 128,-1,53
 464 445 464 445 486 389 c 1,54,55
 450 376 450 376 414 368 c 0,56,57
 397 365 397 365 382 363 c 128,-1,58
 367 361 367 361 355 361 c 0,59,60
 325 361 325 361 310 366 c 2,61,-1
 279 376 l 1,62,63
 269 376 269 376 263 338 c 1,64,-1
 240 167 l 1,65,-1
 240 97 l 1,66,67
 247 97 247 97 263 98 c 128,-1,68
 279 99 279 99 302 102 c 2,69,-1
 377 110 l 2,70,71
 406 113 406 113 439.5 140 c 128,-1,72
 473 167 473 167 533 167 c 0,73,74
 586 167 586 167 608 155.5 c 128,-1,75
 630 144 630 144 638 119 c 1,76,-1
 644 96 l 1,0,1
169 97 m 1,77,-1
 159 130 l 1,78,-1
 157 162 l 1,79,-1
 165 230 l 1,80,-1
 169 290 l 1,81,-1
 110 233 l 1,82,83
 75 193 75 193 75 131 c 2,84,-1
 75 97 l 1,85,-1
 169 97 l 1,77,-1
EndSplineSet
EndChar

StartChar: sterling
Encoding: 163 163 98
Width: 435
Flags: W
LayerCount: 2
Fore
SplineSet
407 49 m 1,0,-1
 386 24 l 1,1,-1
 356 3 l 1,2,-1
 179 3 l 1,3,-1
 149 -8 l 2,4,5
 114 -19 114 -19 99 -19 c 2,6,-1
 90 -20 l 1,7,-1
 72 -21 l 1,8,-1
 59 -21 l 1,9,-1
 32 -19 l 1,10,-1
 37 3 l 1,11,-1
 40 20 l 1,12,13
 40 26 40 26 32 25 c 1,14,15
 50 35 50 35 57 66 c 0,16,17
 69 117 69 117 69 216 c 2,18,-1
 69 244 l 2,19,20
 69 328 69 328 56.5 356.5 c 128,-1,21
 44 385 44 385 18 385 c 2,22,-1
 -12 385 l 1,23,-1
 -13 398 l 1,24,-1
 -13 409 l 1,25,-1
 -12 426 l 1,26,-1
 -12 444 l 1,27,-1
 12 443 l 1,28,-1
 33 443 l 2,29,30
 53 443 53 443 58.5 447.5 c 128,-1,31
 64 452 64 452 64 472 c 1,32,-1
 63 515 l 1,33,-1
 62 561 l 1,34,-1
 62 627 l 1,35,36
 90 699 90 699 108 733 c 0,37,38
 165 840 165 840 216 840 c 0,39,40
 245 840 245 840 273 784 c 0,41,42
 297 736 297 736 297 708 c 1,43,-1
 294 694 l 1,44,-1
 297 679 l 1,45,-1
 253 679 l 1,46,47
 253 700 253 700 241 742 c 0,48,49
 226 796 226 796 209 796 c 1,50,51
 177 775 177 775 161 750 c 0,52,53
 113 678 113 678 113 547 c 1,54,-1
 109 539 l 1,55,56
 106 530 106 530 104 509 c 1,57,-1
 105 485 l 1,58,59
 105 477 105 477 113 458 c 1,60,-1
 138 461 l 1,61,-1
 172 460 l 2,62,63
 196 460 196 460 209 458 c 1,64,65
 224 458 224 458 243 463 c 2,66,-1
 270 469 l 1,67,68
 282 469 282 469 293.5 460 c 128,-1,69
 305 451 305 451 315 429 c 1,70,71
 288 429 288 429 285 418 c 1,72,-1
 282 400 l 1,73,74
 274 403 274 403 242 406 c 2,75,-1
 192 409 l 2,76,77
 179 409 179 409 168 409 c 128,-1,78
 157 409 157 409 149 407 c 1,79,80
 135 407 135 407 113 400 c 1,81,82
 105 346 105 346 105 167 c 2,83,-1
 105 108 l 2,84,85
 105 66 105 66 113 40 c 1,86,-1
 213 55 l 1,87,-1
 263 60 l 2,88,89
 274 60 274 60 280 57 c 2,90,-1
 286 55 l 1,91,-1
 303 60 l 2,92,93
 327 66 327 66 345 66 c 256,94,95
 363 66 363 66 376.5 62.5 c 128,-1,96
 390 59 390 59 407 49 c 1,0,-1
EndSplineSet
EndChar

StartChar: currency
Encoding: 164 164 99
Width: 1000
Flags: W
LayerCount: 2
Fore
SplineSet
202 757 m 0,0,1
 202 740 202 740 197 725 c 2,2,-1
 194 717 l 1,3,4
 194 688 194 688 172 673 c 1,5,6
 154 663 154 663 126 663 c 0,7,8
 99 663 99 663 85 677 c 1,9,10
 73 692 73 692 73 717 c 0,11,12
 73 743 73 743 81.5 756 c 128,-1,13
 90 769 90 769 114 784 c 1,14,-1
 138 794 l 2,15,16
 146 797 146 797 162 799 c 1,17,18
 180 799 180 799 194 784 c 1,19,-1
 199 774 l 2,20,21
 202 768 202 768 202 757 c 0,0,1
174 717 m 1,22,-1
 171 731 l 1,23,24
 171 747 171 747 167 755 c 1,25,26
 165 763 165 763 159 767.5 c 128,-1,27
 153 772 153 772 144 774 c 1,28,29
 134 774 134 774 126 769 c 1,30,-1
 107 751 l 1,31,32
 96 738 96 738 96 724 c 0,33,34
 96 716 96 716 100 705 c 0,35,36
 108 682 108 682 128 682 c 1,37,-1
 145 685 l 2,38,39
 156 688 156 688 165 696 c 128,-1,40
 174 704 174 704 174 717 c 1,22,-1
EndSplineSet
EndChar

StartChar: yen
Encoding: 165 165 100
Width: 830
Flags: W
LayerCount: 2
Fore
SplineSet
850 210 m 1,0,1
 620 180 620 180 462 141 c 0,2,3
 444 137 444 137 418.5 132.5 c 128,-1,4
 393 128 393 128 382 128 c 1,5,6
 382 73 382 73 379 34.5 c 128,-1,7
 376 -4 376 -4 368 -35 c 1,8,-1
 361 -57 l 1,9,-1
 361 -69 l 2,10,11
 361 -111 361 -111 356 -130 c 1,12,13
 353 -153 353 -153 341 -170 c 1,14,-1
 272 -170 l 1,15,-1
 272 78 l 1,16,-1
 218 68 l 2,17,18
 190 64 190 64 157.5 61 c 128,-1,19
 125 58 125 58 100 58 c 0,20,-1
 66 58 l 1,21,22
 45 61 45 61 35 62 c 0,23,24
 7 67 7 67 -17 78 c 1,25,-1
 -17 128 l 1,26,27
 245 166 245 166 285 187 c 0,28,29
 305 198 305 198 341 293 c 1,30,-1
 272 293 l 1,31,-1
 192 273 l 2,32,33
 108 252 108 252 93 243 c 0,34,35
 87 240 87 240 83.5 245 c 128,-1,36
 80 250 80 250 80 262 c 0,37,38
 80 283 80 283 81 291.5 c 128,-1,39
 82 300 82 300 88 324 c 1,40,41
 88 332 88 332 93 342 c 1,42,43
 182 376 182 376 274 402 c 0,44,45
 298 408 298 408 323 415 c 0,46,47
 355 425 355 425 365 430 c 0,48,49
 391 441 391 441 391 462 c 0,50,51
 391 472 391 472 387 484 c 1,52,-1
 382 502 l 1,53,54
 366 514 366 514 318.5 521 c 128,-1,55
 271 528 271 528 216 528 c 2,56,-1
 175 527 l 1,57,-1
 148 526 l 1,58,-1
 105 570 l 2,59,60
 58 620 58 620 15 676 c 0,61,62
 -41 749 -41 749 -66 800 c 1,63,-1
 -70 814 l 1,64,65
 -70 820 -70 820 -56.5 837.5 c 128,-1,66
 -43 855 -43 855 -43 873 c 0,67,68
 -43 885 -43 885 -39 886 c 0,69,70
 -34 886 -34 886 11 814 c 0,71,72
 39 768 39 768 64 734.5 c 128,-1,73
 89 701 89 701 112 679 c 0,74,75
 185 606 185 606 259 606 c 0,76,77
 354 606 354 606 425 663 c 0,78,79
 466 696 466 696 514 775 c 0,80,81
 555 843 555 843 575 855 c 0,82,83
 587 861 587 861 596 861 c 0,84,85
 606 861 606 861 617.5 854.5 c 128,-1,86
 629 848 629 848 629 821 c 0,87,88
 629 803 629 803 623 777 c 1,89,-1
 616 755 l 1,90,91
 586 708 586 708 552 642 c 0,92,93
 506 549 506 549 493 483 c 1,94,-1
 553 476 l 1,95,-1
 602 474 l 1,96,-1
 645 475 l 1,97,-1
 682 480 l 1,98,99
 698 480 698 480 706 468 c 1,100,-1
 727 408 l 1,101,102
 640 399 640 399 614 389 c 0,103,104
 572 374 572 374 549 374 c 0,105,106
 538 374 538 374 483 351 c 2,107,-1
 424 326 l 1,108,-1
 424 243 l 1,109,-1
 534 243 l 1,110,-1
 660 276 l 1,111,-1
 795 309 l 1,112,-1
 804 307 l 1,113,-1
 815 306 l 1,114,-1
 837 309 l 1,115,-1
 850 210 l 1,0,1
EndSplineSet
EndChar

StartChar: brokenbar
Encoding: 166 166 101
Width: 138
Flags: W
LayerCount: 2
Fore
SplineSet
120 470 m 1,0,-1
 114 465 l 1,1,-1
 103 460 l 1,2,-1
 27 457 l 1,3,-1
 25 467 l 1,4,-1
 24 480 l 1,5,6
 24 504 24 504 26 516 c 1,7,-1
 30 551 l 1,8,-1
 31 640 l 1,9,-1
 31 731 l 1,10,-1
 30 758 l 1,11,-1
 37 785 l 1,12,-1
 46 811 l 1,13,14
 71 811 71 811 88.5 792.5 c 128,-1,15
 106 774 106 774 106 742 c 2,16,-1
 106 617 l 2,17,18
 106 568 106 568 110 533 c 1,19,-1
 120 470 l 1,0,-1
112 249 m 1,20,-1
 109 193 l 1,21,-1
 107 157 l 1,22,-1
 107 128 l 2,23,24
 107 116 107 116 107 105 c 1,25,26
 105 97 105 97 105 94 c 0,27,28
 105 33 105 33 95 21 c 1,29,-1
 37 27 l 1,30,-1
 20 37 l 1,31,-1
 25 129 l 1,32,-1
 28 217 l 1,33,-1
 28 342 l 2,34,35
 28 362 28 362 35 374.5 c 128,-1,36
 42 387 42 387 76 399 c 1,37,-1
 92 383 l 2,38,39
 100 374 100 374 105 366 c 0,40,41
 106 365 106 365 107 362 c 1,42,-1
 107 339 l 1,43,-1
 112 249 l 1,20,-1
EndSplineSet
EndChar

StartChar: section
Encoding: 167 167 102
Width: 301
Flags: W
LayerCount: 2
Fore
SplineSet
285 476 m 1,0,-1
 281 454 l 1,1,-1
 277 427 l 1,2,3
 277 408 277 408 255 373 c 0,4,5
 246 359 246 359 230.5 336.5 c 128,-1,6
 215 314 215 314 199 295 c 1,7,8
 222 267 222 267 238 238.5 c 128,-1,9
 254 210 254 210 254 177 c 0,10,11
 254 121 254 121 185 68 c 0,12,13
 105 8 105 8 30 -8 c 1,14,-1
 -22 -9 l 1,15,-1
 -21 26 l 1,16,17
 -6 46 -6 46 4 53.5 c 128,-1,18
 14 61 14 61 25 63 c 1,19,-1
 40 61 l 1,20,-1
 51 60 l 2,21,22
 94 60 94 60 144.5 100.5 c 128,-1,23
 195 141 195 141 195 172 c 0,24,25
 195 222 195 222 160 244 c 0,26,27
 136 259 136 259 99 259 c 2,28,-1
 84 258 l 1,29,-1
 74 257 l 2,30,31
 50 257 50 257 29 278 c 1,32,33
 10 300 10 300 10 324 c 2,34,-1
 10 343 l 2,35,-1
 10 357 l 0,36,37
 8 367 8 367 8 371 c 1,38,-1
 7 415 l 1,39,40
 7 441 7 441 37 473 c 0,41,42
 52 488 52 488 52 498 c 1,43,44
 24 526 24 526 -1.5 567 c 128,-1,45
 -27 608 -27 608 -27 647 c 0,46,47
 -27 698 -27 698 68 771 c 0,48,49
 137 823 137 823 216 823 c 2,50,-1
 233 822 l 2,51,52
 245 822 245 822 260 828 c 1,53,54
 260 817 260 817 267 793 c 1,55,-1
 271 775 l 1,56,57
 271 767 271 767 260 761 c 1,58,59
 214 751 214 751 186.5 745 c 128,-1,60
 159 739 159 739 117 729 c 1,61,62
 38 705 38 705 38 642 c 0,63,64
 38 618 38 618 63.5 576.5 c 128,-1,65
 89 535 89 535 105 529 c 1,66,67
 115 527 115 527 122.5 531 c 128,-1,68
 130 535 130 535 138 535 c 1,69,70
 226 515 226 515 257 502 c 0,71,72
 284 492 284 492 285 476 c 1,0,-1
212 409 m 0,73,74
 212 423 212 423 163 445 c 1,75,-1
 114 464 l 1,76,77
 107 464 107 464 93.5 449 c 128,-1,78
 80 434 80 434 78 422 c 1,79,80
 78 376 78 376 92 348.5 c 128,-1,81
 106 321 106 321 139 321 c 0,82,83
 167 321 167 321 192 358 c 0,84,85
 212 389 212 389 212 409 c 0,73,74
EndSplineSet
EndChar

StartChar: dieresis
Encoding: 168 168 103
Width: 600
Flags: W
LayerCount: 2
Fore
SplineSet
499 646 m 1,0,-1
 433 655 l 1,1,2
 410 664 410 664 410 705 c 0,3,4
 410 714 410 714 433 726 c 2,5,-1
 469 744 l 1,6,-1
 499 705 l 1,7,-1
 499 646 l 1,0,-1
224 714 m 1,8,-1
 189 713 l 1,9,-1
 175 713 l 1,10,-1
 165 714 l 1,11,12
 148 721 148 721 140 729 c 1,13,14
 135 737 135 737 135 754 c 0,15,16
 135 760 135 760 156.5 775.5 c 128,-1,17
 178 791 178 791 185 793 c 0,18,19
 189 793 189 793 193.5 791 c 128,-1,20
 198 789 198 789 210 780.5 c 128,-1,21
 222 772 222 772 224 763 c 1,22,-1
 223 748 l 1,23,-1
 222 733 l 1,24,25
 222 720 222 720 224 714 c 1,8,-1
EndSplineSet
EndChar

StartChar: copyright
Encoding: 169 169 104
Width: 600
Flags: W
LayerCount: 2
Fore
SplineSet
589 682 m 0,0,1
 589 641 589 641 576 624 c 1,2,3
 503 539 503 539 490 531 c 0,4,5
 407 482 407 482 213 482 c 0,6,7
 113 482 113 482 69 510 c 0,8,9
 42 527 42 527 28 555.5 c 128,-1,10
 14 584 14 584 14 626 c 2,11,-1
 14 674 l 1,12,-1
 50 740 l 1,13,14
 112 845 112 845 174 872 c 0,15,16
 205 886 205 886 285 886 c 2,17,-1
 330 887 l 2,18,19
 337 888 337 888 346.5 890 c 128,-1,20
 356 892 356 892 369 897 c 1,21,22
 375 905 375 905 384 913.5 c 128,-1,23
 393 922 393 922 401 927 c 0,24,25
 416 939 416 939 435 939 c 0,26,27
 467 939 467 939 511.5 898.5 c 128,-1,28
 556 858 556 858 571 804 c 1,29,-1
 583 746 l 1,30,31
 589 713 589 713 589 682 c 0,0,1
525 674 m 1,32,-1
 525 704 l 2,33,34
 525 754 525 754 515 794 c 0,35,36
 500 855 500 855 465 897 c 1,37,-1
 423 897 l 1,38,-1
 440 875 l 1,39,-1
 447 843 l 1,40,-1
 431 844 l 1,41,-1
 411 843 l 1,42,43
 405 855 405 855 387 861 c 1,44,-1
 363 855 l 1,45,-1
 345 858 l 1,46,-1
 315 861 l 1,47,48
 183 861 183 861 110 766 c 0,49,50
 56 695 56 695 56 620 c 0,51,52
 56 560 56 560 110 533 c 0,53,54
 154 512 154 512 243 512 c 0,55,56
 287 512 287 512 319 521 c 1,57,-1
 339 530 l 1,58,59
 403 530 403 530 434 540 c 0,60,61
 481 554 481 554 507 596 c 0,62,63
 516 611 516 611 521 632 c 1,64,-1
 525 674 l 1,32,-1
426 676 m 1,65,66
 416 677 416 677 415 666 c 0,67,68
 415 633 415 633 371 610 c 128,-1,69
 327 587 327 587 250 587 c 0,70,71
 226 587 226 587 207 592 c 128,-1,72
 188 597 188 597 167 610 c 0,73,74
 130 633 130 633 130 666 c 1,75,76
 155 711 155 711 176 732 c 0,77,78
 240 799 240 799 323 799 c 0,79,80
 335 799 335 799 339 792 c 1,81,-1
 343 774 l 1,82,83
 343 766 343 766 334.5 759 c 128,-1,84
 326 752 326 752 316 752 c 2,85,-1
 296 752 l 2,86,87
 266 752 266 752 225 724 c 0,88,89
 178 692 178 692 178 660 c 0,90,91
 178 637 178 637 203.5 628.5 c 128,-1,92
 229 620 229 620 264 620 c 0,93,94
 314 620 314 620 345 634 c 0,95,96
 384 651 384 651 409 693 c 1,97,-1
 424 678 l 1,98,-1
 426 676 l 1,65,66
EndSplineSet
EndChar

StartChar: ordfeminine
Encoding: 170 170 105
Width: 664
Flags: W
LayerCount: 2
Fore
SplineSet
594 311 m 0,0,1
 594 274 594 274 526 228 c 0,2,3
 507 214 507 214 457 191 c 1,4,5
 419 216 419 216 398 237 c 0,6,7
 336 297 336 297 321 375 c 1,8,-1
 305 375 l 1,9,10
 290 336 290 336 249.5 305.5 c 128,-1,11
 209 275 209 275 185 275 c 0,12,13
 151 275 151 275 126.5 313 c 128,-1,14
 102 351 102 351 102 404 c 0,15,16
 102 494 102 494 148 564 c 1,17,-1
 250 695 l 1,18,19
 250 713 250 713 230.5 732 c 128,-1,20
 211 751 211 751 185 751 c 1,21,-1
 140 742 l 1,22,-1
 108 739 l 1,23,-1
 82 742 l 1,24,25
 72 745 72 745 67 756 c 1,26,27
 61 765 61 765 61 773 c 0,28,29
 61 792 61 792 96 796 c 1,30,-1
 167 800 l 1,31,-1
 200 800 l 2,32,33
 271 800 271 800 303 722 c 0,34,35
 317 688 317 688 341.5 546 c 128,-1,36
 366 404 366 404 407 328 c 1,37,-1
 430 272 l 1,38,39
 448 246 448 246 473 246 c 0,40,41
 482 246 482 246 515.5 292.5 c 128,-1,42
 549 339 549 339 589 349 c 1,43,44
 592 337 592 337 593 331 c 128,-1,45
 594 325 594 325 594 311 c 0,0,1
729 157 m 1,46,-1
 84 72 l 1,47,48
 25 72 25 72 2 81 c 0,49,50
 -30 94 -30 94 -48 143 c 1,51,-1
 -1 143 l 1,52,-1
 44 129 l 1,53,-1
 75 126 l 1,54,-1
 97 127 l 1,55,-1
 111 129 l 1,56,-1
 129 128 l 2,57,58
 136 128 136 128 155 120 c 1,59,-1
 710 205 l 1,60,-1
 729 157 l 1,46,-1
297 553 m 0,61,62
 297 588 297 588 249 606 c 1,63,64
 218 615 218 615 186 525 c 0,65,66
 159 445 159 445 159 396 c 0,67,68
 159 362 159 362 162.5 353.5 c 128,-1,69
 166 345 166 345 191 332 c 1,70,-1
 231 377 l 2,71,72
 254 404 254 404 281 481 c 0,73,74
 297 529 297 529 297 553 c 0,61,62
EndSplineSet
EndChar

StartChar: guillemotleft
Encoding: 171 171 106
Width: 808
Flags: W
LayerCount: 2
Fore
SplineSet
801 189 m 256,0,1
 801 168 801 168 773 153 c 2,2,-1
 760 147 l 1,3,4
 744 158 744 158 737 163 c 0,5,6
 716 178 716 178 701 186 c 0,7,8
 625 229 625 229 512 263 c 2,9,-1
 358 308 l 2,10,11
 283 329 283 329 283 353 c 0,12,13
 283 378 283 378 364 452 c 1,14,15
 409 491 409 491 529 588 c 0,16,17
 631 669 631 669 662 699 c 1,18,-1
 711 699 l 1,19,-1
 711 666 l 1,20,-1
 626 600 l 1,21,22
 509 512 509 512 467 476 c 0,23,24
 382 403 382 403 382 378 c 0,25,26
 382 367 382 367 420 352 c 1,27,-1
 532 317 l 2,28,29
 584 301 584 301 627 285 c 128,-1,30
 670 269 670 269 719 246 c 1,31,-1
 789 216 l 2,32,33
 801 210 801 210 801 189 c 256,0,1
513 90 m 0,34,35
 513 61 513 61 485 42 c 1,36,-1
 472 35 l 1,37,38
 437 68 437 68 413 87 c 0,39,40
 334 148 334 148 234 189 c 1,41,-1
 70 249 l 1,42,43
 -5 278 -5 278 -5 308 c 0,44,45
 -5 342 -5 342 76 440 c 0,46,47
 122 495 122 495 241 621 c 0,48,49
 345 730 345 730 374 769 c 1,50,-1
 423 769 l 1,51,-1
 423 725 l 1,52,53
 417 718 417 718 412 713 c 0,54,55
 381 680 381 680 338 637 c 0,56,57
 228 527 228 527 179 471 c 0,58,59
 94 374 94 374 94 341 c 0,60,61
 94 325 94 325 132 307 c 1,62,-1
 244 261 l 2,63,64
 338 221 338 221 431 167 c 2,65,-1
 501 127 l 1,66,67
 513 118 513 118 513 90 c 0,34,35
EndSplineSet
EndChar

StartChar: minus
Encoding: 173 173 107
Width: 1000
Flags: W
LayerCount: 2
Fore
SplineSet
454 376 m 0,0,1
 457 355 457 355 399 345 c 2,2,-1
 350 338 l 1,3,-1
 166 305 l 1,4,-1
 63 284 l 1,5,-1
 16 269 l 1,6,-1
 0 276 l 1,7,-1
 -5 305 l 1,8,-1
 46 325 l 1,9,-1
 68 318 l 1,10,-1
 245 348 l 1,11,-1
 374 372 l 1,12,-1
 375 375 l 1,13,14
 380 383 380 383 416 390 c 1,15,-1
 422 394 l 1,16,-1
 435 398 l 1,17,18
 442 398 442 398 446.5 394 c 128,-1,19
 451 390 451 390 454 376 c 0,0,1
EndSplineSet
EndChar

StartChar: registered
Encoding: 174 174 108
Width: 530
Flags: W
LayerCount: 2
Fore
SplineSet
524 710 m 0,0,1
 524 603 524 603 383 517 c 0,2,3
 261 444 261 444 157 444 c 0,4,5
 66 444 66 444 20 503 c 0,6,7
 -19 554 -19 554 -19 638 c 0,8,9
 -19 736 -19 736 66 814 c 0,10,11
 161 900 161 900 308 900 c 1,12,-1
 330 896 l 1,13,-1
 351 893 l 1,14,15
 428 893 428 893 482 820 c 0,16,17
 524 761 524 761 524 710 c 0,0,1
488 704 m 0,18,19
 488 752 488 752 475.5 774.5 c 128,-1,20
 463 797 463 797 404 837 c 1,21,-1
 406 826 l 1,22,23
 405 820 405 820 404 819 c 2,24,-1
 392 819 l 2,25,26
 376 819 376 819 359 830 c 1,27,-1
 335 849 l 1,28,-1
 318 837 l 2,29,30
 310 831 310 831 302 831 c 0,31,32
 291 831 291 831 280 846 c 1,33,34
 271 861 271 861 266 861 c 0,35,36
 207 861 207 861 112.5 784.5 c 128,-1,37
 18 708 18 708 18 650 c 0,38,39
 18 580 18 580 47 531 c 0,40,41
 80 475 80 475 139 475 c 0,42,43
 225 475 225 475 344 536 c 0,44,45
 488 610 488 610 488 704 c 0,18,19
362 573 m 1,46,-1
 197 573 l 2,47,48
 182 573 182 573 182 556 c 0,49,50
 182 545 182 545 187 532 c 1,51,-1
 200 508 l 1,52,-1
 158 508 l 1,53,54
 158 521 158 521 144 552 c 1,55,56
 139 567 139 567 134 598 c 2,57,-1
 128 635 l 2,58,59
 122 673 122 673 118 681 c 1,60,-1
 118 717 l 1,61,62
 144 717 144 717 231 779 c 0,63,64
 272 808 272 808 299 808 c 2,65,-1
 314 808 l 1,66,67
 329 805 329 805 329 766 c 0,68,69
 329 733 329 733 284 682 c 128,-1,70
 239 631 239 631 239 615 c 0,71,72
 239 601 239 601 267 601 c 0,73,74
 277 601 277 601 288 601 c 1,75,76
 300 604 300 604 305 605 c 2,77,-1
 341 615 l 1,78,-1
 348 595 l 1,79,80
 351 585 351 585 362 573 c 1,46,-1
290 735 m 1,81,-1
 287 759 l 1,82,83
 239 741 239 741 206 713.5 c 128,-1,84
 173 686 173 686 167 654 c 0,85,86
 165 646 165 646 169 632.5 c 128,-1,87
 173 619 173 619 184 596 c 1,88,-1
 252 687 l 1,89,-1
 290 735 l 1,81,-1
EndSplineSet
EndChar

StartChar: degree
Encoding: 176 176 109
Width: 220
Flags: W
LayerCount: 2
Fore
SplineSet
202 757 m 0,0,1
 202 740 202 740 197 725 c 2,2,-1
 194 717 l 1,3,4
 194 688 194 688 172 673 c 1,5,6
 154 663 154 663 126 663 c 0,7,8
 99 663 99 663 85 677 c 1,9,10
 73 692 73 692 73 717 c 0,11,12
 73 743 73 743 81.5 756 c 128,-1,13
 90 769 90 769 114 784 c 1,14,-1
 138 794 l 2,15,16
 146 797 146 797 162 799 c 1,17,18
 180 799 180 799 194 784 c 1,19,-1
 199 774 l 2,20,21
 202 768 202 768 202 757 c 0,0,1
174 717 m 1,22,-1
 171 731 l 1,23,24
 171 747 171 747 167 755 c 1,25,26
 165 763 165 763 159 767.5 c 128,-1,27
 153 772 153 772 144 774 c 1,28,29
 134 774 134 774 126 769 c 1,30,-1
 107 751 l 1,31,32
 96 738 96 738 96 724 c 0,33,34
 96 716 96 716 100 705 c 0,35,36
 108 682 108 682 128 682 c 1,37,-1
 145 685 l 2,38,39
 156 688 156 688 165 696 c 128,-1,40
 174 704 174 704 174 717 c 1,22,-1
EndSplineSet
EndChar

StartChar: plusminus
Encoding: 177 177 110
Width: 805
Flags: W
LayerCount: 2
Fore
SplineSet
725 530 m 0,0,1
 725 520 725 520 715 519 c 2,2,-1
 474 519 l 1,3,-1
 374 519 l 1,4,-1
 375 428 l 1,5,-1
 380 271 l 1,6,7
 366 274 366 274 346 274 c 2,8,-1
 313 273 l 2,9,10
 306 273 306 273 302 271 c 1,11,12
 291 292 291 292 279 368 c 0,13,14
 275 398 275 398 272 433.5 c 128,-1,15
 269 469 269 469 269 493 c 1,16,17
 224 493 224 493 185 488 c 128,-1,18
 146 483 146 483 98 470 c 1,19,-1
 5 441 l 1,20,-1
 -4 435 l 1,21,22
 -9 441 -9 441 -10 446 c 1,23,-1
 -12 475 l 1,24,-1
 -11 502 l 1,25,-1
 -11 530 l 1,26,27
 223 575 223 575 276 575 c 1,28,29
 282 580 282 580 282 596 c 0,30,31
 282 605 282 605 281 618.5 c 128,-1,32
 280 632 280 632 277 647 c 1,33,-1
 264 742 l 1,34,35
 264 763 264 763 268.5 769 c 128,-1,36
 273 775 273 775 288 776 c 0,37,38
 302 776 302 776 316 771 c 2,39,-1
 322 768 l 1,40,41
 339 768 339 768 348 765 c 0,42,43
 374 756 374 756 374 729 c 1,44,-1
 379 664 l 1,45,-1
 384 593 l 1,46,47
 384 578 384 578 424 578 c 0,48,49
 452 578 452 578 538.5 590 c 128,-1,50
 625 602 625 602 656 602 c 0,51,52
 688 602 688 602 697 593 c 1,53,-1
 711 569 l 1,54,55
 723 546 723 546 725 530 c 0,0,1
845 153 m 1,56,57
 805 133 805 133 626 98 c 0,58,59
 496 74 496 74 327 46 c 1,60,-1
 165 22 l 1,61,62
 124 22 124 22 116 24 c 128,-1,63
 108 26 108 26 89.5 34 c 128,-1,64
 71 42 71 42 60 48 c 1,65,-1
 60 87 l 1,66,-1
 178 87 l 1,67,-1
 330 114 l 1,68,-1
 623 164 l 1,69,-1
 806 192 l 1,70,-1
 828 189 l 1,71,-1
 845 192 l 1,72,-1
 845 153 l 1,56,57
EndSplineSet
EndChar

StartChar: twosuperior
Encoding: 178 178 111
Width: 320
Flags: W
LayerCount: 2
Fore
SplineSet
288 676 m 2,0,1
 288 667 288 667 285 662 c 128,-1,2
 282 657 282 657 279 655 c 1,3,-1
 72 630 l 1,4,-1
 43 631 l 1,5,6
 13 636 13 636 13 651 c 1,7,8
 42 685 42 685 61.5 709 c 128,-1,9
 81 733 81 733 95 752 c 0,10,11
 178 864 178 864 178 913 c 0,12,13
 178 943 178 943 162 955.5 c 128,-1,14
 146 968 146 968 119 968 c 0,15,16
 79 968 79 968 51 951 c 1,17,-1
 34 951 l 1,18,-1
 34 972 l 1,19,20
 49 984 49 984 72 991 c 0,21,22
 85 994 85 994 95.5 996 c 128,-1,23
 106 998 106 998 119 998 c 0,24,25
 161 998 161 998 182 977 c 1,26,27
 199 958 199 958 199 926 c 0,28,29
 199 869 199 869 138 778 c 0,30,31
 95 713 95 713 51 672 c 1,32,-1
 51 660 l 1,33,-1
 72 660 l 2,34,35
 102 660 102 660 127 663 c 0,36,37
 162 669 162 669 179 671 c 0,38,39
 229 677 229 677 262 693 c 1,40,-1
 288 693 l 1,41,-1
 288 676 l 2,0,1
EndSplineSet
EndChar

StartChar: threesuperior
Encoding: 179 179 112
Width: 272
Flags: W
LayerCount: 2
Fore
SplineSet
260 696 m 1,0,1
 260 683 260 683 254.5 670.5 c 128,-1,2
 249 658 249 658 239 648 c 1,3,4
 219 632 219 632 203 624 c 128,-1,5
 187 616 187 616 157 616 c 0,6,7
 150 616 150 616 138 617 c 128,-1,8
 126 618 126 618 112 621 c 0,9,10
 66 629 66 629 11.5 659 c 128,-1,11
 -43 689 -43 689 -43 713 c 0,12,13
 -43 719 -43 719 -37 721 c 2,14,-1
 -27 722 l 1,15,16
 -8 697 -8 697 31 673 c 0,17,18
 68 652 68 652 137 638 c 1,19,-1
 164 635 l 1,20,21
 193 635 193 635 206.5 647.5 c 128,-1,22
 220 660 220 660 224 681 c 0,23,24
 228 708 228 708 202 743 c 0,25,26
 170 784 170 784 110 796 c 1,27,-1
 98 795 l 2,28,29
 82 795 82 795 72 797 c 128,-1,30
 62 799 62 799 50 806 c 1,31,-1
 130 872 l 2,32,33
 165 902 165 902 169 927 c 1,34,35
 169 937 169 937 163.5 944 c 128,-1,36
 158 951 158 951 152 952 c 0,37,38
 143 953 143 953 106 949 c 0,39,40
 19 937 19 937 15 914 c 1,41,-1
 20 903 l 1,42,-1
 31 882 l 1,43,-1
 13 885 l 1,44,45
 3 890 3 890 -5 898 c 0,46,47
 -17 910 -17 910 -17 920 c 1,48,49
 -13 924 -13 924 -11 926 c 0,50,51
 -4 933 -4 933 7 940 c 0,52,53
 66 977 66 977 130 977 c 1,54,-1
 165 974 l 2,55,56
 183 971 183 971 188.5 962 c 128,-1,57
 194 953 194 953 196 939 c 1,58,-1
 195 926 l 1,59,60
 192 904 192 904 153 872 c 128,-1,61
 114 840 114 840 104 822 c 1,62,-1
 133 813 l 1,63,-1
 149 810 l 1,64,65
 196 792 196 792 225 765 c 0,66,67
 246 744 246 744 256 718 c 1,68,-1
 260 696 l 1,0,1
EndSplineSet
EndChar

StartChar: acute
Encoding: 180 180 113
Width: 624
Flags: W
LayerCount: 2
Fore
SplineSet
545 896 m 1,0,-1
 542 884 l 1,1,-1
 539 876 l 1,2,3
 480 823 480 823 406.5 801.5 c 128,-1,4
 333 780 333 780 306 763 c 0,5,6
 239 723 239 723 146 603 c 0,7,8
 141 597 141 597 136 597 c 0,9,10
 126 597 126 597 117 616 c 0,11,12
 109 637 109 637 109 660 c 0,13,14
 109 671 109 671 113 684 c 0,15,16
 130 732 130 732 295.5 819.5 c 128,-1,17
 461 907 461 907 526 907 c 2,18,-1
 535 907 l 1,19,-1
 540 905 l 2,20,21
 543 903 543 903 545 896 c 1,0,-1
EndSplineSet
EndChar

StartChar: mu
Encoding: 181 181 114
Width: 665
Flags: W
LayerCount: 2
Fore
SplineSet
716 74 m 1,0,-1
 667 46 l 1,1,2
 606 17 606 17 562 17 c 2,3,-1
 535 18 l 1,4,-1
 516 24 l 2,5,6
 504 29 504 29 453 83 c 0,7,8
 433 105 433 105 407 129 c 0,9,10
 404 132 404 132 399 137 c 1,11,12
 375 101 375 101 341 64 c 0,13,14
 274 -9 274 -9 210 -9 c 0,15,16
 172 -9 172 -9 146 10 c 0,17,18
 134 18 134 18 96 74 c 1,19,20
 70 71 70 71 40 -15 c 1,21,-1
 -6 -171 l 1,22,23
 -32 -254 -32 -254 -52 -254 c 2,24,-1
 -77 -253 l 1,25,-1
 -88 -254 l 1,26,-1
 -100 -209 l 1,27,-1
 -57 -61 l 1,28,29
 -24 43 -24 43 14 110 c 0,30,31
 57 188 57 188 76 250 c 0,32,33
 88 291 88 291 88 329 c 1,34,-1
 87 348 l 1,35,-1
 87 363 l 2,36,37
 87 375 87 375 93 393 c 1,38,-1
 138 393 l 1,39,-1
 153 338 l 1,40,-1
 149 279 l 1,41,-1
 145 169 l 1,42,43
 145 131 145 131 149.5 114 c 128,-1,44
 154 97 154 97 171 78 c 0,45,46
 192 55 192 55 212 55 c 0,47,48
 287 55 287 55 320 126 c 0,49,50
 337 162 337 162 349 247 c 1,51,52
 358 328 358 328 374 329 c 0,53,54
 395 329 395 329 430 263 c 1,55,56
 481 161 481 161 498 140 c 1,57,58
 548 73 548 73 608 73 c 0,59,60
 631 73 631 73 650.5 82 c 128,-1,61
 670 91 670 91 677 91 c 2,62,-1
 692 88 l 2,63,64
 698 86 698 86 702 83.5 c 128,-1,65
 706 81 706 81 716 74 c 1,0,-1
EndSplineSet
EndChar

StartChar: paragraph
Encoding: 182 182 115
Width: 445
Flags: W
LayerCount: 2
Fore
SplineSet
427 -203 m 1,0,-1
 410 -203 l 1,1,2
 408 -197 408 -197 407 -191.5 c 128,-1,3
 406 -186 406 -186 402 -179 c 1,4,-1
 404 -165 l 1,5,-1
 395 -103 l 1,6,-1
 378 45 l 1,7,8
 369 146 369 146 369 221 c 1,9,-1
 365 310 l 1,10,11
 365 366 365 366 362.5 394 c 128,-1,12
 360 422 360 422 351 486 c 0,13,14
 339 586 339 586 322 611 c 1,15,-1
 322 646 l 1,16,-1
 352 646 l 1,17,-1
 365 565 l 1,18,-1
 387 392 l 1,19,20
 398 296 398 296 398 239 c 1,21,-1
 404 136 l 1,22,-1
 418 -63 l 1,23,24
 418 -113 418 -113 421 -138 c 128,-1,25
 424 -163 424 -163 427 -168 c 1,26,-1
 427 -203 l 1,0,-1
346 -163 m 1,27,28
 346 -177 346 -177 338.5 -184 c 128,-1,29
 331 -191 331 -191 316 -197 c 1,30,31
 303 -139 303 -139 297 -85.5 c 128,-1,32
 291 -32 291 -32 291 11 c 0,33,34
 291 68 291 68 289 117 c 0,35,36
 282 289 282 289 282 313 c 2,37,-1
 282 330 l 1,38,-1
 282 338 l 1,39,-1
 281 347 l 1,40,41
 281 357 281 357 258 387 c 1,42,43
 243 380 243 380 218 353 c 0,44,45
 174 308 174 308 125 308 c 0,46,47
 62 308 62 308 27 361 c 0,48,49
 -3 408 -3 408 -3 483 c 0,50,51
 -3 543 -3 543 41 599 c 0,52,53
 91 663 91 663 160 663 c 0,54,55
 174 663 174 663 180.5 661.5 c 128,-1,56
 187 660 187 660 198 655 c 0,57,58
 205 653 205 653 224 640 c 1,59,-1
 238 653 l 2,60,61
 249 662 249 662 258 663 c 1,62,63
 259 662 259 662 261.5 660.5 c 128,-1,64
 264 659 264 659 272 650 c 1,65,66
 299 614 299 614 299 547 c 2,67,-1
 299 500 l 2,68,69
 299 440 299 440 300 392.5 c 128,-1,70
 301 345 301 345 304 311 c 1,71,-1
 317 128 l 1,72,-1
 317 24 l 2,73,74
 317 8 317 8 331 -75 c 2,75,-1
 346 -163 l 1,27,28
247 477 m 0,76,77
 247 537 247 537 232 575 c 0,78,79
 211 628 211 628 160 628 c 0,80,81
 91 628 91 628 56 566 c 0,82,83
 32 522 32 522 32 471 c 0,84,85
 32 417 32 417 54 383 c 0,86,87
 82 343 82 343 136 343 c 0,88,89
 169 343 169 343 208 388.5 c 128,-1,90
 247 434 247 434 247 477 c 0,76,77
EndSplineSet
EndChar

StartChar: onesuperior
Encoding: 185 185 116
Width: 160
Flags: W
LayerCount: 2
Fore
SplineSet
113 932 m 1,0,-1
 97 878 l 1,1,2
 89 847 89 847 85 816 c 1,3,-1
 65 692 l 1,4,-1
 62 655 l 1,5,6
 62 636 62 636 59 629 c 128,-1,7
 56 622 56 622 41 622 c 2,8,-1
 27 623 l 1,9,10
 27 644 27 644 42 749 c 128,-1,11
 57 854 57 854 73 895 c 1,12,-1
 86 931 l 1,13,14
 95 944 95 944 105 941 c 0,15,16
 111 938 111 938 113 932 c 1,0,-1
EndSplineSet
EndChar

StartChar: ordmasculine
Encoding: 186 186 117
Width: 530
Flags: W
LayerCount: 2
Fore
SplineSet
450 528 m 0,0,1
 450 413 450 413 357 341 c 0,2,3
 280 282 280 282 193 282 c 0,4,5
 118 282 118 282 62 348 c 1,6,7
 14 407 14 407 14 472 c 0,8,9
 14 594 14 594 70 693 c 0,10,11
 135 807 135 807 237 807 c 0,12,13
 245 807 245 807 292 780 c 0,14,15
 354 744 354 744 394 690 c 0,16,17
 450 617 450 617 450 528 c 0,0,1
544 177 m 1,18,-1
 44 87 l 2,19,20
 41 87 41 87 25 93.5 c 128,-1,21
 9 100 9 100 -19 113 c 1,22,-1
 -19 149 l 1,23,-1
 70 149 l 2,24,25
 95 149 95 149 206 167 c 2,26,-1
 409 202 l 1,27,-1
 518 221 l 1,28,-1
 521 218 l 1,29,-1
 544 221 l 1,30,-1
 544 177 l 1,18,-1
405 539 m 0,31,32
 405 587 405 587 389 613 c 2,33,-1
 360 662 l 1,34,-1
 327 662 l 1,35,-1
 261 637 l 1,36,37
 246 634 246 634 231 624 c 0,38,39
 224 620 224 620 206.5 601 c 128,-1,40
 189 582 189 582 179 581 c 1,41,-1
 169 584 l 1,42,43
 157 592 157 592 157 606 c 0,44,45
 157 616 157 616 161 627 c 0,46,47
 162 633 162 633 163.5 638.5 c 128,-1,48
 165 644 165 644 169 651 c 1,49,50
 172 662 172 662 202 686 c 0,51,52
 220 699 220 699 237 729 c 1,53,-1
 224 732 l 2,54,55
 210 735 210 735 204 740 c 1,56,57
 138 691 138 691 123 673 c 0,58,59
 81 625 81 625 81 494 c 0,60,61
 81 426 81 426 93 399 c 0,62,63
 117 349 117 349 193 349 c 0,64,65
 207 349 207 349 248 366 c 0,66,67
 311 390 311 390 350 426 c 0,68,69
 405 475 405 475 405 539 c 0,31,32
EndSplineSet
EndChar

StartChar: guillemotright
Encoding: 187 187 118
Width: 824
Flags: W
LayerCount: 2
Fore
SplineSet
805 284 m 0,0,1
 805 254 805 254 726 224 c 2,2,-1
 566 165 l 1,3,4
 465 122 465 122 388 64 c 0,5,6
 374 53 374 53 360 41 c 128,-1,7
 346 29 346 29 328 11 c 1,8,-1
 308 23 l 1,9,10
 287 41 287 41 287 66 c 0,11,12
 287 95 287 95 308 109 c 1,13,-1
 369 143 l 2,14,15
 459 194 459 194 555 236 c 1,16,-1
 668 283 l 2,17,18
 706 300 706 300 706 317 c 0,19,20
 706 350 706 350 621 447 c 0,21,22
 576 498 576 498 462 612 c 0,23,24
 378 696 378 696 377 701 c 1,25,-1
 377 745 l 1,26,-1
 426 745 l 1,27,28
 452 710 452 710 559 598 c 0,29,30
 676 475 676 475 724 417 c 0,31,32
 805 321 805 321 805 284 c 0,0,1
517 329 m 0,33,34
 517 307 517 307 438 283 c 1,35,-1
 278 239 l 1,36,37
 177 207 177 207 100 163 c 0,38,39
 71 146 71 146 40 123 c 1,40,-1
 20 132 l 1,41,42
 -1 146 -1 146 -1 165 c 256,43,44
 -1 184 -1 184 11 192 c 1,45,-1
 81 222 l 2,46,47
 126 242 126 242 176 260.5 c 128,-1,48
 226 279 226 279 285 298 c 0,49,50
 417 340 417 340 418 354 c 0,51,52
 418 378 418 378 333 451 c 0,53,54
 293 485 293 485 174 575 c 0,55,56
 90 638 90 638 89 642 c 1,57,-1
 89 675 l 1,58,-1
 138 675 l 1,59,60
 335 517 335 517 417 445 c 0,61,62
 517 357 517 357 517 329 c 0,33,34
EndSplineSet
EndChar

StartChar: onequarter
Encoding: 188 188 119
Width: 595
Flags: W
LayerCount: 2
Fore
SplineSet
178 714 m 1,0,-1
 160 651 l 2,1,2
 155 633 155 633 151 612.5 c 128,-1,3
 147 592 147 592 143 569 c 1,4,-1
 118 413 l 1,5,-1
 115 368 l 1,6,7
 115 359 115 359 113 350 c 128,-1,8
 111 341 111 341 109 333.5 c 128,-1,9
 107 326 107 326 90 326 c 2,10,-1
 70 327 l 1,11,12
 70 357 70 357 88 484 c 128,-1,13
 106 611 106 611 128 667 c 1,14,-1
 141 704 l 1,15,16
 153 731 153 731 169 725 c 0,17,18
 178 722 178 722 178 714 c 1,0,-1
564 676 m 1,19,20
 506 676 506 676 456 633 c 0,21,22
 419 601 419 601 366 521 c 2,23,-1
 262 365 l 1,24,25
 192 266 192 266 143 157 c 1,26,-1
 94 37 l 1,27,28
 76 -1 76 -1 38 -1 c 2,29,-1
 14 -1 l 1,30,-1
 14 38 l 1,31,-1
 80 141 l 1,32,-1
 184 310 l 1,33,-1
 245 413 l 1,34,-1
 299 495 l 1,35,36
 360 583 360 583 413 644 c 1,37,38
 485 724 485 724 524 724 c 2,39,-1
 551 723 l 1,40,-1
 564 724 l 1,41,-1
 564 676 l 1,19,20
532 164 m 1,42,43
 532 156 532 156 516 147 c 1,44,-1
 485 141 l 1,45,46
 464 141 464 141 463 125 c 0,47,48
 463 115 463 115 464.5 108.5 c 128,-1,49
 466 102 466 102 471 85 c 2,50,-1
 476 67 l 1,51,52
 476 55 476 55 470 48.5 c 128,-1,53
 464 42 464 42 454 40 c 1,54,-1
 432 40 l 1,55,-1
 431 118 l 1,56,-1
 432 135 l 1,57,-1
 413 128 l 2,58,59
 399 122 399 122 379 122 c 1,60,-1
 326 126 l 1,61,62
 304 126 304 126 296.5 127 c 128,-1,63
 289 128 289 128 282 131 c 1,64,65
 261 134 261 134 259 149 c 1,66,-1
 262 186 l 1,67,68
 303 243 303 243 357 364 c 0,69,70
 376 408 376 408 393 425 c 1,71,-1
 431 425 l 1,72,-1
 304 175 l 1,73,-1
 327 174 l 1,74,-1
 385 169 l 1,75,76
 427 169 427 169 427 184 c 2,77,-1
 427 254 l 1,78,-1
 423 259 l 2,79,80
 420 263 420 263 418 271 c 1,81,82
 418 282 418 282 440 282 c 0,83,84
 463 282 463 282 463 178 c 1,85,-1
 510 185 l 1,86,87
 518 185 518 185 529 178 c 1,88,-1
 532 164 l 1,42,43
EndSplineSet
Ligature2: "'frac' Diagonal Fractions lookup 1 subtable" one slash four
Ligature2: "'frac' Diagonal Fractions lookup 1 subtable" one fraction four
EndChar

StartChar: onehalf
Encoding: 189 189 120
Width: 595
Flags: W
LayerCount: 2
Fore
SplineSet
624 72 m 2,0,1
 624 62 624 62 621 57 c 128,-1,2
 618 52 618 52 615 50 c 1,3,-1
 395 23 l 1,4,-1
 381 23 l 2,5,6
 372 23 372 23 364 25 c 0,7,8
 334 29 334 29 332 46 c 1,9,-1
 377 99 l 1,10,11
 401 129 401 129 423 159.5 c 128,-1,12
 445 190 445 190 461 215 c 0,13,14
 507 289 507 289 507 324 c 0,15,16
 507 358 507 358 489.5 370 c 128,-1,17
 472 382 472 382 445 382 c 0,18,19
 403 382 403 382 373 364 c 1,20,-1
 355 364 l 1,21,-1
 355 386 l 1,22,23
 369 397 369 397 395.5 405.5 c 128,-1,24
 422 414 422 414 445 414 c 0,25,26
 490 414 490 414 512 392 c 0,27,28
 530 374 530 374 530 337 c 0,29,30
 530 277 530 277 465 181 c 0,31,32
 416 108 416 108 373 68 c 1,33,-1
 373 55 l 1,34,-1
 395 55 l 2,35,36
 425 55 425 55 449 57.5 c 128,-1,37
 473 60 473 60 516.5 67 c 128,-1,38
 560 74 560 74 597 90 c 1,39,-1
 624 90 l 1,40,-1
 624 72 l 2,0,1
178 714 m 1,41,-1
 160 651 l 2,42,43
 155 633 155 633 151 612.5 c 128,-1,44
 147 592 147 592 143 569 c 1,45,-1
 118 413 l 1,46,-1
 115 368 l 1,47,48
 115 359 115 359 113 350 c 128,-1,49
 111 341 111 341 109 333.5 c 128,-1,50
 107 326 107 326 90 326 c 2,51,-1
 70 327 l 1,52,53
 70 357 70 357 88 484 c 128,-1,54
 106 611 106 611 128 667 c 1,55,-1
 141 704 l 1,56,57
 153 731 153 731 169 725 c 0,58,59
 178 722 178 722 178 714 c 1,41,-1
564 676 m 1,60,61
 506 676 506 676 456 633 c 0,62,63
 419 601 419 601 366 521 c 2,64,-1
 262 365 l 1,65,66
 192 266 192 266 143 157 c 1,67,-1
 94 37 l 1,68,69
 76 -1 76 -1 38 -1 c 2,70,-1
 14 -1 l 1,71,-1
 14 38 l 1,72,-1
 80 141 l 1,73,-1
 184 310 l 1,74,-1
 245 413 l 1,75,-1
 299 495 l 1,76,77
 360 583 360 583 413 644 c 1,78,79
 485 724 485 724 524 724 c 2,80,-1
 551 723 l 1,81,-1
 564 724 l 1,82,-1
 564 676 l 1,60,61
EndSplineSet
Ligature2: "'frac' Diagonal Fractions lookup 1 subtable" one slash two
Ligature2: "'frac' Diagonal Fractions lookup 1 subtable" one fraction two
EndChar

StartChar: threequarters
Encoding: 190 190 121
Width: 555
Flags: W
LayerCount: 2
Fore
SplineSet
319 500 m 0,0,1
 319 475 319 475 306 461 c 0,2,3
 283 435 283 435 265 426 c 0,4,5
 237 412 237 412 184 412 c 0,6,7
 157 412 157 412 134 416 c 128,-1,8
 111 420 111 420 75 432 c 0,9,10
 14 452 14 452 14 477 c 0,11,12
 14 486 14 486 28 487 c 1,13,14
 51 467 51 467 96 449 c 1,15,16
 142 433 142 433 206 433 c 0,17,18
 250 433 250 433 270 451 c 0,19,20
 285 465 285 465 285 491 c 0,21,22
 285 520 285 520 253 549 c 0,23,24
 214 585 214 585 151 585 c 1,25,-1
 136 581 l 1,26,-1
 118 580 l 2,27,28
 100 580 100 580 90 585 c 1,29,-1
 159 666 l 1,30,31
 187 702 187 702 187 726 c 0,32,33
 187 736 187 736 179 741 c 1,34,35
 174 747 174 747 166 748 c 0,36,37
 147 748 147 748 96 729 c 0,38,39
 35 706 35 706 35 687 c 1,40,-1
 41 677 l 1,41,-1
 57 657 l 1,42,-1
 39 657 l 1,43,44
 30 659 30 659 17.5 667.5 c 128,-1,45
 5 676 5 676 3 687 c 1,46,47
 3 699 3 699 49 732 c 0,48,49
 108 773 108 773 177 773 c 0,50,51
 196 773 196 773 204.5 760 c 128,-1,52
 213 747 213 747 213 730 c 0,53,54
 213 708 213 708 194 685 c 0,55,56
 142 618 142 618 140 611 c 1,57,-1
 168 608 l 1,58,-1
 187 607 l 1,59,60
 241 598 241 598 272 575 c 1,61,62
 295 560 295 560 310 534 c 0,63,64
 319 517 319 517 319 500 c 0,0,1
560 734 m 1,65,-1
 494 631 l 1,66,-1
 388 460 l 1,67,-1
 329 361 l 1,68,69
 325 349 325 349 275 277 c 0,70,71
 215 188 215 188 161 128 c 0,72,73
 89 48 89 48 49 48 c 2,74,-1
 23 49 l 1,75,-1
 9 48 l 1,76,-1
 9 96 l 1,77,78
 68 96 68 96 118 139 c 0,79,80
 155 171 155 171 208 251 c 2,81,-1
 312 407 l 1,82,83
 382 506 382 506 431 615 c 1,84,-1
 480 735 l 1,85,86
 498 773 498 773 536 773 c 2,87,-1
 560 773 l 1,88,-1
 560 734 l 1,65,-1
532 164 m 1,89,90
 532 156 532 156 516 147 c 1,91,-1
 485 141 l 1,92,93
 464 141 464 141 463 125 c 0,94,95
 463 115 463 115 464.5 108.5 c 128,-1,96
 466 102 466 102 471 85 c 2,97,-1
 476 67 l 1,98,99
 476 55 476 55 470 48.5 c 128,-1,100
 464 42 464 42 454 40 c 1,101,-1
 432 40 l 1,102,-1
 431 118 l 1,103,-1
 432 135 l 1,104,-1
 413 128 l 2,105,106
 399 122 399 122 379 122 c 1,107,-1
 326 126 l 1,108,109
 304 126 304 126 296.5 127 c 128,-1,110
 289 128 289 128 282 131 c 1,111,112
 261 134 261 134 259 149 c 1,113,-1
 262 186 l 1,114,115
 303 243 303 243 357 364 c 0,116,117
 376 408 376 408 393 425 c 1,118,-1
 431 425 l 1,119,-1
 304 175 l 1,120,-1
 327 174 l 1,121,-1
 385 169 l 1,122,123
 427 169 427 169 427 184 c 2,124,-1
 427 254 l 1,125,-1
 423 259 l 2,126,127
 420 263 420 263 418 271 c 1,128,129
 418 282 418 282 440 282 c 0,130,131
 463 282 463 282 463 178 c 1,132,-1
 510 185 l 1,133,134
 518 185 518 185 529 178 c 1,135,-1
 532 164 l 1,89,90
EndSplineSet
Ligature2: "'frac' Diagonal Fractions lookup 1 subtable" three slash four
Ligature2: "'frac' Diagonal Fractions lookup 1 subtable" three fraction four
EndChar

StartChar: questiondown
Encoding: 191 191 122
Width: 335
Flags: W
LayerCount: 2
Fore
SplineSet
213 899 m 1,0,-1
 181 899 l 1,1,2
 139 917 139 917 133.5 922.5 c 128,-1,3
 128 928 128 928 115 963 c 1,4,-1
 169 963 l 1,5,6
 202 948 202 948 205 944 c 1,7,8
 205 930 205 930 206 923.5 c 128,-1,9
 207 917 207 917 213 899 c 1,0,-1
333 26 m 1,10,-1
 263 10 l 1,11,-1
 226 6 l 2,12,13
 216 6 216 6 212 10 c 128,-1,14
 208 14 208 14 198 16 c 1,15,16
 108 16 108 16 42 51 c 0,17,18
 -39 93 -39 93 -39 169 c 0,19,20
 -39 243 -39 243 31 298 c 1,21,-1
 163 387 l 1,22,23
 234 443 234 443 234 518 c 1,24,25
 225 571 225 571 212 613 c 0,26,27
 195 674 195 674 158 770 c 1,28,-1
 202 770 l 1,29,30
 232 742 232 742 265 641 c 0,31,32
 289 566 289 566 289 497 c 0,33,34
 289 422 289 422 221 358 c 1,35,-1
 95 265 l 2,36,37
 27 215 27 215 27 169 c 0,38,39
 27 149 27 149 81 108 c 1,40,41
 151 59 151 59 234 59 c 2,42,-1
 333 59 l 1,43,-1
 333 26 l 1,10,-1
EndSplineSet
EndChar

StartChar: Agrave
Encoding: 192 192 123
Width: 720
Flags: W
LayerCount: 2
Fore
SplineSet
545 822 m 1,0,1
 506 829 506 829 476 850.5 c 128,-1,2
 446 872 446 872 431 874 c 1,3,-1
 359 910 l 1,4,-1
 225 979 l 2,5,6
 153 1017 153 1017 153 1022 c 1,7,8
 162 1036 162 1036 167 1040 c 0,9,10
 185 1058 185 1058 205 1058 c 0,11,12
 230 1058 230 1058 366 970 c 0,13,14
 509 878 509 878 545 822 c 1,0,1
726 -41 m 1,15,-1
 673 -41 l 1,16,-1
 580 -23 l 2,17,18
 524 -12 524 -12 474.5 -2.5 c 128,-1,19
 425 7 425 7 358 21 c 1,20,-1
 343 21 l 2,21,22
 315 21 315 21 298 27 c 0,23,24
 271 36 271 36 271 64 c 0,25,26
 271 81 271 81 280.5 94.5 c 128,-1,27
 290 108 290 108 306 108 c 1,28,-1
 516 47 l 1,29,-1
 568 47 l 1,30,31
 568 53 568 53 499 206 c 1,32,-1
 371 501 l 1,33,34
 304 665 304 665 297 703 c 1,35,-1
 279 703 l 1,36,37
 228 425 228 425 179 263 c 0,38,39
 162 207 162 207 146 164 c 128,-1,40
 130 121 130 121 111 84 c 0,41,42
 81 24 81 24 78 12 c 1,43,-1
 52 12 l 2,44,45
 42 12 42 12 40.5 7.5 c 128,-1,46
 39 3 39 3 38 0.5 c 128,-1,47
 37 -2 37 -2 34 -6 c 1,48,-1
 8 -6 l 1,49,-1
 8 29 l 1,50,51
 12 45 12 45 16.5 60 c 128,-1,52
 21 75 21 75 28 95 c 1,53,-1
 72 241 l 1,54,-1
 122 406 l 1,55,56
 172 579 172 579 195 649 c 2,57,-1
 228 750 l 1,58,-1
 236 782 l 1,59,-1
 218 869 l 1,60,61
 218 881 218 881 237.5 896 c 128,-1,62
 257 911 257 911 271 913 c 1,63,64
 287 913 287 913 329 810 c 1,65,-1
 376 686 l 1,66,-1
 442 519 l 1,67,68
 460 480 460 480 463 456.5 c 128,-1,69
 466 433 466 433 512 334 c 0,70,71
 537 277 537 277 562.5 229.5 c 128,-1,72
 588 182 588 182 616 140 c 0,73,74
 682 38 682 38 726 38 c 1,75,-1
 726 -41 l 1,15,-1
EndSplineSet
EndChar

StartChar: Aacute
Encoding: 193 193 124
Width: 744
Flags: W
LayerCount: 2
Fore
SplineSet
583 1051 m 1,0,-1
 574 1040 l 1,1,2
 527 1016 527 1016 306 959 c 0,3,4
 222 938 222 938 124 878 c 1,5,6
 97 917 97 917 97 932 c 0,7,8
 97 943 97 943 113 965 c 0,9,10
 136 1000 136 1000 284.5 1038.5 c 128,-1,11
 433 1077 433 1077 528 1077 c 2,12,-1
 554 1077 l 2,13,14
 569 1077 569 1077 583 1068 c 0,15,16
 589 1064 589 1064 583 1051 c 1,0,-1
726 -41 m 1,17,-1
 673 -41 l 1,18,-1
 580 -23 l 2,19,20
 524 -12 524 -12 474.5 -2.5 c 128,-1,21
 425 7 425 7 358 21 c 1,22,-1
 343 21 l 2,23,24
 315 21 315 21 298 27 c 0,25,26
 271 36 271 36 271 64 c 0,27,28
 271 81 271 81 280.5 94.5 c 128,-1,29
 290 108 290 108 306 108 c 1,30,-1
 516 47 l 1,31,-1
 568 47 l 1,32,33
 568 53 568 53 499 206 c 1,34,-1
 371 501 l 1,35,36
 304 665 304 665 297 703 c 1,37,-1
 279 703 l 1,38,39
 228 425 228 425 179 263 c 0,40,41
 162 207 162 207 146 164 c 128,-1,42
 130 121 130 121 111 84 c 0,43,44
 81 24 81 24 78 12 c 1,45,-1
 52 12 l 2,46,47
 42 12 42 12 40.5 7.5 c 128,-1,48
 39 3 39 3 38 0.5 c 128,-1,49
 37 -2 37 -2 34 -6 c 1,50,-1
 8 -6 l 1,51,-1
 8 29 l 1,52,53
 12 45 12 45 16.5 60 c 128,-1,54
 21 75 21 75 28 95 c 1,55,-1
 72 241 l 1,56,-1
 122 406 l 1,57,58
 172 579 172 579 195 649 c 2,59,-1
 228 750 l 1,60,-1
 236 782 l 1,61,-1
 218 869 l 1,62,63
 218 881 218 881 237.5 896 c 128,-1,64
 257 911 257 911 271 913 c 1,65,66
 287 913 287 913 329 810 c 1,67,-1
 376 686 l 1,68,-1
 442 519 l 1,69,70
 460 480 460 480 463 456.5 c 128,-1,71
 466 433 466 433 512 334 c 0,72,73
 537 277 537 277 562.5 229.5 c 128,-1,74
 588 182 588 182 616 140 c 0,75,76
 682 38 682 38 726 38 c 1,77,-1
 726 -41 l 1,17,-1
EndSplineSet
EndChar

StartChar: Acircumflex
Encoding: 194 194 125
Width: 736
Flags: W
LayerCount: 2
Fore
SplineSet
424 848 m 1,0,-1
 401 848 l 1,1,2
 381 854 381 854 348 950 c 0,3,4
 329 1008 329 1008 294 1054 c 1,5,-1
 218 968 l 1,6,7
 176 924 176 924 144 924 c 2,8,-1
 134 925 l 1,9,10
 151 958 151 958 182 988 c 0,11,12
 218 1021 218 1021 225 1032 c 0,13,14
 243 1060 243 1060 257 1125 c 0,15,16
 265 1169 265 1169 287 1169 c 0,17,18
 303 1169 303 1169 363.5 1042.5 c 128,-1,19
 424 916 424 916 424 895 c 1,20,-1
 422 880 l 1,21,-1
 421 872 l 1,22,-1
 424 848 l 1,0,-1
726 -41 m 1,23,-1
 673 -41 l 1,24,-1
 580 -23 l 2,25,26
 524 -12 524 -12 474.5 -2.5 c 128,-1,27
 425 7 425 7 358 21 c 1,28,-1
 343 21 l 2,29,30
 315 21 315 21 298 27 c 0,31,32
 271 36 271 36 271 64 c 0,33,34
 271 81 271 81 280.5 94.5 c 128,-1,35
 290 108 290 108 306 108 c 1,36,-1
 516 47 l 1,37,-1
 568 47 l 1,38,39
 568 53 568 53 499 206 c 1,40,-1
 371 501 l 1,41,42
 304 665 304 665 297 703 c 1,43,-1
 279 703 l 1,44,45
 228 425 228 425 179 263 c 0,46,47
 162 207 162 207 146 164 c 128,-1,48
 130 121 130 121 111 84 c 0,49,50
 81 24 81 24 78 12 c 1,51,-1
 52 12 l 2,52,53
 42 12 42 12 40.5 7.5 c 128,-1,54
 39 3 39 3 38 0.5 c 128,-1,55
 37 -2 37 -2 34 -6 c 1,56,-1
 8 -6 l 1,57,-1
 8 29 l 1,58,59
 12 45 12 45 16.5 60 c 128,-1,60
 21 75 21 75 28 95 c 1,61,-1
 72 241 l 1,62,-1
 122 406 l 1,63,64
 172 579 172 579 195 649 c 2,65,-1
 228 750 l 1,66,-1
 236 782 l 1,67,-1
 218 869 l 1,68,69
 218 881 218 881 237.5 896 c 128,-1,70
 257 911 257 911 271 913 c 1,71,72
 287 913 287 913 329 810 c 1,73,-1
 376 686 l 1,74,-1
 442 519 l 1,75,76
 460 480 460 480 463 456.5 c 128,-1,77
 466 433 466 433 512 334 c 0,78,79
 537 277 537 277 562.5 229.5 c 128,-1,80
 588 182 588 182 616 140 c 0,81,82
 682 38 682 38 726 38 c 1,83,-1
 726 -41 l 1,23,-1
EndSplineSet
EndChar

StartChar: Atilde
Encoding: 195 195 126
Width: 736
Flags: W
LayerCount: 2
Fore
SplineSet
568 959 m 1,0,-1
 504 884 l 1,1,2
 461 843 461 843 415 843 c 0,3,4
 400 843 400 843 382 848 c 0,5,6
 333 860 333 860 269 957 c 0,7,8
 241 1001 241 1001 208 1010 c 1,9,-1
 198 1011 l 2,10,11
 176 1011 176 1011 147 985 c 2,12,-1
 102 947 l 1,13,-1
 75 993 l 1,14,-1
 135 1037 l 1,15,16
 156 1051 156 1051 173 1058 c 128,-1,17
 190 1065 190 1065 206 1065 c 0,18,19
 218 1065 218 1065 223 1063 c 0,20,21
 244 1057 244 1057 316 960 c 0,22,23
 350 914 350 914 396 901 c 1,24,-1
 418 898 l 1,25,26
 452 898 452 898 481 933 c 1,27,-1
 526 995 l 1,28,-1
 568 959 l 1,0,-1
726 -41 m 1,29,-1
 673 -41 l 1,30,-1
 580 -23 l 2,31,32
 524 -12 524 -12 474.5 -2.5 c 128,-1,33
 425 7 425 7 358 21 c 1,34,-1
 343 21 l 2,35,36
 315 21 315 21 298 27 c 0,37,38
 271 36 271 36 271 64 c 0,39,40
 271 81 271 81 280.5 94.5 c 128,-1,41
 290 108 290 108 306 108 c 1,42,-1
 516 47 l 1,43,-1
 568 47 l 1,44,45
 568 53 568 53 499 206 c 1,46,-1
 371 501 l 1,47,48
 304 665 304 665 297 703 c 1,49,-1
 279 703 l 1,50,51
 228 425 228 425 179 263 c 0,52,53
 162 207 162 207 146 164 c 128,-1,54
 130 121 130 121 111 84 c 0,55,56
 81 24 81 24 78 12 c 1,57,-1
 52 12 l 2,58,59
 42 12 42 12 40.5 7.5 c 128,-1,60
 39 3 39 3 38 0.5 c 128,-1,61
 37 -2 37 -2 34 -6 c 1,62,-1
 8 -6 l 1,63,-1
 8 29 l 1,64,65
 12 45 12 45 16.5 60 c 128,-1,66
 21 75 21 75 28 95 c 1,67,-1
 72 241 l 1,68,-1
 122 406 l 1,69,70
 172 579 172 579 195 649 c 2,71,-1
 228 750 l 1,72,-1
 236 782 l 1,73,-1
 218 869 l 1,74,75
 218 881 218 881 237.5 896 c 128,-1,76
 257 911 257 911 271 913 c 1,77,78
 287 913 287 913 329 810 c 1,79,-1
 376 686 l 1,80,-1
 442 519 l 1,81,82
 460 480 460 480 463 456.5 c 128,-1,83
 466 433 466 433 512 334 c 0,84,85
 537 277 537 277 562.5 229.5 c 128,-1,86
 588 182 588 182 616 140 c 0,87,88
 682 38 682 38 726 38 c 1,89,-1
 726 -41 l 1,29,-1
EndSplineSet
EndChar

StartChar: Adieresis
Encoding: 196 196 127
Width: 712
Flags: W
LayerCount: 2
Fore
SplineSet
502 992 m 2,0,1
 502 965 502 965 484.5 955 c 128,-1,2
 467 945 467 945 443 945 c 256,3,4
 419 945 419 945 407 957 c 1,5,6
 397 970 397 970 397 992 c 0,7,8
 397 1013 397 1013 410 1029 c 1,9,-1
 432 1050 l 1,10,-1
 502 1050 l 1,11,-1
 502 992 l 2,0,1
189 963 m 1,12,-1
 133 964 l 1,13,-1
 99 992 l 1,14,15
 84 1006 84 1006 84 1015 c 0,16,17
 84 1030 84 1030 101 1048.5 c 128,-1,18
 118 1067 118 1067 135 1067 c 0,19,20
 154 1067 154 1067 170.5 1051.5 c 128,-1,21
 187 1036 187 1036 187 1015 c 1,22,-1
 183 992 l 1,23,-1
 189 963 l 1,12,-1
726 -41 m 1,24,-1
 673 -41 l 1,25,-1
 580 -23 l 2,26,27
 524 -12 524 -12 474.5 -2.5 c 128,-1,28
 425 7 425 7 358 21 c 1,29,-1
 343 21 l 2,30,31
 315 21 315 21 298 27 c 0,32,33
 271 36 271 36 271 64 c 0,34,35
 271 81 271 81 280.5 94.5 c 128,-1,36
 290 108 290 108 306 108 c 1,37,-1
 516 47 l 1,38,-1
 568 47 l 1,39,40
 568 53 568 53 499 206 c 1,41,-1
 371 501 l 1,42,43
 304 665 304 665 297 703 c 1,44,-1
 279 703 l 1,45,46
 228 425 228 425 179 263 c 0,47,48
 162 207 162 207 146 164 c 128,-1,49
 130 121 130 121 111 84 c 0,50,51
 81 24 81 24 78 12 c 1,52,-1
 52 12 l 2,53,54
 42 12 42 12 40.5 7.5 c 128,-1,55
 39 3 39 3 38 0.5 c 128,-1,56
 37 -2 37 -2 34 -6 c 1,57,-1
 8 -6 l 1,58,-1
 8 29 l 1,59,60
 12 45 12 45 16.5 60 c 128,-1,61
 21 75 21 75 28 95 c 1,62,-1
 72 241 l 1,63,-1
 122 406 l 1,64,65
 172 579 172 579 195 649 c 2,66,-1
 228 750 l 1,67,-1
 236 782 l 1,68,-1
 218 869 l 1,69,70
 218 881 218 881 237.5 896 c 128,-1,71
 257 911 257 911 271 913 c 1,72,73
 287 913 287 913 329 810 c 1,74,-1
 376 686 l 1,75,-1
 442 519 l 1,76,77
 460 480 460 480 463 456.5 c 128,-1,78
 466 433 466 433 512 334 c 0,79,80
 537 277 537 277 562.5 229.5 c 128,-1,81
 588 182 588 182 616 140 c 0,82,83
 682 38 682 38 726 38 c 1,84,-1
 726 -41 l 1,24,-1
EndSplineSet
EndChar

StartChar: Aring
Encoding: 197 197 128
Width: 720
Flags: W
LayerCount: 2
Fore
SplineSet
361 1010 m 1,0,1
 361 993 361 993 349 974 c 128,-1,2
 337 955 337 955 318 939 c 0,3,4
 294 918 294 918 268 918 c 0,5,6
 240 918 240 918 212 949 c 1,7,8
 186 980 186 980 186 1010 c 0,9,10
 186 1022 186 1022 188 1031.5 c 128,-1,11
 190 1041 190 1041 197 1060 c 0,12,13
 209 1089 209 1089 225 1107 c 0,14,15
 246 1130 246 1130 272 1130 c 1,16,-1
 291 1127 l 2,17,18
 302 1126 302 1126 325 1091 c 1,19,-1
 342 1057 l 1,20,21
 353 1045 353 1045 357 1033 c 1,22,-1
 361 1010 l 1,0,1
726 -41 m 1,23,-1
 673 -41 l 1,24,-1
 580 -23 l 2,25,26
 524 -12 524 -12 474.5 -2.5 c 128,-1,27
 425 7 425 7 358 21 c 1,28,-1
 343 21 l 2,29,30
 315 21 315 21 298 27 c 0,31,32
 271 36 271 36 271 64 c 0,33,34
 271 81 271 81 280.5 94.5 c 128,-1,35
 290 108 290 108 306 108 c 1,36,-1
 516 47 l 1,37,-1
 568 47 l 1,38,39
 568 53 568 53 499 206 c 1,40,-1
 371 501 l 1,41,42
 304 665 304 665 297 703 c 1,43,-1
 279 703 l 1,44,45
 228 425 228 425 179 263 c 0,46,47
 162 207 162 207 146 164 c 128,-1,48
 130 121 130 121 111 84 c 0,49,50
 81 24 81 24 78 12 c 1,51,-1
 52 12 l 2,52,53
 42 12 42 12 40.5 7.5 c 128,-1,54
 39 3 39 3 38 0.5 c 128,-1,55
 37 -2 37 -2 34 -6 c 1,56,-1
 8 -6 l 1,57,-1
 8 29 l 1,58,59
 12 45 12 45 16.5 60 c 128,-1,60
 21 75 21 75 28 95 c 1,61,-1
 72 241 l 1,62,-1
 122 406 l 1,63,64
 172 579 172 579 195 649 c 2,65,-1
 228 750 l 1,66,-1
 236 782 l 1,67,-1
 218 869 l 1,68,69
 218 881 218 881 237.5 896 c 128,-1,70
 257 911 257 911 271 913 c 1,71,72
 287 913 287 913 329 810 c 1,73,-1
 376 686 l 1,74,-1
 442 519 l 1,75,76
 460 480 460 480 463 456.5 c 128,-1,77
 466 433 466 433 512 334 c 0,78,79
 537 277 537 277 562.5 229.5 c 128,-1,80
 588 182 588 182 616 140 c 0,81,82
 682 38 682 38 726 38 c 1,83,-1
 726 -41 l 1,23,-1
329 1015 m 1,84,85
 329 1037 329 1037 305 1051 c 1,86,-1
 289 1066 l 1,87,88
 269 1081 269 1081 255 1081 c 1,89,90
 238 1078 238 1078 227 1060 c 1,91,92
 219 1042 219 1042 219 1019 c 0,93,94
 219 995 219 995 224.5 985 c 128,-1,95
 230 975 230 975 252 960 c 0,96,97
 267 951 267 951 281 951 c 0,98,99
 302 951 302 951 316 977 c 2,100,-1
 325 995 l 1,101,-1
 329 1015 l 1,84,85
EndSplineSet
EndChar

StartChar: AE
Encoding: 198 198 129
Width: 835
Flags: W
LayerCount: 2
Fore
SplineSet
869 789 m 1,0,1
 823 748 823 748 811 746 c 1,2,3
 798 756 798 756 778 764.5 c 128,-1,4
 758 773 758 773 726 773 c 2,5,-1
 695 772 l 2,6,7
 678 772 678 772 660 767 c 1,8,-1
 629 768 l 1,9,-1
 598 766 l 2,10,11
 583 765 583 765 562 757 c 1,12,13
 469 727 469 727 460 720 c 0,14,15
 412 688 412 688 412 605 c 1,16,17
 403 594 403 594 400 573 c 0,18,19
 394 537 394 537 394 474 c 1,20,-1
 389 461 l 1,21,22
 386 431 386 431 386 366 c 1,23,24
 402 371 402 371 425 377 c 128,-1,25
 448 383 448 383 464 386 c 1,26,-1
 524 391 l 1,27,-1
 537 391 l 1,28,-1
 545 390 l 1,29,-1
 614 408 l 1,30,31
 692 426 692 426 743 426 c 0,32,33
 774 426 774 426 791 419.5 c 128,-1,34
 808 413 808 413 813 398 c 1,35,36
 817 391 817 391 821.5 388 c 128,-1,37
 826 385 826 385 823 374 c 0,38,39
 813 329 813 329 696 316 c 1,40,-1
 489 303 l 1,41,42
 379 291 379 291 379 247 c 0,43,44
 379 154 379 154 427.5 118.5 c 128,-1,45
 476 83 476 83 593 83 c 0,46,47
 742 83 742 83 817 91 c 1,48,49
 807 33 807 33 775 10 c 0,50,51
 751 -6 751 -6 706 -6 c 2,52,-1
 674 -5 l 1,53,-1
 641 -4 l 1,54,-1
 549 -4 l 2,55,56
 502 -4 502 -4 480.5 -1 c 128,-1,57
 459 2 459 2 450 4 c 128,-1,58
 441 6 441 6 423 13 c 1,59,-1
 414 -36 l 1,60,-1
 380 -36 l 1,61,-1
 348 -25 l 1,62,-1
 189 26 l 1,63,64
 165 26 165 26 156 29 c 0,65,66
 140 37 140 37 140 58 c 1,67,-1
 142 75 l 1,68,69
 144 86 144 86 152 98.5 c 128,-1,70
 160 111 160 111 171 113 c 1,71,-1
 295 52 l 1,72,-1
 329 52 l 1,73,-1
 312 199 l 1,74,-1
 283 472 l 1,75,76
 266 645 266 645 266 690 c 1,77,-1
 267 708 l 1,78,-1
 255 708 l 1,79,80
 177 433 177 433 116 268 c 0,81,82
 76 156 76 156 42 89 c 1,83,-1
 9 17 l 1,84,-1
 -8 17 l 2,85,86
 -13 17 -13 17 -16 12 c 2,87,-1
 -23 -1 l 1,88,-1
 -39 -1 l 1,89,-1
 -33 34 l 1,90,-1
 105 411 l 1,91,-1
 201 677 l 1,92,-1
 242 787 l 1,93,-1
 245 874 l 1,94,95
 247 887 247 887 262 902 c 128,-1,96
 277 917 277 917 287 918 c 0,97,98
 296 918 296 918 305.5 848.5 c 128,-1,99
 315 779 315 779 315 691 c 1,100,-1
 319 629 l 1,101,-1
 321 689 l 1,102,103
 321 749 321 749 447 800 c 0,104,105
 559 844 559 844 657 844 c 0,106,107
 761 844 761 844 808 840 c 2,108,-1
 856 835 l 1,109,-1
 869 836 l 1,110,-1
 869 789 l 1,0,1
EndSplineSet
EndChar

StartChar: Ccedilla
Encoding: 199 199 130
Width: 464
Flags: W
LayerCount: 2
Fore
SplineSet
495 175 m 0,0,1
 495 151 495 151 431 124 c 1,2,-1
 261 58 l 1,3,-1
 261 36 l 1,4,5
 300 36 300 36 316 20 c 0,6,7
 342 -6 342 -6 342 -66 c 0,8,9
 342 -110 342 -110 294.5 -139.5 c 128,-1,10
 247 -169 247 -169 174 -169 c 0,11,12
 150 -169 150 -169 128 -153 c 128,-1,13
 106 -137 106 -137 93 -103 c 1,14,-1
 122 -103 l 1,15,-1
 150 -122 l 1,16,17
 170 -132 170 -132 195 -132 c 0,18,19
 240 -132 240 -132 272.5 -103 c 128,-1,20
 305 -74 305 -74 305 -30 c 1,21,-1
 294 -19 l 1,22,23
 283 -10 283 -10 269 -8 c 1,24,-1
 232 -8 l 2,25,26
 209 -8 209 -8 207 4 c 1,27,-1
 210 21 l 1,28,-1
 210 58 l 1,29,30
 70 58 70 58 24 156 c 0,31,32
 -2 211 -2 211 -2 335 c 0,33,34
 -2 415 -2 415 13 468 c 1,35,-1
 51 547 l 1,36,37
 57 579 57 579 141 654 c 1,38,39
 239 738 239 738 327 752 c 1,40,-1
 349 754 l 1,41,-1
 369 754 l 1,42,-1
 399 753 l 1,43,-1
 422 752 l 1,44,-1
 429 737 l 1,45,-1
 429 715 l 1,46,47
 253 715 253 715 139 595 c 1,48,49
 35 483 35 483 35 328 c 2,50,-1
 35 262 l 2,51,52
 35 224 35 224 69 166 c 0,53,54
 111 94 111 94 166 94 c 0,55,56
 181 94 181 94 202.5 105 c 128,-1,57
 224 116 224 116 239 131 c 1,58,59
 245 128 245 128 258 126 c 1,60,-1
 269 127 l 1,61,-1
 276 131 l 1,62,63
 376 131 376 131 411 181 c 0,64,65
 426 204 426 204 451 204 c 0,66,67
 466 204 466 204 480 195.5 c 128,-1,68
 494 187 494 187 495 175 c 0,0,1
EndSplineSet
EndChar

StartChar: Egrave
Encoding: 200 200 131
Width: 816
Flags: W
LayerCount: 2
Fore
SplineSet
758 942 m 1,0,-1
 728 921 l 1,1,2
 687 938 687 938 564 961 c 2,3,-1
 368 996 l 1,4,5
 267 1017 267 1017 246 1037 c 0,6,7
 240 1043 240 1043 239 1054 c 0,8,9
 239 1065 239 1065 244.5 1073.5 c 128,-1,10
 250 1082 250 1082 260 1089 c 0,11,12
 263 1092 263 1092 336 1073 c 0,13,14
 393 1059 393 1059 442 1045 c 0,15,16
 452 1042 452 1042 522 1021 c 0,17,18
 652 981 652 981 758 942 c 1,0,-1
998 795 m 1,19,20
 962 773 962 773 925 760 c 1,21,22
 888 750 888 750 865 750 c 1,23,-1
 754 765 l 2,24,25
 727 768 727 768 702 770 c 128,-1,26
 677 772 677 772 648 772 c 0,27,28
 590 772 590 772 531 765 c 2,29,-1
 513 762 l 1,30,-1
 448 747 l 1,31,-1
 256 714 l 1,32,33
 149 684 149 684 149 603 c 1,34,35
 136 581 136 581 131 562 c 0,36,37
 113 505 113 505 113 424 c 1,38,39
 107 427 107 427 101.5 420 c 128,-1,40
 96 413 96 413 96 387 c 1,41,-1
 97 358 l 1,42,43
 97 349 97 349 97 343.5 c 128,-1,44
 97 338 97 338 101 316 c 1,45,-1
 206 336 l 1,46,-1
 258 341 l 1,47,-1
 268 340 l 1,48,-1
 687 388 l 1,49,-1
 735 388 l 1,50,51
 713 323 713 323 543 293 c 1,52,-1
 241 258 l 2,53,54
 89 241 89 241 89 197 c 0,55,56
 89 140 89 140 168 95 c 0,57,58
 263 41 263 41 424 41 c 0,59,60
 502 41 502 41 626 65 c 128,-1,61
 750 89 750 89 782 89 c 1,62,63
 766 31 766 31 716 8 c 0,64,65
 678 -8 678 -8 608 -8 c 2,66,-1
 559 -7 l 1,67,-1
 507 -6 l 1,68,-1
 364 -6 l 2,69,70
 167 -6 167 -6 89 41 c 0,71,72
 -6 98 -6 98 -6 257 c 0,73,74
 -6 296 -6 296 -4 323 c 128,-1,75
 -2 350 -2 350 4 378 c 1,76,-1
 29 508 l 1,77,-1
 34 517 l 1,78,79
 40 523 40 523 40 541 c 1,80,-1
 39 561 l 1,81,-1
 39 577 l 1,82,83
 36 587 36 587 35 591 c 1,84,-1
 -33 619 l 2,85,86
 -42 622 -42 622 -42 639 c 0,87,88
 -42 680 -42 680 68 731 c 0,89,90
 167 776 167 776 305 809 c 128,-1,91
 443 842 443 842 531 842 c 2,92,-1
 761 841 l 2,93,94
 790 841 790 841 843 840 c 128,-1,95
 896 839 896 839 920 839 c 2,96,-1
 934 839 l 2,97,98
 977 839 977 839 998 842 c 1,99,-1
 998 795 l 1,19,20
EndSplineSet
EndChar

StartChar: Eacute
Encoding: 201 201 132
Width: 816
Flags: W
LayerCount: 2
Fore
SplineSet
695 1019 m 1,0,-1
 686 1008 l 1,1,2
 638 984 638 984 585 975 c 0,3,4
 549 969 549 969 493 969 c 2,5,-1
 454 969 l 2,6,7
 358 969 358 969 311 937 c 0,8,9
 272 910 272 910 236 846 c 1,10,11
 209 885 209 885 209 900 c 0,12,13
 209 911 209 911 225 933 c 0,14,15
 248 968 248 968 396.5 1006.5 c 128,-1,16
 545 1045 545 1045 640 1045 c 2,17,-1
 666 1045 l 2,18,19
 681 1045 681 1045 695 1036 c 0,20,21
 701 1032 701 1032 695 1019 c 1,0,-1
862 787 m 1,22,-1
 799 752 l 1,23,24
 785 746 785 746 770 744 c 1,25,26
 749 754 749 754 716 762.5 c 128,-1,27
 683 771 683 771 634 771 c 2,28,-1
 585 770 l 2,29,30
 575 770 575 770 560.5 769 c 128,-1,31
 546 768 546 768 531 765 c 2,32,-1
 513 762 l 1,33,-1
 448 747 l 1,34,-1
 256 714 l 1,35,36
 149 684 149 684 149 603 c 1,37,38
 137 592 137 592 131 571 c 0,39,40
 121 528 121 528 121 472 c 1,41,42
 115 475 115 475 109.5 468 c 128,-1,43
 104 461 104 461 104 435 c 1,44,-1
 105 406 l 1,45,46
 105 397 105 397 105 391.5 c 128,-1,47
 105 386 105 386 109 364 c 1,48,-1
 214 384 l 1,49,-1
 266 389 l 1,50,-1
 276 388 l 1,51,-1
 695 436 l 1,52,-1
 708 440 l 1,53,-1
 733 444 l 2,54,55
 740 444 740 444 742 442 c 1,56,57
 743 438 743 438 743 436 c 0,58,59
 725 391 725 391 557 361 c 1,60,-1
 255 318 l 1,61,62
 97 291 97 291 97 245 c 0,63,64
 97 146 97 146 175 93.5 c 128,-1,65
 253 41 253 41 424 41 c 0,66,67
 502 41 502 41 626 65 c 128,-1,68
 750 89 750 89 782 89 c 1,69,70
 766 31 766 31 716 8 c 0,71,72
 678 -8 678 -8 608 -8 c 2,73,-1
 559 -7 l 1,74,-1
 507 -6 l 1,75,-1
 364 -6 l 2,76,77
 167 -6 167 -6 89 41 c 0,78,79
 -6 98 -6 98 -6 257 c 0,80,81
 -6 296 -6 296 -4 323 c 128,-1,82
 -2 350 -2 350 4 378 c 1,83,-1
 29 508 l 1,84,-1
 34 517 l 1,85,86
 40 523 40 523 40 541 c 1,87,-1
 39 561 l 1,88,-1
 39 577 l 1,89,90
 36 587 36 587 35 591 c 1,91,-1
 -33 619 l 2,92,93
 -42 622 -42 622 -42 639 c 0,94,95
 -42 680 -42 680 68 731 c 0,96,97
 167 776 167 776 305 809 c 128,-1,98
 443 842 443 842 531 842 c 0,99,100
 586 842 586 842 637.5 840.5 c 128,-1,101
 689 839 689 839 745 838 c 1,102,-1
 842 833 l 1,103,-1
 862 834 l 1,104,-1
 862 787 l 1,22,-1
EndSplineSet
EndChar

StartChar: Ecircumflex
Encoding: 202 202 133
Width: 816
Flags: W
LayerCount: 2
Fore
SplineSet
752 921 m 1,0,-1
 749 885 l 1,1,-1
 535 965 l 2,2,3
 444 1000 444 1000 377 1049 c 1,4,5
 342 1030 342 1030 277 971 c 0,6,7
 205 906 205 906 167 879 c 0,8,9
 101 834 101 834 40 826 c 1,10,-1
 23 868 l 1,11,12
 105 960 105 960 192 1032 c 0,13,14
 247 1076 247 1076 317 1120 c 2,15,-1
 382 1162 l 1,16,17
 411 1140 411 1140 479 1099 c 1,18,19
 597 1031 597 1031 609 1022 c 1,20,21
 688 973 688 973 752 921 c 1,0,-1
862 787 m 1,22,-1
 799 752 l 1,23,24
 785 746 785 746 770 744 c 1,25,26
 749 754 749 754 716 762.5 c 128,-1,27
 683 771 683 771 634 771 c 2,28,-1
 601 770 l 1,29,-1
 534 765 l 1,30,-1
 509 765 l 1,31,-1
 485 766 l 2,32,33
 474 766 474 766 464 766 c 128,-1,34
 454 766 454 766 439 764 c 0,35,36
 425 764 425 764 418 763 c 128,-1,37
 411 762 411 762 384 755 c 1,38,39
 240 725 240 725 223 718 c 0,40,41
 149 686 149 686 149 603 c 1,42,43
 137 592 137 592 131 571 c 0,44,45
 121 528 121 528 121 472 c 1,46,47
 115 475 115 475 109.5 468 c 128,-1,48
 104 461 104 461 104 435 c 1,49,-1
 105 406 l 1,50,51
 105 397 105 397 105 391.5 c 128,-1,52
 105 386 105 386 109 364 c 1,53,54
 136 370 136 370 169 375.5 c 128,-1,55
 202 381 202 381 230 384 c 1,56,-1
 323 389 l 1,57,-1
 343 389 l 1,58,-1
 356 388 l 1,59,-1
 464 406 l 1,60,61
 587 424 587 424 665 424 c 0,62,63
 712 424 712 424 739.5 417.5 c 128,-1,64
 767 411 767 411 775 396 c 1,65,66
 781 389 781 389 787.5 386 c 128,-1,67
 794 383 794 383 791 372 c 0,68,69
 782 348 782 348 730.5 331 c 128,-1,70
 679 314 679 314 593 314 c 1,71,-1
 268 301 l 1,72,73
 185 301 185 301 141 285.5 c 128,-1,74
 97 270 97 270 97 245 c 0,75,76
 97 152 97 152 174 116.5 c 128,-1,77
 251 81 251 81 432 81 c 0,78,79
 459 81 459 81 515 82 c 128,-1,80
 571 83 571 83 599 83 c 2,81,-1
 782 89 l 1,82,83
 766 31 766 31 716 8 c 0,84,85
 678 -8 678 -8 608 -8 c 2,86,-1
 559 -7 l 1,87,-1
 507 -6 l 1,88,-1
 364 -6 l 2,89,90
 167 -6 167 -6 89 41 c 0,91,92
 -6 98 -6 98 -6 257 c 0,93,94
 -6 296 -6 296 -4 323 c 128,-1,95
 -2 350 -2 350 4 378 c 1,96,-1
 29 508 l 1,97,-1
 34 517 l 1,98,99
 40 523 40 523 40 541 c 1,100,-1
 39 561 l 1,101,-1
 39 577 l 1,102,103
 36 587 36 587 35 591 c 1,104,105
 11 603 11 603 0 614 c 1,106,107
 -9 625 -9 625 -11 638 c 0,108,109
 -11 648 -11 648 -6 657 c 0,110,111
 6 681 6 681 6 687 c 0,112,113
 6 747 6 747 203 798 c 0,114,115
 379 842 379 842 531 842 c 0,116,117
 586 842 586 842 637.5 840.5 c 128,-1,118
 689 839 689 839 745 838 c 1,119,-1
 842 833 l 1,120,-1
 862 834 l 1,121,-1
 862 787 l 1,22,-1
EndSplineSet
EndChar

StartChar: Edieresis
Encoding: 203 203 134
Width: 816
Flags: W
LayerCount: 2
Fore
SplineSet
708 943 m 1,0,-1
 655 940 l 1,1,-1
 615 937 l 1,2,3
 592 937 592 937 582.5 944 c 128,-1,4
 573 951 573 951 567 978 c 1,5,6
 567 984 567 984 582 996 c 1,7,-1
 647 1032 l 1,8,-1
 698 1001 l 1,9,-1
 708 943 l 1,0,-1
290 939 m 1,10,-1
 246 930 l 1,11,-1
 203 923 l 1,12,13
 175 926 175 926 163.5 933 c 128,-1,14
 152 940 152 940 152 954 c 0,15,16
 152 960 152 960 182 983 c 0,17,18
 209 1002 209 1002 219 1006 c 1,19,20
 229 1008 229 1008 255 1002 c 128,-1,21
 281 996 281 996 281 986 c 1,22,-1
 283 963 l 1,23,24
 283 950 283 950 290 939 c 1,10,-1
862 787 m 1,25,-1
 799 752 l 1,26,27
 785 746 785 746 770 744 c 1,28,29
 749 754 749 754 716 762.5 c 128,-1,30
 683 771 683 771 634 771 c 2,31,-1
 585 770 l 2,32,33
 575 770 575 770 560.5 769 c 128,-1,34
 546 768 546 768 531 765 c 2,35,-1
 513 762 l 1,36,-1
 448 747 l 1,37,-1
 256 714 l 1,38,39
 149 684 149 684 149 603 c 1,40,41
 137 592 137 592 131 571 c 0,42,43
 121 528 121 528 121 472 c 1,44,45
 115 475 115 475 109.5 468 c 128,-1,46
 104 461 104 461 104 435 c 1,47,-1
 105 406 l 1,48,49
 105 397 105 397 105 391.5 c 128,-1,50
 105 386 105 386 109 364 c 1,51,-1
 214 384 l 1,52,-1
 266 389 l 1,53,-1
 276 388 l 1,54,-1
 695 436 l 1,55,-1
 708 440 l 1,56,-1
 733 444 l 2,57,58
 740 444 740 444 742 442 c 1,59,60
 743 438 743 438 743 436 c 0,61,62
 725 391 725 391 557 361 c 1,63,-1
 255 318 l 1,64,65
 97 291 97 291 97 245 c 0,66,67
 97 146 97 146 175 93.5 c 128,-1,68
 253 41 253 41 424 41 c 0,69,70
 502 41 502 41 626 65 c 128,-1,71
 750 89 750 89 782 89 c 1,72,73
 766 31 766 31 716 8 c 0,74,75
 678 -8 678 -8 608 -8 c 2,76,-1
 559 -7 l 1,77,-1
 507 -6 l 1,78,-1
 364 -6 l 2,79,80
 167 -6 167 -6 89 41 c 0,81,82
 -6 98 -6 98 -6 257 c 0,83,84
 -6 296 -6 296 -4 323 c 128,-1,85
 -2 350 -2 350 4 378 c 1,86,-1
 29 508 l 1,87,-1
 34 517 l 1,88,89
 40 523 40 523 40 541 c 1,90,-1
 39 561 l 1,91,-1
 39 577 l 1,92,93
 36 587 36 587 35 591 c 1,94,-1
 -33 619 l 2,95,96
 -42 622 -42 622 -42 639 c 0,97,98
 -42 680 -42 680 68 731 c 0,99,100
 167 776 167 776 305 809 c 128,-1,101
 443 842 443 842 531 842 c 0,102,103
 586 842 586 842 637.5 840.5 c 128,-1,104
 689 839 689 839 745 838 c 1,105,-1
 842 833 l 1,106,-1
 862 834 l 1,107,-1
 862 787 l 1,25,-1
EndSplineSet
EndChar

StartChar: Igrave
Encoding: 204 204 135
Width: 192
Flags: W
LayerCount: 2
Fore
SplineSet
194 834 m 1,0,-1
 173 831 l 1,1,2
 163 845 163 845 29 961 c 0,3,4
 -24 1006 -24 1006 -30 1025 c 0,5,6
 -31 1032 -31 1032 -24 1038 c 1,7,8
 -20 1043 -20 1043 -9 1046 c 1,9,-1
 58 982 l 1,10,11
 133 908 133 908 194 834 c 1,0,-1
123 29 m 1,12,-1
 120 20 l 1,13,-1
 106 4 l 1,14,-1
 57 4 l 1,15,-1
 40 95 l 1,16,17
 41 100 41 100 43.5 105 c 128,-1,18
 46 110 46 110 48 113 c 2,19,-1
 57 128 l 1,20,-1
 57 646 l 1,21,-1
 52 649 l 2,22,23
 40 658 40 658 40 720 c 1,24,-1
 36 729 l 1,25,-1
 31 749 l 1,26,27
 31 761 31 761 40.5 769.5 c 128,-1,28
 50 778 50 778 73 778 c 0,29,30
 92 778 92 778 100.5 751.5 c 128,-1,31
 109 725 109 725 109 684 c 1,32,-1
 108 638 l 1,33,-1
 108 623 l 2,34,35
 108 616 108 616 108 610 c 0,36,37
 106 601 106 601 106 597 c 2,38,-1
 106 285 l 2,39,40
 106 228 106 228 107 184.5 c 128,-1,41
 108 141 108 141 111 109 c 1,42,-1
 123 29 l 1,12,-1
EndSplineSet
EndChar

StartChar: Iacute
Encoding: 205 205 136
Width: 208
Flags: W
LayerCount: 2
Fore
SplineSet
298 1081 m 1,0,-1
 297 1074 l 1,1,-1
 294 1067 l 1,2,3
 267 1039 267 1039 126 941 c 0,4,5
 69 901 69 901 18 837 c 1,6,7
 -15 861 -15 861 -16 875 c 1,8,-1
 -12 895 l 1,9,10
 -3 934 -3 934 126 1015.5 c 128,-1,11
 255 1097 255 1097 293 1089 c 1,12,13
 298 1085 298 1085 298 1081 c 1,0,-1
165 725 m 0,14,15
 165 698 165 698 156 659 c 1,16,-1
 141 589 l 1,17,-1
 87 282 l 1,18,-1
 64 134 l 1,19,-1
 59 51 l 1,20,-1
 59 27 l 1,21,22
 57 20 57 20 55 18 c 2,23,-1
 38 5 l 1,24,-1
 -10 13 l 1,25,-1
 -11 106 l 1,26,-1
 1 122 l 1,27,-1
 12 135 l 1,28,-1
 46 323 l 1,29,-1
 84 529 l 1,30,31
 102 631 102 631 102 648 c 1,32,-1
 95 651 l 1,33,34
 92 654 92 654 92 671 c 1,35,-1
 98 721 l 1,36,-1
 96 728 l 1,37,-1
 93 745 l 1,38,39
 93 758 93 758 99.5 766 c 128,-1,40
 106 774 106 774 125 774 c 0,41,42
 137 774 137 774 143 772 c 1,43,44
 152 772 152 772 158.5 759 c 128,-1,45
 165 746 165 746 165 725 c 0,14,15
EndSplineSet
EndChar

StartChar: Icircumflex
Encoding: 206 206 137
Width: 183
Flags: W
LayerCount: 2
Fore
SplineSet
211 823 m 1,0,-1
 188 796 l 1,1,2
 167 808 167 808 140 871 c 0,3,4
 120 918 120 918 94 956 c 1,5,-1
 30 871 l 1,6,7
 -4 824 -4 824 -33 801 c 1,8,-1
 -49 832 l 1,9,10
 45 938 45 938 71 987 c 0,11,12
 80 1006 80 1006 88 1012 c 1,13,14
 100 997 100 997 116 973 c 128,-1,15
 132 949 132 949 153 916 c 0,16,17
 179 872 179 872 182 867 c 0,18,19
 192 851 192 851 211 823 c 1,0,-1
123 29 m 1,20,-1
 120 20 l 1,21,-1
 106 4 l 1,22,-1
 57 4 l 1,23,-1
 40 95 l 1,24,25
 41 100 41 100 43.5 105 c 128,-1,26
 46 110 46 110 48 113 c 2,27,-1
 57 128 l 1,28,-1
 57 646 l 1,29,-1
 52 649 l 2,30,31
 40 658 40 658 40 720 c 1,32,-1
 36 729 l 1,33,-1
 31 749 l 1,34,35
 31 761 31 761 40.5 769.5 c 128,-1,36
 50 778 50 778 73 778 c 0,37,38
 92 778 92 778 100.5 751.5 c 128,-1,39
 109 725 109 725 109 684 c 1,40,-1
 108 638 l 1,41,-1
 108 623 l 2,42,43
 108 616 108 616 108 610 c 0,44,45
 106 601 106 601 106 597 c 2,46,-1
 106 285 l 2,47,48
 106 228 106 228 107 184.5 c 128,-1,49
 108 141 108 141 111 109 c 1,50,-1
 123 29 l 1,20,-1
EndSplineSet
EndChar

StartChar: Idieresis
Encoding: 207 207 138
Width: 216
Flags: W
LayerCount: 2
Fore
SplineSet
283 814 m 1,0,-1
 217 823 l 1,1,2
 194 832 194 832 194 873 c 0,3,4
 194 882 194 882 217 894 c 2,5,-1
 253 912 l 1,6,-1
 283 873 l 1,7,-1
 283 814 l 1,0,-1
8 882 m 1,8,-1
 -27 881 l 1,9,-1
 -41 881 l 1,10,-1
 -51 882 l 1,11,12
 -69 890 -69 890 -75 897.5 c 128,-1,13
 -81 905 -81 905 -81 922 c 0,14,15
 -81 928 -81 928 -58 944 c 0,16,17
 -39 959 -39 959 -31 961 c 0,18,19
 -25 961 -25 961 -9 950.5 c 128,-1,20
 7 940 7 940 8 931 c 1,21,-1
 7 916 l 1,22,-1
 6 901 l 1,23,24
 6 888 6 888 8 882 c 1,8,-1
123 753 m 1,25,26
 117 734 117 734 111 666 c 1,27,28
 111 639 111 639 108.5 579 c 128,-1,29
 106 519 106 519 106 497 c 2,30,-1
 106 185 l 1,31,-1
 107 136 l 1,32,33
 107 126 107 126 107 118 c 128,-1,34
 107 110 107 110 109 98 c 1,35,36
 109 54 109 54 103 33 c 0,37,38
 94 4 94 4 73 4 c 0,39,40
 49 4 49 4 40 12 c 128,-1,41
 31 20 31 20 31 33 c 0,42,43
 31 42 31 42 34.5 51 c 128,-1,44
 38 60 38 60 40 62 c 1,45,46
 40 80 40 80 40.5 94.5 c 128,-1,47
 41 109 41 109 44 121 c 1,48,-1
 57 136 l 1,49,-1
 57 654 l 1,50,-1
 49 668 l 1,51,-1
 40 687 l 1,52,-1
 57 778 l 1,53,-1
 106 778 l 1,54,-1
 116 766 l 1,55,-1
 123 753 l 1,25,26
EndSplineSet
EndChar

StartChar: Ograve
Encoding: 210 210 140
Width: 800
Flags: W
LayerCount: 2
Fore
SplineSet
758 942 m 1,0,-1
 728 921 l 1,1,2
 687 938 687 938 564 961 c 2,3,-1
 368 996 l 1,4,5
 267 1017 267 1017 246 1037 c 0,6,7
 240 1043 240 1043 239 1054 c 0,8,9
 239 1065 239 1065 244.5 1073.5 c 128,-1,10
 250 1082 250 1082 260 1089 c 0,11,12
 263 1092 263 1092 336 1073 c 0,13,14
 393 1059 393 1059 442 1045 c 0,15,16
 452 1042 452 1042 522 1021 c 0,17,18
 652 981 652 981 758 942 c 1,0,-1
785 387 m 0,19,20
 785 309 785 309 770 240 c 128,-1,21
 755 171 755 171 719 108 c 0,22,23
 680 40 680 40 609 4 c 0,24,25
 577 -11 577 -11 541.5 -19 c 128,-1,26
 506 -27 506 -27 463 -27 c 0,27,28
 425 -27 425 -27 395.5 -23 c 128,-1,29
 366 -19 366 -19 328 -7 c 1,30,31
 262 11 262 11 200 48 c 1,32,33
 193 48 193 48 154 83 c 0,34,35
 99 130 99 130 67 189 c 0,36,37
 20 272 20 272 20 365 c 0,38,39
 20 423 20 423 36 480 c 128,-1,40
 52 537 52 537 93 608 c 0,41,42
 160 723 160 723 248 776 c 0,43,44
 322 819 322 819 406 819 c 0,45,46
 489 819 489 819 571 778 c 1,47,48
 599 766 599 766 639 737 c 1,49,-1
 651 744 l 2,50,51
 660 750 660 750 673 752 c 0,52,53
 685 752 685 752 701.5 742.5 c 128,-1,54
 718 733 718 733 749 629 c 0,55,56
 785 506 785 506 785 387 c 0,19,20
711 373 m 0,57,58
 711 413 711 413 704 440 c 0,59,60
 698 469 698 469 693 470 c 1,61,62
 686 478 686 478 673 484 c 2,63,-1
 651 494 l 1,64,65
 641 500 641 500 636.5 508 c 128,-1,66
 632 516 632 516 630 531 c 1,67,-1
 640 579 l 1,68,69
 643 592 643 592 641 597 c 1,70,-1
 537 657 l 1,71,-1
 542 665 l 1,72,-1
 545 677 l 1,73,74
 545 685 545 685 539 693 c 1,75,-1
 524 706 l 1,76,77
 488 727 488 727 445 727 c 0,78,79
 366 727 366 727 282 656 c 0,80,81
 214 600 214 600 169 523 c 0,82,83
 139 470 139 470 123.5 420.5 c 128,-1,84
 108 371 108 371 108 330 c 0,85,86
 108 240 108 240 179 165 c 1,87,-1
 271 76 l 1,88,-1
 282 77 l 2,89,90
 294 77 294 77 359.5 55 c 128,-1,91
 425 33 425 33 468 33 c 0,92,93
 520 33 520 33 560 56 c 0,94,95
 608 83 608 83 647 150 c 0,96,97
 682 210 682 210 698 273 c 0,98,99
 711 327 711 327 711 373 c 0,57,58
EndSplineSet
EndChar

StartChar: Oacute
Encoding: 211 211 141
Width: 744
Flags: W
LayerCount: 2
Fore
SplineSet
583 1051 m 1,0,-1
 574 1040 l 1,1,2
 527 1016 527 1016 306 959 c 0,3,4
 222 938 222 938 124 878 c 1,5,6
 97 917 97 917 97 932 c 0,7,8
 97 943 97 943 113 965 c 0,9,10
 136 1000 136 1000 284.5 1038.5 c 128,-1,11
 433 1077 433 1077 528 1077 c 2,12,-1
 554 1077 l 2,13,14
 569 1077 569 1077 583 1068 c 0,15,16
 589 1064 589 1064 583 1051 c 1,0,-1
774 290 m 0,17,18
 774 144 774 144 637 56 c 0,19,20
 517 -22 517 -22 354 -22 c 0,21,22
 335 -22 335 -22 310.5 -18 c 128,-1,23
 286 -14 286 -14 258 -5 c 0,24,25
 149 28 149 28 79 108 c 1,26,27
 -18 222 -18 222 -18 410 c 0,28,29
 -18 574 -18 574 56 670 c 0,30,31
 113 745 113 745 214 776 c 0,32,33
 280 796 280 796 355 796 c 2,34,-1
 377 795 l 1,35,-1
 390 794 l 1,36,-1
 401 813 l 1,37,38
 412 830 412 830 438 830 c 0,39,40
 462 830 462 830 542 754 c 0,41,42
 634 665 634 665 695 558 c 0,43,44
 774 418 774 418 774 290 c 0,17,18
690 290 m 0,45,46
 690 393 690 393 654 477 c 0,47,48
 603 593 603 593 570 590 c 1,49,-1
 553 593 l 1,50,-1
 534 591 l 1,51,-1
 522 590 l 2,52,53
 492 590 492 590 479 628 c 0,54,55
 472 648 472 648 464 668 c 0,56,-1
 462 674 l 1,57,-1
 342 674 l 1,58,-1
 341 692 l 1,59,60
 335 710 335 710 306 710 c 0,61,62
 202 710 202 710 140 587 c 0,63,64
 90 487 90 487 90 374 c 0,65,66
 90 224 90 224 156 144 c 0,67,68
 203 88 203 88 292 64 c 1,69,-1
 402 38 l 1,70,71
 409 46 409 46 493 63 c 128,-1,72
 577 80 577 80 622 118 c 0,73,74
 690 175 690 175 690 290 c 0,45,46
EndSplineSet
EndChar

StartChar: Ocircumflex
Encoding: 212 212 142
Width: 816
Flags: W
LayerCount: 2
Fore
SplineSet
752 921 m 1,0,-1
 749 885 l 1,1,-1
 535 965 l 2,2,3
 444 1000 444 1000 377 1049 c 1,4,5
 342 1030 342 1030 277 971 c 0,6,7
 205 906 205 906 167 879 c 0,8,9
 101 834 101 834 40 826 c 1,10,-1
 23 868 l 1,11,12
 105 960 105 960 192 1032 c 0,13,14
 247 1076 247 1076 317 1120 c 2,15,-1
 382 1162 l 1,16,17
 411 1140 411 1140 479 1099 c 1,18,19
 597 1031 597 1031 609 1022 c 1,20,21
 688 973 688 973 752 921 c 1,0,-1
774 290 m 0,22,23
 774 144 774 144 637 56 c 0,24,25
 517 -22 517 -22 354 -22 c 0,26,27
 335 -22 335 -22 310.5 -18 c 128,-1,28
 286 -14 286 -14 258 -5 c 0,29,30
 149 28 149 28 79 108 c 1,31,32
 -18 222 -18 222 -18 410 c 0,33,34
 -18 574 -18 574 56 670 c 0,35,36
 113 745 113 745 214 776 c 0,37,38
 280 796 280 796 355 796 c 2,39,-1
 377 795 l 1,40,-1
 390 794 l 1,41,-1
 401 813 l 1,42,43
 412 830 412 830 438 830 c 0,44,45
 462 830 462 830 542 754 c 0,46,47
 634 665 634 665 695 558 c 0,48,49
 774 418 774 418 774 290 c 0,22,23
690 290 m 0,50,51
 690 393 690 393 654 477 c 0,52,53
 603 593 603 593 570 590 c 1,54,-1
 553 593 l 1,55,-1
 534 591 l 1,56,-1
 522 590 l 2,57,58
 492 590 492 590 479 628 c 0,59,60
 472 648 472 648 464 668 c 0,61,-1
 462 674 l 1,62,-1
 342 674 l 1,63,-1
 341 692 l 1,64,65
 335 710 335 710 306 710 c 0,66,67
 202 710 202 710 140 587 c 0,68,69
 90 487 90 487 90 374 c 0,70,71
 90 224 90 224 156 144 c 0,72,73
 203 88 203 88 292 64 c 1,74,-1
 402 38 l 1,75,76
 409 46 409 46 493 63 c 128,-1,77
 577 80 577 80 622 118 c 0,78,79
 690 175 690 175 690 290 c 0,50,51
EndSplineSet
EndChar

StartChar: Otilde
Encoding: 213 213 143
Width: 1000
Flags: W
LayerCount: 2
Fore
SplineSet
489 810 m 1,0,1
 481 783 481 783 474.5 758.5 c 128,-1,2
 468 734 468 734 457 702 c 1,3,4
 430 642 430 642 367 630 c 1,5,-1
 343 628 l 1,6,7
 308 628 308 628 264 652 c 0,8,9
 172 705 172 705 154 705 c 1,10,-1
 131 702 l 2,11,12
 118 701 118 701 99 661 c 1,13,-1
 72 601 l 1,14,-1
 28 632 l 1,15,-1
 57 685 l 2,16,17
 93 750 93 750 132 758 c 1,18,-1
 145 759 l 2,19,20
 171 759 171 759 231.5 720.5 c 128,-1,21
 292 682 292 682 334 682 c 0,22,23
 352 682 352 682 358 684 c 0,24,25
 403 692 403 692 418 740 c 1,26,27
 428 799 428 799 436 825 c 1,28,-1
 489 810 l 1,0,1
660 201 m 0,29,30
 660 106 660 106 543 46 c 0,31,32
 441 -5 441 -5 300 -5 c 0,33,34
 272 -5 272 -5 258.5 -3 c 128,-1,35
 245 -1 245 -1 218 6 c 0,36,37
 124 27 124 27 64 81 c 0,38,39
 -19 155 -19 155 -19 281 c 0,40,41
 -19 434 -19 434 108 497 c 0,42,43
 187 535 187 535 300 535 c 2,44,-1
 318 535 l 1,45,-1
 331 534 l 1,46,47
 335 543 335 543 345.5 550.5 c 128,-1,48
 356 558 356 558 372 558 c 0,49,50
 394 558 394 558 460 508 c 0,51,52
 540 449 540 449 592 378 c 0,53,54
 660 286 660 286 660 201 c 0,29,30
588 201 m 0,55,56
 588 270 588 270 557 325 c 0,57,58
 513 402 513 402 485 399 c 1,59,-1
 471 401 l 1,60,-1
 458 400 l 1,61,-1
 444 399 l 2,62,63
 420 399 420 399 406 426 c 1,64,-1
 392 455 l 1,65,-1
 289 455 l 1,66,-1
 289 462 l 1,67,68
 286 479 286 479 259 479 c 0,69,70
 170 479 170 479 116 398 c 1,71,72
 73 330 73 330 73 257 c 0,73,74
 73 118 73 118 186 70 c 1,75,76
 316 46 316 46 341 35 c 1,77,78
 449 45 449 45 518.5 80.5 c 128,-1,79
 588 116 588 116 588 201 c 0,55,56
EndSplineSet
EndChar

StartChar: Odieresis
Encoding: 214 214 144
Width: 768
Flags: W
LayerCount: 2
Fore
SplineSet
574 936 m 1,0,-1
 504 936 l 1,1,-1
 482 956 l 1,2,3
 469 972 469 972 469 994 c 0,4,5
 469 1041 469 1041 515 1041 c 0,6,7
 542 1041 542 1041 558 1031 c 128,-1,8
 574 1021 574 1021 574 994 c 2,9,-1
 574 936 l 1,0,-1
261 1023 m 1,10,-1
 255 994 l 1,11,-1
 259 971 l 1,12,13
 259 950 259 950 243 934.5 c 128,-1,14
 227 919 227 919 207 919 c 0,15,16
 193 919 193 919 173 937 c 1,17,18
 156 956 156 956 156 971 c 0,19,20
 156 979 156 979 163 986 c 2,21,-1
 205 1022 l 1,22,-1
 261 1023 l 1,10,-1
774 290 m 0,23,24
 774 144 774 144 637 56 c 0,25,26
 517 -22 517 -22 354 -22 c 0,27,28
 335 -22 335 -22 310.5 -18 c 128,-1,29
 286 -14 286 -14 258 -5 c 0,30,31
 149 28 149 28 79 108 c 1,32,33
 -18 222 -18 222 -18 410 c 0,34,35
 -18 574 -18 574 56 670 c 0,36,37
 113 745 113 745 214 776 c 0,38,39
 280 796 280 796 355 796 c 2,40,-1
 377 795 l 1,41,-1
 390 794 l 1,42,-1
 401 813 l 1,43,44
 412 830 412 830 438 830 c 0,45,46
 462 830 462 830 542 754 c 0,47,48
 634 665 634 665 695 558 c 0,49,50
 774 418 774 418 774 290 c 0,23,24
690 290 m 0,51,52
 690 393 690 393 654 477 c 0,53,54
 603 593 603 593 570 590 c 1,55,-1
 553 593 l 1,56,-1
 534 591 l 1,57,-1
 522 590 l 2,58,59
 492 590 492 590 479 628 c 0,60,61
 472 648 472 648 464 668 c 0,62,-1
 462 674 l 1,63,-1
 342 674 l 1,64,-1
 341 692 l 1,65,66
 335 710 335 710 306 710 c 0,67,68
 202 710 202 710 140 587 c 0,69,70
 90 487 90 487 90 374 c 0,71,72
 90 224 90 224 156 144 c 0,73,74
 203 88 203 88 292 64 c 1,75,-1
 402 38 l 1,76,77
 409 46 409 46 493 63 c 128,-1,78
 577 80 577 80 622 118 c 0,79,80
 690 175 690 175 690 290 c 0,51,52
EndSplineSet
EndChar

StartChar: multiply
Encoding: 215 215 145
Width: 448
Flags: W
LayerCount: 2
Fore
SplineSet
358 549 m 1,0,-1
 357 532 l 1,1,2
 357 522 357 522 300.5 451 c 128,-1,3
 244 380 244 380 244 372 c 0,4,5
 244 366 244 366 299 314 c 0,6,7
 332 282 332 282 357 243 c 1,8,-1
 357 219 l 1,9,-1
 309 219 l 1,10,11
 283 235 283 235 246 278 c 1,12,-1
 204 323 l 1,13,14
 192 306 192 306 182.5 270.5 c 128,-1,15
 173 235 173 235 140 235 c 0,16,17
 125 235 125 235 113.5 242.5 c 128,-1,18
 102 250 102 250 100 267 c 1,19,-1
 132 306 l 1,20,21
 162 347 162 347 164 364 c 1,22,-1
 76 476 l 1,23,-1
 76 516 l 1,24,-1
 100 516 l 1,25,26
 121 505 121 505 159 459 c 1,27,28
 189 420 189 420 204 420 c 0,29,30
 215 420 215 420 258.5 492 c 128,-1,31
 302 564 302 564 333 564 c 2,32,-1
 357 564 l 1,33,-1
 358 549 l 1,0,-1
EndSplineSet
EndChar

StartChar: Oslash
Encoding: 216 216 146
Width: 1000
Flags: W
LayerCount: 2
Fore
SplineSet
982 469 m 0,0,1
 982 417 982 417 933 356 c 0,2,3
 893 307 893 307 814 244 c 1,4,-1
 672 137 l 2,5,6
 603 86 603 86 507 44 c 0,7,8
 392 -6 392 -6 311 -6 c 0,9,10
 278 -6 278 -6 251 3 c 1,11,-1
 196 3 l 1,12,13
 196 -37 196 -37 171 -87 c 0,14,15
 139 -152 139 -152 96 -152 c 0,16,17
 78 -152 78 -152 63 -134 c 0,18,19
 54 -123 54 -123 52 -107 c 1,20,21
 52 -87 52 -87 90 -46 c 128,-1,22
 128 -5 128 -5 128 37 c 1,23,24
 90 72 90 72 61 127 c 0,25,26
 29 186 29 186 29 268 c 0,27,28
 29 437 29 437 173 581 c 1,29,30
 306 712 306 712 427 712 c 0,31,32
 440 712 440 712 472 701 c 2,33,-1
 505 690 l 1,34,35
 538 690 538 690 588 739 c 2,36,-1
 686 837 l 1,37,38
 745 891 745 891 793 900 c 1,39,-1
 793 855 l 1,40,41
 770 833 770 833 753 813 c 2,42,-1
 704 756 l 1,43,44
 731 730 731 730 812.5 687.5 c 128,-1,45
 894 645 894 645 928 611 c 0,46,47
 982 555 982 555 982 469 c 0,0,1
914 480 m 0,48,49
 914 540 914 540 823 607 c 0,50,51
 741 668 741 668 694 668 c 0,52,53
 645 668 645 668 563 546 c 1,54,-1
 461 380 l 1,55,56
 268 99 268 99 262 48 c 1,57,-1
 306 48 l 2,58,59
 405 48 405 48 557 136 c 0,60,61
 625 175 625 175 686.5 221 c 128,-1,62
 748 267 748 267 803 321 c 0,63,64
 914 428 914 428 914 480 c 0,48,49
484 590 m 1,65,-1
 484 645 l 1,66,-1
 465 635 l 1,67,-1
 464 638 l 1,68,69
 457 645 457 645 416 645 c 0,70,71
 320 645 320 645 208 512 c 128,-1,72
 96 379 96 379 96 280 c 0,73,74
 96 205 96 205 133 156 c 0,75,76
 163 117 163 117 196 114 c 1,77,78
 196 132 196 132 266 251 c 0,79,80
 320 341 320 341 401 467 c 0,81,82
 475 581 475 581 484 590 c 1,65,-1
EndSplineSet
EndChar

StartChar: Ugrave
Encoding: 217 217 147
Width: 720
Flags: W
LayerCount: 2
Fore
SplineSet
568 946 m 1,0,-1
 535 930 l 1,1,2
 500 952 500 952 381 998 c 1,3,-1
 194 1067 l 1,4,5
 99 1104 99 1104 81 1128 c 1,6,-1
 77 1142 l 1,7,8
 77 1151 77 1151 85.5 1162 c 128,-1,9
 94 1173 94 1173 104 1177 c 1,10,-1
 176 1147 l 2,11,12
 226 1125 226 1125 269 1104 c 0,13,14
 321 1079 321 1079 350 1065 c 0,15,16
 467 1006 467 1006 568 946 c 1,0,-1
699 355 m 0,17,18
 699 213 699 213 631 108 c 0,19,20
 557 -8 557 -8 444 -8 c 2,21,-1
 375 -8 l 2,22,23
 234 -8 234 -8 143 104 c 0,24,25
 77 186 77 186 43 325 c 0,26,27
 33 368 33 368 27 409.5 c 128,-1,28
 21 451 21 451 21 483 c 2,29,-1
 21 807 l 1,30,31
 29 828 29 828 35 836 c 128,-1,32
 41 844 41 844 54 844 c 0,33,34
 64 844 64 844 78 838 c 128,-1,35
 92 832 92 832 96.5 816.5 c 128,-1,36
 101 801 101 801 106 801 c 1,37,-1
 108 707 l 1,38,-1
 110 542 l 1,39,40
 110 481 110 481 114 426.5 c 128,-1,41
 118 372 118 372 127 326 c 0,42,43
 149 204 149 204 202 126 c 0,44,45
 264 36 264 36 365 21 c 1,46,-1
 402 18 l 1,47,48
 490 18 490 18 553 88 c 0,49,50
 605 146 605 146 635 250 c 0,51,52
 639 267 639 267 642 285.5 c 128,-1,53
 645 304 645 304 645 321 c 0,54,55
 645 332 645 332 644 346.5 c 128,-1,56
 643 361 643 361 640 376 c 1,57,-1
 630 440 l 1,58,59
 625 481 625 481 613 523 c 128,-1,60
 601 565 601 565 576 624.5 c 128,-1,61
 551 684 551 684 502 778 c 0,62,63
 488 806 488 806 473 836 c 0,64,65
 469 845 469 845 463 857 c 1,66,67
 463 865 463 865 478 876 c 1,68,69
 492 884 492 884 503 886 c 1,70,71
 527 886 527 886 573.5 805.5 c 128,-1,72
 620 725 620 725 657 607 c 0,73,74
 699 470 699 470 699 355 c 0,17,18
EndSplineSet
EndChar

